<svg width="61" height="61" fill="none" xmlns="http://www.w3.org/2000/svg"><path d="M46.864 22.898v.75h5v3.5h-5v6.5h5v3.5h-5v5.748a4.265 4.265 0 0 1-4.25 4.252h-5.75v5h-3.5v-5h-6.5v5h-3.5v-5h-5.748a4.265 4.265 0 0 1-4.252-4.252v-5.748h-5v-3.5h5v-6.5h-5v-3.5h5v-5.75a4.265 4.265 0 0 1 4.251-4.25h5.75v-5h3.5v5h6.5v-5h3.5v5h5.748a4.265 4.265 0 0 1 4.251 4.25v5Zm-4.25 20.75h.75v-26.5h-26.5v26.5h25.75Z" fill="#FDD8A1" stroke="#A2783A" stroke-width="1.5"/><path d="M23.857 34.96h-.587l-.141.57-1.02 4.117h-1.018l4.648-18.5h2.19l4.546 18.5h-1.108l-.991-4.113-.139-.574h-6.38Zm-.393-1.422-.214.92H30.248l-.206-.915-2.457-10.935-.132-.585h-1.31l-.135.58-2.545 10.934Zm13.01-12.39h1v18.5h-1v-18.5Z" fill="#FDD8A1" stroke="#A2783A" stroke-width="1.5"/></svg>