<svg width="229" height="254" fill="none" xmlns="http://www.w3.org/2000/svg"><path opacity=".2" d="M110.196 141.021a87.88 87.88 0 0 0 19.239-12.984c5.702-5.196 10.72-11.019 14.909-17.298 4.194-6.085 7.663-12.522 10.331-19.172 2.698-6.64 4.195-13.507 4.422-20.29.1-3.418-.329-6.758-1.271-9.918a19.803 19.803 0 0 0-5.063-8.663c-2.718-2.65-6.441-4.225-10.577-4.474-4.254-.148-8.645.864-12.662 2.919a45.212 45.212 0 0 0-5.472 3.16 67.601 67.601 0 0 0-4.76 3.734 51.523 51.523 0 0 0-4.183 4.007l-2.096 2.128-1.818 2.12a121.309 121.309 0 0 0-12.007 17.287c-3.462 5.883-6.088 12.082-7.798 18.412-1.616 6.004-2.327 12.071-2.109 18.013l.048 2.149.26 2.095c.159 1.376.321 2.81.514 4.132a68.9 68.9 0 0 0 1.813 7.853c.445 1.483.977 2.938 1.509 4.393-1.565.462-3.013.784-4.693 1.234-6.218 1.431-12.49 2.086-18.649 1.946-5.882-.206-11.564-1.272-16.849-3.162-9.93-3.92-18.447-10.07-24.912-17.986a88.313 88.313 0 0 1-14.23-24.795A145.034 145.034 0 0 1 6.976 72.21 161.326 161.326 0 0 1 4.2 48.653c-.584-11.687.896-23.669 4.383-35.471C11.253 4.723 13.82.062 13.288.062a12.85 12.85 0 0 0-2.135 3.215 74.456 74.456 0 0 0-4.51 9.714C2.34 24.951.236 37.231.428 49.26c.04 8.218.688 16.34 1.94 24.308a148.282 148.282 0 0 0 6.475 26.635c3.278 9.567 8.06 18.442 14.2 26.361 6.76 8.751 15.819 15.599 26.472 20.012 5.86 2.24 12.188 3.55 18.762 3.885 6.88.276 13.907-.362 20.883-1.896a73.29 73.29 0 0 0 7.172-1.866 83.926 83.926 0 0 0 9.317 14.999c9.763 12.294 21.628 22.877 35.21 31.408 9.786 6.253 20.211 11.669 31.176 16.195 12.093 5.109 24.933 8.878 38.297 11.242l4.222.571-4.077 1.512c-4.354 1.73-8.495 3.617-12.424 5.451a176.448 176.448 0 0 0-20.075 11.343c-11.033 7.229-16.878 12.856-16.322 13.567.557.71 7.436-3.35 18.551-9.211 5.616-2.895 12.29-6.27 19.859-9.529a253 253 0 0 1 11.945-4.852c2.102-.768 4.227-1.553 6.381-2.296 1.089-.38 2.071-.657 3.648-1.309a11.975 11.975 0 0 0 5.238-3.97 8.938 8.938 0 0 0 1.433-3.099c.19-.851.263-1.705.217-2.541a15.216 15.216 0 0 0-.729-3.563c-.546-1.839-1.141-3.645-1.682-5.426a593.327 593.327 0 0 0-3.407-10.188 250.295 250.295 0 0 0-6.766-16.771c-4.191-9.258-7.624-14.701-8.691-14.185-1.067.517.339 6.889 3.096 16.853l5.022 17.387c.953 3.267 1.938 6.685 2.955 10.253a643.383 643.383 0 0 0 1.567 5.414c.017.048.046.09.085.124-1.533-.529-3.734-1.207-6.936-2.051a274.633 274.633 0 0 1-36.035-12.605c-10.4-4.621-20.321-9.998-29.685-16.092-12.827-8.21-24.058-18.307-33.35-29.981a81.03 81.03 0 0 1-7.912-12.474c1.278-.57 2.557-1.14 3.807-1.751l-.07-.103Zm-8.265-9.143a59.853 59.853 0 0 1-1.71-6.923c-.195-1.169-.318-2.388-.478-3.612l-.216-1.822-.041-1.88c-.25-5.096.328-10.311 1.714-15.472 1.438-5.467 3.669-10.826 6.628-15.916a106.441 106.441 0 0 1 10.641-15.598l1.546-1.842 1.629-1.719a49.925 49.925 0 0 1 3.373-3.272c1.142-1.083 2.293-1.838 3.602-2.884a30.325 30.325 0 0 1 3.752-2.197c2.15-1.288 4.591-1.923 6.942-1.807 2.351.116 4.48.976 6.056 2.447 3.271 3.723 4.887 8.607 4.571 13.816-.139 5.79-1.353 11.664-3.587 17.355-2.34 5.996-5.4 11.809-9.116 17.313-3.608 5.582-7.963 10.768-12.936 15.406a76.644 76.644 0 0 1-16.773 11.451 82.311 82.311 0 0 1-3.973 1.925 93.467 93.467 0 0 1-1.757-4.86" fill="#A2783A"/></svg>