<svg width="60" height="60" fill="none" xmlns="http://www.w3.org/2000/svg"><path d="M31.312 46.876v4.687h-2.25v-4.875h-.937c-1.957 0-3.998-.983-5.851-2.091a16.672 16.672 0 0 1-3.05-2.925l2.458-2.703c.718.86 1.59 1.66 2.473 2.261 1.392 1.336 3.534 1.708 5.095 1.708 1.302 0 3.067-.429 4.413-1.775l.065-.065.052-.077c.831-1.248 1.282-2.55 1.282-3.895 0-1.311-.434-2.698-1.4-3.663l-.065-.066-.077-.051c-1.164-.776-2.704-1.552-3.91-1.963-.312-.156-.627-.31-.941-.464-2.013-.985-4.016-1.966-5.506-3.456-1.285-1.285-1.976-3.274-1.976-5.337v-.078l-.013-.076c-.305-1.836.596-3.796 2.025-5.595 1.395-1.383 3.096-2.38 4.735-2.707l.753-.15V8.437h2.625v5.25h.938c1.36 0 2.668.343 3.605.968.918.611 1.785 1.191 2.642 1.952l-2.185 2.914a7.476 7.476 0 0 0-5.045-2.083c-.798-.217-1.55-.055-2.19.212-.646.269-1.27.685-1.805 1.042-.612.328-.996.902-1.223 1.411a4.2 4.2 0 0 0-.362 1.647c0 .915.434 2.44 1.924 3.058 1.237 1.176 2.818 1.947 4.375 2.342 2.097.704 3.837 1.749 5.6 3.512l.038.037.04.033c1.565 1.252 2.273 3.542 2.273 5.643 0 2.401-1.043 5.155-2.725 6.837-1.389 1.388-3.093 2.4-5.116 2.738l-.784.13v.795ZM.937 30C.937 14.018 14.017.938 30 .938c15.982 0 29.062 13.08 29.062 29.063 0 15.982-13.08 29.062-29.062 29.062-15.982 0-29.063-13.08-29.063-29.062Zm2.25 0c0 14.767 12.045 26.812 26.813 26.812 14.767 0 26.812-12.045 26.812-26.812C56.812 15.233 44.768 3.188 30 3.188S3.187 15.233 3.187 30.001Z" fill="#FDD8A1" stroke="#A2783A" stroke-width="1.875"/></svg>