<svg width="62" height="62" viewBox="0 0 62 62" fill="none" xmlns="http://www.w3.org/2000/svg">
<path d="M23.0496 3.957L27.5894 6.54512C27.5565 6.43009 27.5697 6.16553 27.8855 6.0275C28.2013 5.88946 28.4118 6.10151 28.4776 6.22478C28.5718 6.20181 28.6706 6.18049 28.7737 6.16147C29.1685 5.28286 30.0567 3.21507 30.4515 1.97277C30.8463 0.730469 29.4975 0.937518 28.7737 1.19633C27.4907 1.59893 24.6484 2.47314 23.543 2.74921C22.4377 3.02527 22.7535 3.66943 23.0496 3.957Z" fill="#FCD7A1"/>
<path d="M27.5894 6.54512C26.8657 6.91896 25.4774 7.92546 25.7143 8.9607C25.5639 8.98598 25.3645 9.03011 25.1221 9.09579C25.0563 9.97098 24.9642 11.8422 25.1221 12.3253C25.3173 12.9224 29.2761 12.9291 35.09 9.84273C34.9913 9.77579 33.7083 7.14902 31.5371 6.37258C30.5127 6.00625 29.5295 6.022 28.7737 6.16147C28.6706 6.18049 28.5718 6.20181 28.4776 6.22478C30.0567 6.93969 31.9319 8.70189 31.4384 9.21952C31.0436 9.63362 29.4975 8.41432 28.7737 7.75291C28.9382 8.50059 29.0698 10.0477 28.2803 10.2548C27.4907 10.4618 27.4907 7.86794 27.5894 6.54512Z" fill="#FCD7A1"/>
<path d="M30.4515 24.3571L35.4848 31.9087C35.8138 32.0525 36.5309 32.3228 36.7678 32.2538C36.9784 32.1925 39.2326 31.2629 40.7012 30.6532C40.8845 30.5771 41.0556 30.506 41.2089 30.4421L39.0483 21.8151C37.2289 22.8576 34.0219 23.7089 30.4515 24.3571Z" fill="#FCD7A1"/>
<path d="M38.7416 39.6731C36.6888 40.2252 36.7019 41.7524 36.9651 42.447C39.73 42.4529 42.3226 42.4655 44.5644 42.4869C44.6232 42.4874 44.6817 42.488 44.74 42.4886C44.8519 42.3302 44.9592 41.8139 44.9592 40.5358C44.9592 38.5343 42.7095 37.4013 41.5846 37.085C41.3943 37.1565 41.2014 37.2289 41.0115 37.2999C41.1102 37.8609 40.7944 39.121 38.7416 39.6731Z" fill="#FCD7A1"/>
<path d="M46.3409 42.5067C49.3515 42.5457 51.4854 42.6054 52.1638 42.6926C54.0587 39.0347 50.6505 37.0275 48.7095 36.4811C48.8082 38.034 47.0317 37.5163 45.8474 39.4143C44.9 40.9327 45.7816 42.1085 46.3409 42.5067Z" fill="#FCD7A1"/>
<path d="M7.85097 52.6137C7.57692 52.8097 7.34808 52.9078 7.16009 52.9421V59.6017L55.0258 59.8333V51.6594C54.7579 51.6912 54.5384 51.4845 54.4337 51.3197C54.4407 51.2346 54.4482 51.1029 54.455 50.924C49.7392 50.7009 48.4134 55.892 45.0579 53.1314C42.3735 50.9228 40.6496 50.6583 40.1233 50.802C39.8272 50.8596 38.7021 51.2161 36.5703 52.1824C34.4386 53.1486 32.7214 52.9876 32.1292 52.7863C31.1752 52.1249 28.8526 50.7675 27.1946 50.6295C25.1221 50.457 25.0234 51.1471 22.3587 52.3549C19.694 53.5627 19.4966 53.1314 18.5097 53.1314C17.5228 53.1314 15.1541 51.0609 12.4894 50.802C10.3577 50.595 8.5089 51.9236 7.85097 52.6137Z" fill="#FCD7A1"/>
<path d="M36.7678 32.2538C36.5309 32.3228 35.8138 32.0525 35.4848 31.9087C35.3203 31.9663 35.1098 32.3056 35.5835 33.2028C36.0572 34.1 37.6889 36.6249 38.4456 37.7752C38.4785 37.9189 38.7811 38.1202 39.7285 37.7752C40.0773 37.6481 40.5348 37.4782 41.0115 37.2999C41.2014 37.2289 41.3943 37.1565 41.5846 37.085C42.2144 36.8482 42.8156 36.6206 43.1828 36.4811C43.3144 36.4523 43.5381 36.2568 43.3802 35.7047C43.2223 35.1525 42.2617 31.9087 41.8011 30.3559C41.6037 30.2696 41.2089 30.1661 41.2089 30.4421C41.0556 30.506 40.8845 30.5771 40.7012 30.6532L40.7155 30.7009C41.1431 32.2826 42.0182 35.4804 42.0972 35.6184C42.1761 35.7564 40.2878 36.3661 39.3338 36.6536C38.4785 35.5034 36.7678 33.013 36.7678 32.2538Z" fill="#A2783A"/>
<path d="M7.85097 52.6137V46.661C7.98256 45.6546 8.93658 43.6416 11.7 43.6416H51.4729C52.4269 43.6703 54.3547 44.3662 54.4337 46.9199C54.496 48.9335 54.4805 50.257 54.455 50.924C54.4482 51.1029 54.4407 51.2346 54.4337 51.3197C54.5384 51.4845 54.7579 51.6912 55.0258 51.6594C55.1786 51.6412 55.3472 51.5453 55.5193 51.3197V45.7121C55.5193 44.8494 54.8482 43.0377 52.1638 42.6926C51.4854 42.6054 49.3515 42.5457 46.3409 42.5067C45.8314 42.5 45.2969 42.494 44.74 42.4886C44.6767 42.5782 44.612 42.5532 44.5644 42.4869C42.3226 42.4655 39.73 42.4529 36.9651 42.447C28.3935 42.4287 18.166 42.4744 11.6013 42.5201C9.92351 42.6638 6.54823 43.6933 6.46928 46.661C6.39032 49.6288 6.43638 51.8661 6.46928 52.6137C6.53684 52.7909 6.75234 53.0165 7.16009 52.9421C7.34808 52.9078 7.57692 52.8097 7.85097 52.6137Z" fill="#A2783A"/>
<path d="M7.16009 59.6017H1.43594C1.10697 59.803 0.646407 60.3263 1.43594 60.8095C20.9112 60.9532 60.0196 61.1545 60.6512 60.8095C61.2829 60.4644 60.9144 60.033 60.6512 59.8605L55.0258 59.8333L7.16009 59.6017Z" fill="#A2783A"/>
<path d="M27.5894 6.54512C27.4907 7.86794 27.4907 10.4618 28.2803 10.2548C29.0698 10.0477 28.9382 8.50059 28.7737 7.75291C29.4975 8.41432 31.0436 9.63362 31.4384 9.21952C31.9319 8.70189 30.0567 6.93969 28.4776 6.22478C28.0916 6.31896 27.7847 6.4408 27.5894 6.54512Z" fill="#A2783A"/>
<path d="M10.9104 14.137C12.5553 14.1082 16.5754 13.5848 19.4967 11.7214C21.9043 10.1855 23.9858 9.40372 25.1221 9.09579M27.5894 6.54512C26.8657 6.91896 25.4774 7.92546 25.7143 8.9607C25.5639 8.98598 25.3645 9.03011 25.1221 9.09579M27.5894 6.54512L23.0496 3.957C22.7535 3.66943 22.4377 3.02527 23.543 2.74921C24.6484 2.47314 27.4907 1.59893 28.7737 1.19633C29.4975 0.937518 30.8463 0.730469 30.4515 1.97277C30.0567 3.21507 29.1685 5.28286 28.7737 6.16147M27.5894 6.54512C27.4907 7.86794 27.4907 10.4618 28.2803 10.2548C29.0698 10.0477 28.9382 8.50059 28.7737 7.75291C29.4975 8.41432 31.0436 9.63362 31.4384 9.21952C31.9319 8.70189 30.0567 6.93969 28.4776 6.22478M27.5894 6.54512C27.7847 6.4408 28.0916 6.31896 28.4776 6.22478M27.5894 6.54512C27.5565 6.43009 27.5697 6.16553 27.8855 6.0275C28.2013 5.88946 28.4118 6.10151 28.4776 6.22478M25.1221 9.09579C25.0563 9.97098 24.9642 11.8422 25.1221 12.3253C25.3173 12.9224 29.2761 12.9291 35.09 9.84273M12.7856 25.6972C14.4737 26.1513 23.2102 25.6718 30.4515 24.3571M35.09 9.84273C35.1556 9.80793 35.2214 9.77274 35.2874 9.73714C37.327 9.53584 40.5773 10.0822 37.2612 13.8781C39.2022 14.2232 42.0972 15.5 38.1495 17.8466C40.2549 18.0191 43.4394 19.0199 39.3338 21.6425C39.2429 21.7006 39.1476 21.7581 39.0483 21.8151M35.09 9.84273C34.9913 9.77579 33.7083 7.14902 31.5371 6.37258C30.5127 6.00625 29.5295 6.022 28.7737 6.16147M30.4515 24.3571L35.4848 31.9087M30.4515 24.3571C34.0219 23.7089 37.2289 22.8576 39.0483 21.8151M35.4848 31.9087C35.8138 32.0525 36.5309 32.3228 36.7678 32.2538M35.4848 31.9087C35.3203 31.9663 35.1098 32.3056 35.5835 33.2028C36.0572 34.1 37.6889 36.6249 38.4456 37.7752C38.4784 37.9189 38.7811 38.1202 39.7286 37.7752C40.0773 37.6481 40.5348 37.4782 41.0115 37.2999M36.7678 32.2538C36.7678 33.013 38.4785 35.5034 39.3338 36.6536C40.2878 36.3661 42.1761 35.7564 42.0972 35.6184C42.0182 35.4804 41.1431 32.2826 40.7155 30.7009L40.7012 30.6532M36.7678 32.2538C36.9784 32.1925 39.2326 31.2629 40.7012 30.6532M41.2089 30.4421L39.0483 21.8151M41.2089 30.4421C41.2089 30.1661 41.6037 30.2696 41.8011 30.3559C42.2616 31.9087 43.2223 35.1525 43.3802 35.7047C43.5381 36.2568 43.3144 36.4523 43.1828 36.4811C42.8156 36.6206 42.2144 36.8482 41.5846 37.085M41.2089 30.4421C41.0556 30.506 40.8845 30.5771 40.7012 30.6532M28.7737 6.16147C28.6706 6.18049 28.5718 6.20181 28.4776 6.22478M7.85097 52.6137V46.661C7.98256 45.6546 8.93658 43.6416 11.7 43.6416M7.85097 52.6137C7.57692 52.8097 7.34808 52.9078 7.16009 52.9421M7.85097 52.6137C8.5089 51.9236 10.3577 50.595 12.4894 50.802C15.1541 51.0609 17.5228 53.1314 18.5097 53.1314C19.4966 53.1314 19.694 53.5627 22.3587 52.3549C25.0234 51.1471 25.1221 50.457 27.1946 50.6295C28.8526 50.7675 31.1752 52.1249 32.1292 52.7863C32.7214 52.9876 34.4386 53.1486 36.5703 52.1824C38.7021 51.2161 39.8272 50.8596 40.1233 50.802C40.6496 50.6583 42.3735 50.9228 45.0579 53.1314C48.4134 55.892 49.7392 50.7009 54.455 50.924M11.7 43.6416C14.4633 43.6416 39.3667 43.6416 51.4729 43.6416M11.7 43.6416H51.4729M51.4729 43.6416C52.4269 43.6703 54.3547 44.3662 54.4337 46.9199C54.496 48.9335 54.4805 50.257 54.455 50.924M52.1638 42.6926C54.8482 43.0377 55.5193 44.8494 55.5193 45.7121V51.3197C55.3472 51.5453 55.1786 51.6412 55.0258 51.6594M52.1638 42.6926C51.4854 42.6054 49.3515 42.5457 46.3409 42.5067M52.1638 42.6926C54.0587 39.0347 50.6505 37.0275 48.7095 36.4811C48.8082 38.034 47.0317 37.5163 45.8474 39.4143C44.9 40.9327 45.7816 42.1085 46.3409 42.5067M7.16009 52.9421C6.75234 53.0165 6.53684 52.7909 6.46928 52.6137C6.43638 51.8661 6.39032 49.6288 6.46928 46.661C6.54823 43.6933 9.92351 42.6638 11.6013 42.5201C18.166 42.4744 28.3935 42.4287 36.9651 42.447M7.16009 52.9421V59.6017M7.16009 59.6017H1.43594C1.10697 59.803 0.646407 60.3263 1.43594 60.8095C20.9112 60.9532 60.0196 61.1545 60.6512 60.8095C61.2829 60.4644 60.9144 60.033 60.6512 59.8605L55.0258 59.8333M7.16009 59.6017L55.0258 59.8333M54.455 50.924C54.4482 51.1029 54.4407 51.2345 54.4337 51.3197C54.5384 51.4845 54.7579 51.6912 55.0258 51.6594M55.0258 51.6594V59.8333M36.9651 42.447C36.7019 41.7524 36.6888 40.2252 38.7416 39.6731C40.7944 39.121 41.1102 37.8609 41.0115 37.2999M36.9651 42.447C39.73 42.4529 42.3226 42.4655 44.5644 42.4869M41.0115 37.2999C41.2014 37.2289 41.3943 37.1565 41.5846 37.085M41.5846 37.085C42.7095 37.4013 44.9592 38.5343 44.9592 40.5358C44.9592 41.8139 44.8519 42.3302 44.74 42.4886M44.5644 42.4869C44.6232 42.4874 44.6817 42.488 44.74 42.4886M44.5644 42.4869C44.612 42.5532 44.6767 42.5782 44.74 42.4886M46.3409 42.5067C45.8314 42.5 45.2969 42.494 44.74 42.4886" stroke="#A2783A" stroke-width="0.75"/>
</svg>
