<svg width="78" height="61" viewBox="0 0 78 61" fill="none" xmlns="http://www.w3.org/2000/svg">
<path d="M24.0097 38.704C22.0362 35.4627 21.3138 31.7076 21.6865 27.9378C21.6477 28.428 21.6285 28.9212 21.6286 29.4148C21.6289 32.7639 22.5163 36.1058 24.1846 38.6059C21.0158 33.4053 21.1022 26.8577 23.8071 21.0683L24.0097 38.704ZM24.0097 38.704C20.8118 33.899 20.4711 26.0846 23.6312 20.9725M52.362 43.2027L52.3627 43.2021C52.4539 43.1273 52.5043 43.0255 52.5063 42.9158C52.5082 42.8122 52.4668 42.7201 52.4112 42.6521C52.3886 42.6243 52.361 42.598 52.3297 42.5749C58.5098 36.0951 59.6765 24.8745 52.9359 18.3152C49.6313 15.0995 44.9858 13.1352 40.2909 12.7257C35.6226 12.3185 30.8859 13.4475 27.3622 16.4375C27.3066 16.4395 27.2451 16.4509 27.1808 16.4803C23.0724 18.3487 21.1108 22.4934 20.6856 26.9448C20.2604 31.3958 21.364 36.2019 23.4401 39.4679C28.6143 47.6091 40.6942 50.2897 48.9148 45.3289C50.1488 44.7531 51.3159 44.0528 52.362 43.2027ZM24.8892 20.1602C24.9018 20.1646 24.9147 20.1684 24.9277 20.1717C25.0606 20.2047 25.2105 20.173 25.322 20.0494L25.3224 20.0488C32.632 11.8898 43.9547 12.0645 52.1701 19.1072L52.2987 18.9572L52.1701 19.1072C55.7267 22.1558 56.8913 26.6648 56.3696 31.1415C55.8476 35.6206 53.6388 40.0399 50.488 42.8735C50.1421 43.1842 49.7818 43.4698 49.4147 43.7434C43.4232 46.3917 37.5092 46.8368 31.1028 43.8479L31.1028 43.8479C26.3435 41.6284 23.8462 37.7711 23.0197 33.41C22.2064 29.1184 23.0118 24.3362 24.8892 20.1602Z" fill="#FDD8A1" stroke="#A2783A" stroke-width="0.4"/>
<path d="M37.2115 35.8275C37.2532 35.8326 37.2976 35.8304 37.3425 35.8175C37.4363 35.7907 37.5095 35.7239 37.551 35.6335L37.5511 35.6331C38.2885 34.0158 38.8252 32.3141 39.3346 30.613C39.4053 30.3772 39.4753 30.1415 39.5453 29.906C39.9815 28.4388 40.4151 26.9806 40.9592 25.5707C41.011 25.4364 41.0016 25.3001 40.9324 25.1877C40.8672 25.0816 40.762 25.0178 40.658 24.9897C40.6358 24.9837 40.6126 24.9791 40.5888 24.9762C40.8786 24.6412 41.183 24.316 41.4906 23.9894C41.9962 23.4525 42.8834 22.8001 43.759 22.64C44.1904 22.5611 44.6084 22.6033 44.9808 22.8256C45.3545 23.0486 45.7076 23.468 45.9787 24.1918C46.2037 24.7928 46.1835 25.4909 46.0462 26.2082C45.9162 26.8869 45.6859 27.561 45.481 28.1609C45.4696 28.1943 45.4583 28.2274 45.4471 28.2603C45.2196 28.9272 44.948 29.5898 44.6407 30.2458C44.9175 29.4078 45.2073 28.5731 45.5095 27.7396C45.5544 27.616 45.5428 27.4907 45.478 27.388C45.4171 27.2913 45.3209 27.233 45.2264 27.2074C45.0408 27.1569 44.781 27.2191 44.6858 27.4796L44.6857 27.4799C44.627 27.6413 44.5681 27.803 44.5091 27.9648C44.297 28.5466 44.0839 29.1311 43.8793 29.7197C43.9592 29.4152 44.0378 29.1117 44.1159 28.81C44.2289 28.3734 44.341 27.9405 44.4547 27.5136L44.4547 27.5134C44.4911 27.3765 44.4667 27.2461 44.3967 27.1427C44.3297 27.0437 44.2287 26.9805 44.1255 26.9521C44.0223 26.9238 43.9029 26.9265 43.7947 26.9782C43.6814 27.0322 43.5952 27.1332 43.5582 27.27L37.2115 35.8275ZM37.2115 35.8275C37.8666 36.6541 38.4893 37.5016 39.0322 38.3913C39.0423 38.4027 39.0529 38.4145 39.0637 38.4266C39.6183 37.7911 40.1705 37.1283 40.709 36.4444M37.2115 35.8275L40.709 36.4444M40.709 36.4444C41.1203 34.9799 41.5952 33.5343 42.0688 32.0929C42.0929 32.0195 42.117 31.9462 42.141 31.8728C42.643 30.3443 43.14 28.819 43.5582 27.2701L40.709 36.4444ZM36.236 34.4864C36.2217 34.5256 36.2143 34.5654 36.2138 34.6045C36.1195 34.4912 36.0249 34.3781 35.9303 34.2652C35.9773 34.232 36.0169 34.1871 36.0464 34.1323M36.236 34.4864C36.2361 34.4863 36.2361 34.4862 36.2361 34.4862L36.4238 34.5552M36.236 34.4864C36.236 34.4865 36.236 34.4865 36.236 34.4866L36.4238 34.5552M36.236 34.4864C37.1728 31.9198 38.0312 29.3824 38.7074 26.746C38.6939 26.7387 38.6807 26.7306 38.6677 26.7216C38.4829 27.3061 38.3077 27.9015 38.1315 28.5002C37.5651 30.425 36.9885 32.3846 36.0464 34.1323M36.4238 34.5552C36.3588 34.7322 36.6274 34.8316 36.7198 34.6797L36.4238 34.5552ZM36.0464 34.1323L35.8704 34.0374L36.0465 34.1321C36.0465 34.1322 36.0464 34.1322 36.0464 34.1323ZM34.3787 23.164L34.3785 23.1639C34.1958 23.1274 34.0179 23.1023 33.8454 23.0882C33.8789 23.1542 33.8931 23.234 33.8749 23.3247C33.8026 23.6867 33.7374 24.0539 33.6718 24.4233C33.6417 24.5928 33.6116 24.7628 33.5806 24.933C33.7196 24.5435 33.8539 24.1582 33.9768 23.7745L33.9768 23.7743C34.063 23.5061 34.3214 23.4334 34.5144 23.4859C34.6111 23.5122 34.7062 23.5718 34.7685 23.6667C34.8336 23.7659 34.8528 23.889 34.8175 24.0157L34.8174 24.016C34.6732 24.5314 34.5424 25.0682 34.4106 25.6162C34.3984 25.6667 34.3863 25.7172 34.3741 25.7678C34.2732 26.1878 34.1708 26.6135 34.0611 27.0376C34.3816 26.0137 34.7086 24.9939 35.0408 23.9837L34.3787 23.164ZM34.3787 23.164C35.9615 23.4792 37.2517 24.4836 38.1066 25.8105C38.0131 26.0487 37.9189 26.2877 37.8245 26.5273C37.7239 26.7825 37.623 27.0385 37.5222 27.2952C37.6246 26.8415 37.731 26.399 37.8494 25.9735C37.8825 25.8549 37.8649 25.7385 37.8032 25.6444C37.7443 25.5546 37.6546 25.4986 37.5639 25.474C37.3829 25.4249 37.1389 25.4936 37.0583 25.7465L37.0582 25.7467M34.3787 23.164L37.0582 25.7467M37.0582 25.7467C36.8353 26.4479 36.6056 27.1543 36.3748 27.8639C36.2859 28.1371 36.1969 28.4107 36.1081 28.6847C36.3714 27.5337 36.5475 26.3631 36.7137 25.2585C36.7445 25.0537 36.775 24.8512 36.8056 24.6516L36.8056 24.6515M37.0582 25.7467L36.8056 24.6515M36.8056 24.6515C36.8486 24.3705 36.6535 24.1744 36.4576 24.1181C36.3579 24.0894 36.239 24.0898 36.1317 24.1455C36.0184 24.2044 35.9428 24.3123 35.9173 24.4478L35.9173 24.448M36.8056 24.6515L35.9173 24.448M35.9173 24.448C35.5772 26.2621 35.08 28.001 34.5781 29.7561M35.9173 24.448L34.5781 29.7561M34.5781 29.7561C34.3762 30.4623 34.1735 31.1711 33.98 31.8886M34.5781 29.7561L33.98 31.8886M33.98 31.8886C33.918 31.8089 33.8565 31.7292 33.796 31.6494C34.3649 30.5273 34.7162 29.2731 35.0124 28.0207C35.1008 27.6471 35.1841 27.2745 35.2666 26.9053C35.472 25.9866 35.6727 25.0888 35.9353 24.2471L33.98 31.8886ZM35.8903 23.8722C35.9596 23.9791 35.9777 24.1115 35.9353 24.2471L35.8903 23.8722ZM35.8903 23.8722C35.8242 23.7704 35.7218 23.707 35.6184 23.6789M35.8903 23.8722L35.6184 23.6789M35.6184 23.6789C35.4136 23.6233 35.1349 23.6971 35.0408 23.9836L35.6184 23.6789ZM38.2558 39.2929C38.2643 39.306 38.2725 39.3189 38.2805 39.3315C38.1345 39.5819 38.2242 39.8621 38.3859 40.0243C38.4791 40.1177 38.6081 40.1874 38.7536 40.1951C38.9057 40.2033 39.0546 40.1423 39.1711 40.0118L39.1715 40.0113C39.1963 39.9834 39.222 39.9544 39.248 39.925C39.2903 39.8772 39.3335 39.8284 39.3748 39.7819C39.3904 39.7661 39.4054 39.7495 39.42 39.7308C41.1285 37.8098 43.4775 35.0716 45.1474 32.1331C46.8139 29.2007 47.8349 26.0154 46.795 23.2296C46.4466 22.296 45.824 21.7869 45.0624 21.615C44.3152 21.4462 43.4598 21.6074 42.6352 21.9509C41.8075 22.2956 40.9904 22.8324 40.3094 23.4441C39.796 23.9053 39.3532 24.4152 39.0414 24.9255C39.0278 24.9138 39.0137 24.9032 38.9992 24.8938C38.9314 24.8497 38.8493 24.8269 38.7664 24.828C37.8685 23.6002 36.3871 22.532 34.8552 22.0762C33.276 21.6063 31.5983 21.7789 30.4755 23.1636C29.9915 23.7595 29.8074 24.4709 29.7971 25.2015C29.3592 28.0472 30.5949 30.6329 32.3528 32.9463C33.6299 34.627 35.203 36.1882 36.6399 37.6144C37.1746 38.1451 37.6904 38.657 38.1651 39.1494C38.1912 39.1925 38.2184 39.2347 38.2438 39.2742C38.2478 39.2805 38.2519 39.2867 38.2558 39.2929ZM36.8906 34.7838C36.9657 34.6606 37.0382 34.5363 37.1083 34.411C37.0305 34.7371 36.9572 35.0634 36.8893 35.3898L36.8892 35.3902C36.8872 35.4 36.8855 35.4097 36.8843 35.4193C36.7555 35.2603 36.6257 35.1019 36.4954 34.9439C36.6261 34.9732 36.7946 34.9414 36.8906 34.7838ZM42.6881 33.7076C42.7386 33.5668 42.7879 33.4255 42.8363 33.2837C42.8152 33.3806 42.7947 33.4776 42.775 33.5748C42.7461 33.6191 42.7171 33.6634 42.6881 33.7076ZM39.6835 26.1035C39.7195 26.0559 39.7597 26.0034 39.8046 25.9452C39.6834 26.2598 39.5633 26.5761 39.4446 26.8939C39.4788 26.733 39.5132 26.5726 39.5479 26.4129C39.6346 26.3261 39.6813 26.2171 39.6835 26.1035ZM33.0808 23.3345C33.0923 23.2487 33.0811 23.1712 33.0544 23.1036C33.1004 23.0976 33.1469 23.0925 33.194 23.0884C33.185 23.109 33.1777 23.1307 33.1723 23.1534C33.125 23.3501 33.076 23.5464 33.0256 23.7423C33.0385 23.6479 33.0511 23.5547 33.0634 23.4631C33.0692 23.4199 33.075 23.3771 33.0807 23.3347L33.0808 23.3345ZM31.6749 25.3987C31.6242 25.5685 31.5662 25.7378 31.5049 25.909C31.521 25.8421 31.5377 25.7763 31.556 25.711C31.6716 25.3026 31.7982 24.9002 31.9269 24.496C31.8496 24.7976 31.7651 25.0981 31.675 25.3985L31.6749 25.3987ZM32.2821 29.0574C32.2661 29.1359 32.2508 29.2145 32.2364 29.2931C32.2182 29.2621 32.2003 29.231 32.1827 29.1997C32.217 29.1534 32.2502 29.1059 32.2821 29.0574ZM35.2335 31.4479C35.0845 31.9368 34.9396 32.4258 34.8005 32.9142C34.7338 32.8341 34.6676 32.7544 34.6019 32.6742C34.8401 32.2837 35.049 31.8731 35.2335 31.4479ZM33.4149 29.1368C33.2741 29.6018 33.1348 30.0669 32.9971 30.5315C32.9552 30.4712 32.9139 30.411 32.8735 30.3503C33.0785 29.9617 33.2566 29.5549 33.4149 29.1368Z" fill="#FDD8A1" stroke="#A2783A" stroke-width="0.4"/>
<path d="M40.1477 31.6919C40.2387 31.5005 40.1316 31.327 40.0101 31.2554C39.9478 31.2187 39.8645 31.1961 39.7763 31.215C39.6809 31.2355 39.6048 31.2995 39.5624 31.3888L39.5623 31.3891C39.4725 31.579 39.4036 31.7732 39.3395 31.9586C39.3333 31.9765 39.3272 31.9943 39.3211 32.012C39.2629 32.1806 39.2076 32.341 39.1402 32.4975L39.1402 32.4975L39.1398 32.4986C39.0674 32.6696 39.1546 32.8287 39.2692 32.8985C39.3277 32.9341 39.4064 32.9559 39.4906 32.9374C39.5801 32.9178 39.6495 32.8583 39.6902 32.7804L39.6902 32.7804L39.6907 32.7794C39.7865 32.5934 39.8614 32.4024 39.9314 32.2202C39.9377 32.2037 39.944 32.1872 39.9503 32.1709C40.0142 32.0041 40.0749 31.8457 40.1477 31.6919ZM40.1477 31.6919C40.1476 31.6919 40.1476 31.692 40.1475 31.6921L39.967 31.6061L40.1478 31.6916C40.1477 31.6917 40.1477 31.6918 40.1477 31.6919Z" fill="#FDD8A1" stroke="#A2783A" stroke-width="0.4"/>
<path d="M42.3329 24.8731L42.3329 24.8732C41.7594 26.4707 41.2287 28.0808 40.699 29.6877C40.6021 29.9818 40.5052 30.2758 40.408 30.5695C39.7798 32.4699 39.1419 34.3631 38.423 36.231L38.4227 36.2319C38.386 36.3286 38.3939 36.4286 38.4402 36.5124C38.4837 36.591 38.5534 36.6428 38.6228 36.6708C38.7543 36.7238 38.9646 36.7134 39.0731 36.5255C40.0975 34.7571 40.7832 32.8436 41.3677 30.9036C41.6086 30.1042 41.831 29.3052 42.0525 28.5096C42.3718 27.3625 42.6891 26.2226 43.0568 25.0989C43.0922 24.9913 43.0806 24.8814 43.023 24.7908C42.9686 24.7054 42.8843 24.6545 42.802 24.6324C42.6401 24.5888 42.4146 24.646 42.3329 24.8731Z" fill="#FDD8A1" stroke="#A2783A" stroke-width="0.4"/>
<path d="M40.8659 32.7555C41.4715 31.0914 42.0627 29.43 42.5256 27.7222C42.557 27.6059 42.6307 27.5173 42.7298 27.4695C42.824 27.424 42.9271 27.422 43.0151 27.4465C43.1032 27.4709 43.1896 27.5256 43.2475 27.6111C43.3081 27.7007 43.3295 27.8132 43.3003 27.93M40.8659 32.7555L39.5083 37.9268L39.6869 38.0169C41.293 34.8328 42.4436 31.3752 43.3003 27.93M40.8659 32.7555C40.8052 32.9223 40.7444 33.0891 40.6835 33.2559C40.1378 34.7521 39.5898 36.2545 39.1272 37.7892L40.8659 32.7555ZM43.3003 27.93C43.3003 27.93 43.3003 27.9301 43.3003 27.9301L43.1063 27.8816L43.3004 27.9299C43.3004 27.9299 43.3003 27.93 43.3003 27.93Z" fill="#FDD8A1" stroke="#A2783A" stroke-width="0.4"/>
<path d="M46.8347 44.0965L46.8346 44.0965C46.507 44.266 46.2387 43.8013 46.5424 43.5998L46.5421 43.6L46.6531 43.7664L46.5428 43.5996L46.8347 44.0965ZM46.8347 44.0965C48.4829 43.2428 50.2758 42.1387 51.7341 40.7445C53.1928 39.3499 54.3274 37.6547 54.6353 35.6201M46.8347 44.0965L54.6353 35.6201M54.6353 35.6201C54.665 35.4245 54.5388 35.2669 54.4084 35.2019C54.3386 35.1671 54.2461 35.1469 54.1501 35.175C54.048 35.205 53.9736 35.2804 53.9325 35.3764M54.6353 35.6201L51.086 40.0835C52.4411 38.6755 53.1594 37.1775 53.9325 35.3764M53.9325 35.3764C53.9325 35.3763 53.9325 35.3763 53.9326 35.3762L54.1164 35.4551L53.9325 35.3764ZM46.6508 43.7412C46.6508 43.7413 46.6507 43.7413 46.6507 43.7413L46.661 43.7611C46.661 43.7611 46.661 43.7611 46.6611 43.7611L46.6508 43.7412ZM46.6508 43.7412C46.665 43.7339 46.6848 43.729 46.7067 43.7306L46.6508 43.7412Z" fill="#FDD8A1" stroke="#A2783A" stroke-width="0.4"/>
<path d="M30.1406 17.7894L30.1401 17.7897C26.9161 19.8697 25.2275 22.7379 24.041 26.3306C24.041 26.3307 24.0409 26.3308 24.0409 26.3308L23.851 26.2681C23.7964 26.4339 23.5179 26.4157 23.5326 26.2254L30.1406 17.7894ZM30.1406 17.7894C30.3102 17.6792 30.3235 17.4807 30.2739 17.352C30.2475 17.2837 30.1971 17.2131 30.117 17.1701C30.0314 17.1242 29.9325 17.1211 29.84 17.1581C28.1589 17.8285 26.6018 19.2016 25.4329 20.8426C24.2639 22.4838 23.4695 24.4121 23.3332 26.2102L30.1406 17.7894Z" fill="#FDD8A1" stroke="#A2783A" stroke-width="0.4"/>
<path d="M54.5292 33.0846C54.5412 33.2304 54.6403 33.3402 54.7642 33.3765C54.8925 33.414 55.0389 33.37 55.1241 33.2414L55.1241 33.2414L55.1251 33.2398C55.305 32.9625 55.4106 32.6415 55.4886 32.3292C55.5278 32.1724 55.5608 32.0141 55.5922 31.8623C55.5938 31.8549 55.5953 31.8474 55.5968 31.84C55.6268 31.695 55.6554 31.5566 55.6876 31.4249L55.6876 31.4249C55.7172 31.3037 55.6938 31.188 55.6308 31.0965C55.5706 31.0091 55.4814 30.9533 55.3905 30.9284C55.2999 30.9035 55.1936 30.9055 55.0967 30.9527C54.9945 31.0024 54.9192 31.0947 54.8886 31.216L55.0826 31.2648L54.8887 31.2155C54.8549 31.3484 54.8145 31.486 54.772 31.6304C54.7704 31.6359 54.7688 31.6413 54.7672 31.6468C54.7234 31.7959 54.6778 31.9516 54.6383 32.1088C54.5598 32.4218 54.5013 32.7555 54.5292 33.0846ZM54.5292 33.0846C54.5292 33.0845 54.5292 33.0843 54.5291 33.0842L54.7285 33.068L54.5292 33.085C54.5292 33.0849 54.5292 33.0847 54.5292 33.0846Z" fill="#FDD8A1" stroke="#A2783A" stroke-width="0.4"/>
<path d="M32.4399 16.3276C32.5674 16.1931 32.5885 16.0167 32.5215 15.8708C32.458 15.7325 32.3216 15.6337 32.1602 15.6162L32.1601 15.6162C31.8241 15.5799 31.5175 15.7162 31.2619 15.877C31.0923 15.9838 30.9219 16.1181 30.7732 16.2352C30.7039 16.2899 30.6392 16.3408 30.5817 16.3834L30.5816 16.3835C30.3602 16.5477 30.3503 16.8153 30.4508 16.9948C30.5015 17.0854 30.5856 17.1656 30.6985 17.2017C30.8157 17.2391 30.9423 17.2219 31.0578 17.1537L31.0579 17.1536C31.19 17.0754 31.3314 17.0074 31.4837 16.9342C31.5681 16.8936 31.6559 16.8514 31.7472 16.805C31.9903 16.6815 32.2451 16.5336 32.4399 16.3276ZM32.4399 16.3276C32.4399 16.3276 32.4398 16.3277 32.4398 16.3277L32.2947 16.1901M32.4399 16.3276C32.4399 16.3276 32.44 16.3275 32.44 16.3275L32.2947 16.1901M32.2947 16.1901C32.436 16.041 32.3254 15.8353 32.1386 15.815L32.2947 16.1901ZM30.7007 16.5441C30.446 16.7331 30.6692 17.1508 30.9561 16.9815L30.7007 16.5441Z" fill="#FDD8A1" stroke="#A2783A" stroke-width="0.4"/>
<path d="M47.9719 52.94L47.9722 52.9403L48.4847 52.6727L48.6817 52.6383C48.6817 52.6383 48.6817 52.6383 48.6817 52.6383C48.4793 51.4782 47.7569 50.3875 47.1428 49.4768C47.0877 49.3946 47.0079 49.3387 46.9151 49.3201C46.8251 49.302 46.7374 49.322 46.6675 49.3635C46.5249 49.4482 46.4394 49.636 46.5278 49.8279C46.6748 50.1477 46.8039 50.4825 46.9369 50.8272C47.0093 51.0148 47.0828 51.2055 47.161 51.3983C47.3789 51.9356 47.6277 52.4745 47.9719 52.94Z" fill="#FDD8A1" stroke="#A2783A" stroke-width="0.4"/>
<mask id="path-11-outside-1_167_186" maskUnits="userSpaceOnUse" x="10.7519" y="1.90747" width="57" height="55" fill="black">
<rect fill="white" x="10.7519" y="1.90747" width="57" height="55"/>
<path fill-rule="evenodd" clip-rule="evenodd" d="M55.981 8.9885C50.7884 4.77339 44.1025 2.81627 37.4818 2.91073C28.5925 3.03808 22.2957 7.85285 16.4859 14.0664C16.3683 14.193 16.3837 14.3414 16.4586 14.4512C8.32085 26.2051 11.005 42.123 22.4286 50.7779C34.2805 59.7567 52.0968 57.5847 61.259 45.9771C70.2399 34.5975 66.7483 17.7273 55.981 8.9885ZM13.0153 25.0184C12.8376 26.6613 12.839 28.3365 12.9859 30.0109C12.8956 30.0347 12.8047 30.0564 12.7144 30.0802C12.6612 30.0942 12.6297 30.127 12.6024 30.1634C12.5933 28.4519 12.7277 26.7292 13.0153 25.0184ZM18.04 45.8707C14.4077 41.4653 12.6794 36.0264 12.5982 30.4258C12.6353 30.4853 12.6892 30.5329 12.7753 30.5322C12.8613 30.5308 12.9446 30.521 13.0293 30.5147C13.13 31.4649 13.298 32.4102 13.4953 33.352C13.7472 34.9026 14.1278 36.4308 14.6232 37.9058C14.4504 37.5735 14.2783 37.2411 14.1061 36.9024C14.0082 36.71 13.6758 36.8457 13.7542 37.0508C14.0551 37.8351 14.3762 38.6377 14.7156 39.4417C14.5253 39.5789 14.6106 39.9182 14.8723 39.8356C14.8744 39.8349 14.8772 39.8343 14.88 39.8336C15.7722 41.8935 16.8421 43.9269 18.2457 45.6419C18.138 45.6734 18.0505 45.7651 18.04 45.8707ZM23.6979 50.8458C21.6792 49.5646 19.9642 48.0734 18.5186 46.4305C19.1749 47.0337 19.8411 47.6473 20.5212 48.2519C20.5471 48.3715 20.6528 48.4716 20.7766 48.48C21.9654 49.5247 23.2067 50.519 24.5313 51.3495C24.2514 51.1851 23.9722 51.02 23.6979 50.8458ZM60.1548 46.299C52.015 56.5918 37.2312 57.8758 26.1099 52.2144C26.3632 52.2718 26.5269 51.9541 26.2953 51.7813C26.1771 51.6924 26.0595 51.6049 25.9412 51.5161C26.8418 52.0339 27.7682 52.4964 28.7198 52.8973C28.752 53.0708 28.9416 53.1625 29.0802 53.045C38.2885 56.7528 49.5051 54.972 56.8675 48.3477C57.039 48.4828 57.2181 48.6045 57.4196 48.6885C57.5498 48.7417 57.7128 48.5793 57.6589 48.4485C57.5792 48.2547 57.4651 48.0776 57.335 47.9083C58.6504 46.6586 59.8483 45.2676 60.8601 43.6974C61.4647 42.7605 61.9559 41.7613 62.366 40.7264C62.5304 40.7628 62.6948 40.7887 62.8586 40.7803C62.9831 40.774 63.0447 40.6312 62.9586 40.5389C62.8453 40.4164 62.7123 40.3128 62.5717 40.2177C64.5036 34.9145 64.1971 28.6219 63.4757 23.2803C62.5759 16.6231 59.2214 11.8084 53.4774 8.39023C52.1549 7.60305 50.7408 6.92013 49.2693 6.34356C49.2203 6.20642 49.0523 6.13435 48.911 6.20502C38.0478 2.10886 24.1003 3.95752 18.732 15.3588C18.6333 15.5701 18.9216 15.7471 19.0476 15.5435C19.6438 14.5841 20.284 13.6997 20.9564 12.8775C21.2538 13.1273 21.5519 13.3778 21.8388 13.6374C22.2075 13.9712 22.563 14.3784 23.008 14.6114C23.1934 14.7087 23.3873 14.5149 23.29 14.3295C23.0584 13.8865 22.6484 13.5262 22.2845 13.1903C21.9801 12.9111 21.6583 12.669 21.3224 12.4451C23.4586 9.95761 25.937 8.11805 28.638 6.88024C29.1131 8.05857 29.5189 9.56787 30.4782 10.4152C30.5391 10.4684 30.635 10.418 30.6154 10.3347C30.3208 9.11304 29.7379 7.79688 29.1299 6.66963C31.9554 5.46122 35.0068 4.89304 38.1409 4.87835C38.0849 5.47171 38.0898 6.06715 38.0877 6.66402C38.0849 7.37563 38.038 8.11106 38.2563 8.79608C38.3011 8.93533 38.4943 8.93533 38.5397 8.79608C38.7294 8.19922 38.7119 7.57435 38.7091 6.9537C38.7063 6.26168 38.7196 5.56757 38.6538 4.87765C41.9103 4.92523 45.2487 5.57946 48.5115 6.74939C47.853 7.78078 47.3009 9.03678 46.9805 10.1703C46.9364 10.3257 47.1323 10.432 47.2457 10.325C48.1357 9.47621 48.5619 8.09915 49.0692 6.95161C50.1397 7.35675 51.2026 7.81366 52.2494 8.32935C54.1253 9.25298 55.7424 10.4236 57.125 11.7811C56.7584 12.0176 56.4526 12.3716 56.1335 12.6704C55.6444 13.1273 54.8852 13.6094 54.5732 14.214C54.5263 14.3043 54.5823 14.4533 54.7033 14.4393C55.3345 14.3686 55.9278 13.7214 56.3687 13.3156C56.7472 12.9671 57.2118 12.6012 57.4973 12.161C59.2711 14.0034 60.6215 16.1697 61.6054 18.5257C61.4675 18.2654 61.3241 18.0058 61.1736 17.7476C61.133 17.6776 61.0085 17.7252 61.0393 17.8036C61.4178 18.7594 61.7299 19.7446 62.0126 20.7403C60.8035 20.9705 59.5692 21.5233 58.4426 21.9816C58.2383 22.0656 58.3111 22.3783 58.5364 22.321C59.7098 22.0236 61.0792 21.8102 62.1197 21.1335C62.3646 22.0229 62.592 22.9171 62.8201 23.8023C62.8649 23.9772 63.0993 23.966 63.165 23.8288C63.5401 25.8713 63.6996 27.9768 63.6611 30.0815C63.0524 30.0186 62.4142 30.127 61.8097 30.1865C61.2303 30.2439 60.6705 30.3334 60.1317 30.5602C59.9435 30.6399 60.0366 30.9723 60.2367 30.9492C60.8413 30.8806 61.443 30.8016 62.0497 30.7519C62.5829 30.7078 63.142 30.7113 63.6556 30.5518C63.5534 33.7698 62.9992 36.9724 62.0567 39.928C61.718 39.7664 61.3598 39.6306 61.0407 39.4774C60.2766 39.1107 59.5048 38.7791 58.7274 38.4432C58.5154 38.3515 58.33 38.6391 58.5413 38.7623C59.269 39.1849 59.9764 39.6299 60.7272 40.0134C61.0743 40.1904 61.4563 40.4059 61.8503 40.5662C60.842 43.4777 59.2494 45.8826 57.2538 47.8202C56.9144 47.4101 56.4771 47.0554 56.1006 46.7104C55.487 46.1499 54.809 45.6629 54.1071 45.22C53.8167 45.0367 53.5782 45.4761 53.8441 45.6706C54.541 46.1807 55.177 46.758 55.8082 47.345C56.1265 47.6396 56.4288 47.9818 56.7668 48.2666C52.1563 52.4418 45.6041 54.2912 39.1198 54.1995C39.1898 53.0443 39.1156 51.8351 39.0505 50.6869C39.0351 50.4091 38.6398 50.4105 38.6209 50.6869C38.5418 51.8002 38.2899 53.117 38.7161 54.1939C35.4847 54.1078 32.2842 53.546 29.365 52.5538C29.5539 52.1941 29.7442 51.8365 29.9073 51.4622C30.092 51.0389 30.3124 50.5749 30.2641 50.104C30.2501 49.9718 30.092 49.8759 29.9842 49.9886C29.6995 50.2888 29.584 50.6771 29.43 51.0529C29.2488 51.4965 29.0648 51.9401 28.878 52.3802C28.3497 52.1906 27.827 51.9905 27.3197 51.7729C25.1848 50.8527 23.2459 49.5163 21.5337 47.8831C22.2957 47.1785 23.0976 46.4291 23.5846 45.5503C23.6776 45.3816 23.474 45.1283 23.297 45.2641C22.493 45.8791 21.7954 46.6929 21.1006 47.4619C18.902 45.2522 17.101 42.5436 15.7799 39.5838C15.7792 39.5789 15.7778 39.5739 15.7764 39.569C16.1472 39.4634 16.5188 39.357 16.8875 39.243C17.4312 39.073 17.9784 38.94 18.4185 38.5671C18.5263 38.4761 18.4367 38.2998 18.308 38.2998C17.7587 38.2984 17.25 38.5146 16.7322 38.6783C16.3628 38.7952 16.0066 38.94 15.6469 39.0758C14.8688 36.0991 14.3231 33.2394 14.0999 30.332C14.2734 30.2901 14.4476 30.2446 14.6225 30.1984C15.2803 30.0242 16.0101 29.9696 16.6314 29.6946C16.7525 29.64 16.6965 29.4784 16.5979 29.442C16.0654 29.2412 15.5014 29.3811 14.9619 29.5071C14.6582 29.5792 14.3546 29.6603 14.0509 29.7401C14.0054 28.997 13.9809 28.2497 13.9802 27.4954C14.5148 25.1457 15.0144 22.8744 15.677 20.6171L15.6847 20.6199C15.7232 20.6913 15.8177 20.7249 15.8939 20.6969C16.1703 20.7963 16.4474 20.8914 16.721 20.9943C17.2871 21.2091 17.842 21.4631 18.4549 21.4869C18.6613 21.4946 18.7453 21.1923 18.5606 21.0957C18.0274 20.8159 17.4382 20.6437 16.8763 20.431C16.6538 20.3471 16.4236 20.2652 16.1899 20.198C17.1667 18.2507 18.0064 16.2068 19.1477 14.3532C19.2358 14.2091 19.0224 14.0936 18.9272 14.2231C17.5894 16.0417 16.6154 17.9568 15.8492 20.0574C16.2508 18.7468 16.7077 17.4362 17.2745 16.1109C17.3501 15.936 17.1275 15.7968 17.0149 15.9598C15.7176 17.856 14.7688 20.17 14.1614 22.5673C14.0614 22.5344 13.9347 22.5624 13.9032 22.6806C13.7122 23.4104 13.5576 24.1521 13.4386 24.9015C13.8906 21.2287 15.1683 17.749 17.4508 14.885C17.6313 14.659 17.3109 14.3351 17.1303 14.5646C16.4376 15.4434 15.8436 16.374 15.3279 17.3404C15.7393 16.4076 16.1892 15.4917 16.6881 14.5967C16.7679 14.6065 16.8533 14.5849 16.9295 14.5086C22.7722 8.745 27.9753 4.42703 36.4399 3.62935C42.948 3.01709 49.4547 5.22331 54.7502 8.90174C66.805 17.2767 69.1679 34.9005 60.1548 46.299Z"/>
</mask>
<path fill-rule="evenodd" clip-rule="evenodd" d="M55.981 8.9885C50.7884 4.77339 44.1025 2.81627 37.4818 2.91073C28.5925 3.03808 22.2957 7.85285 16.4859 14.0664C16.3683 14.193 16.3837 14.3414 16.4586 14.4512C8.32085 26.2051 11.005 42.123 22.4286 50.7779C34.2805 59.7567 52.0968 57.5847 61.259 45.9771C70.2399 34.5975 66.7483 17.7273 55.981 8.9885ZM13.0153 25.0184C12.8376 26.6613 12.839 28.3365 12.9859 30.0109C12.8956 30.0347 12.8047 30.0564 12.7144 30.0802C12.6612 30.0942 12.6297 30.127 12.6024 30.1634C12.5933 28.4519 12.7277 26.7292 13.0153 25.0184ZM18.04 45.8707C14.4077 41.4653 12.6794 36.0264 12.5982 30.4258C12.6353 30.4853 12.6892 30.5329 12.7753 30.5322C12.8613 30.5308 12.9446 30.521 13.0293 30.5147C13.13 31.4649 13.298 32.4102 13.4953 33.352C13.7472 34.9026 14.1278 36.4308 14.6232 37.9058C14.4504 37.5735 14.2783 37.2411 14.1061 36.9024C14.0082 36.71 13.6758 36.8457 13.7542 37.0508C14.0551 37.8351 14.3762 38.6377 14.7156 39.4417C14.5253 39.5789 14.6106 39.9182 14.8723 39.8356C14.8744 39.8349 14.8772 39.8343 14.88 39.8336C15.7722 41.8935 16.8421 43.9269 18.2457 45.6419C18.138 45.6734 18.0505 45.7651 18.04 45.8707ZM23.6979 50.8458C21.6792 49.5646 19.9642 48.0734 18.5186 46.4305C19.1749 47.0337 19.8411 47.6473 20.5212 48.2519C20.5471 48.3715 20.6528 48.4716 20.7766 48.48C21.9654 49.5247 23.2067 50.519 24.5313 51.3495C24.2514 51.1851 23.9722 51.02 23.6979 50.8458ZM60.1548 46.299C52.015 56.5918 37.2312 57.8758 26.1099 52.2144C26.3632 52.2718 26.5269 51.9541 26.2953 51.7813C26.1771 51.6924 26.0595 51.6049 25.9412 51.5161C26.8418 52.0339 27.7682 52.4964 28.7198 52.8973C28.752 53.0708 28.9416 53.1625 29.0802 53.045C38.2885 56.7528 49.5051 54.972 56.8675 48.3477C57.039 48.4828 57.2181 48.6045 57.4196 48.6885C57.5498 48.7417 57.7128 48.5793 57.6589 48.4485C57.5792 48.2547 57.4651 48.0776 57.335 47.9083C58.6504 46.6586 59.8483 45.2676 60.8601 43.6974C61.4647 42.7605 61.9559 41.7613 62.366 40.7264C62.5304 40.7628 62.6948 40.7887 62.8586 40.7803C62.9831 40.774 63.0447 40.6312 62.9586 40.5389C62.8453 40.4164 62.7123 40.3128 62.5717 40.2177C64.5036 34.9145 64.1971 28.6219 63.4757 23.2803C62.5759 16.6231 59.2214 11.8084 53.4774 8.39023C52.1549 7.60305 50.7408 6.92013 49.2693 6.34356C49.2203 6.20642 49.0523 6.13435 48.911 6.20502C38.0478 2.10886 24.1003 3.95752 18.732 15.3588C18.6333 15.5701 18.9216 15.7471 19.0476 15.5435C19.6438 14.5841 20.284 13.6997 20.9564 12.8775C21.2538 13.1273 21.5519 13.3778 21.8388 13.6374C22.2075 13.9712 22.563 14.3784 23.008 14.6114C23.1934 14.7087 23.3873 14.5149 23.29 14.3295C23.0584 13.8865 22.6484 13.5262 22.2845 13.1903C21.9801 12.9111 21.6583 12.669 21.3224 12.4451C23.4586 9.95761 25.937 8.11805 28.638 6.88024C29.1131 8.05857 29.5189 9.56787 30.4782 10.4152C30.5391 10.4684 30.635 10.418 30.6154 10.3347C30.3208 9.11304 29.7379 7.79688 29.1299 6.66963C31.9554 5.46122 35.0068 4.89304 38.1409 4.87835C38.0849 5.47171 38.0898 6.06715 38.0877 6.66402C38.0849 7.37563 38.038 8.11106 38.2563 8.79608C38.3011 8.93533 38.4943 8.93533 38.5397 8.79608C38.7294 8.19922 38.7119 7.57435 38.7091 6.9537C38.7063 6.26168 38.7196 5.56757 38.6538 4.87765C41.9103 4.92523 45.2487 5.57946 48.5115 6.74939C47.853 7.78078 47.3009 9.03678 46.9805 10.1703C46.9364 10.3257 47.1323 10.432 47.2457 10.325C48.1357 9.47621 48.5619 8.09915 49.0692 6.95161C50.1397 7.35675 51.2026 7.81366 52.2494 8.32935C54.1253 9.25298 55.7424 10.4236 57.125 11.7811C56.7584 12.0176 56.4526 12.3716 56.1335 12.6704C55.6444 13.1273 54.8852 13.6094 54.5732 14.214C54.5263 14.3043 54.5823 14.4533 54.7033 14.4393C55.3345 14.3686 55.9278 13.7214 56.3687 13.3156C56.7472 12.9671 57.2118 12.6012 57.4973 12.161C59.2711 14.0034 60.6215 16.1697 61.6054 18.5257C61.4675 18.2654 61.3241 18.0058 61.1736 17.7476C61.133 17.6776 61.0085 17.7252 61.0393 17.8036C61.4178 18.7594 61.7299 19.7446 62.0126 20.7403C60.8035 20.9705 59.5692 21.5233 58.4426 21.9816C58.2383 22.0656 58.3111 22.3783 58.5364 22.321C59.7098 22.0236 61.0792 21.8102 62.1197 21.1335C62.3646 22.0229 62.592 22.9171 62.8201 23.8023C62.8649 23.9772 63.0993 23.966 63.165 23.8288C63.5401 25.8713 63.6996 27.9768 63.6611 30.0815C63.0524 30.0186 62.4142 30.127 61.8097 30.1865C61.2303 30.2439 60.6705 30.3334 60.1317 30.5602C59.9435 30.6399 60.0366 30.9723 60.2367 30.9492C60.8413 30.8806 61.443 30.8016 62.0497 30.7519C62.5829 30.7078 63.142 30.7113 63.6556 30.5518C63.5534 33.7698 62.9992 36.9724 62.0567 39.928C61.718 39.7664 61.3598 39.6306 61.0407 39.4774C60.2766 39.1107 59.5048 38.7791 58.7274 38.4432C58.5154 38.3515 58.33 38.6391 58.5413 38.7623C59.269 39.1849 59.9764 39.6299 60.7272 40.0134C61.0743 40.1904 61.4563 40.4059 61.8503 40.5662C60.842 43.4777 59.2494 45.8826 57.2538 47.8202C56.9144 47.4101 56.4771 47.0554 56.1006 46.7104C55.487 46.1499 54.809 45.6629 54.1071 45.22C53.8167 45.0367 53.5782 45.4761 53.8441 45.6706C54.541 46.1807 55.177 46.758 55.8082 47.345C56.1265 47.6396 56.4288 47.9818 56.7668 48.2666C52.1563 52.4418 45.6041 54.2912 39.1198 54.1995C39.1898 53.0443 39.1156 51.8351 39.0505 50.6869C39.0351 50.4091 38.6398 50.4105 38.6209 50.6869C38.5418 51.8002 38.2899 53.117 38.7161 54.1939C35.4847 54.1078 32.2842 53.546 29.365 52.5538C29.5539 52.1941 29.7442 51.8365 29.9073 51.4622C30.092 51.0389 30.3124 50.5749 30.2641 50.104C30.2501 49.9718 30.092 49.8759 29.9842 49.9886C29.6995 50.2888 29.584 50.6771 29.43 51.0529C29.2488 51.4965 29.0648 51.9401 28.878 52.3802C28.3497 52.1906 27.827 51.9905 27.3197 51.7729C25.1848 50.8527 23.2459 49.5163 21.5337 47.8831C22.2957 47.1785 23.0976 46.4291 23.5846 45.5503C23.6776 45.3816 23.474 45.1283 23.297 45.2641C22.493 45.8791 21.7954 46.6929 21.1006 47.4619C18.902 45.2522 17.101 42.5436 15.7799 39.5838C15.7792 39.5789 15.7778 39.5739 15.7764 39.569C16.1472 39.4634 16.5188 39.357 16.8875 39.243C17.4312 39.073 17.9784 38.94 18.4185 38.5671C18.5263 38.4761 18.4367 38.2998 18.308 38.2998C17.7587 38.2984 17.25 38.5146 16.7322 38.6783C16.3628 38.7952 16.0066 38.94 15.6469 39.0758C14.8688 36.0991 14.3231 33.2394 14.0999 30.332C14.2734 30.2901 14.4476 30.2446 14.6225 30.1984C15.2803 30.0242 16.0101 29.9696 16.6314 29.6946C16.7525 29.64 16.6965 29.4784 16.5979 29.442C16.0654 29.2412 15.5014 29.3811 14.9619 29.5071C14.6582 29.5792 14.3546 29.6603 14.0509 29.7401C14.0054 28.997 13.9809 28.2497 13.9802 27.4954C14.5148 25.1457 15.0144 22.8744 15.677 20.6171L15.6847 20.6199C15.7232 20.6913 15.8177 20.7249 15.8939 20.6969C16.1703 20.7963 16.4474 20.8914 16.721 20.9943C17.2871 21.2091 17.842 21.4631 18.4549 21.4869C18.6613 21.4946 18.7453 21.1923 18.5606 21.0957C18.0274 20.8159 17.4382 20.6437 16.8763 20.431C16.6538 20.3471 16.4236 20.2652 16.1899 20.198C17.1667 18.2507 18.0064 16.2068 19.1477 14.3532C19.2358 14.2091 19.0224 14.0936 18.9272 14.2231C17.5894 16.0417 16.6154 17.9568 15.8492 20.0574C16.2508 18.7468 16.7077 17.4362 17.2745 16.1109C17.3501 15.936 17.1275 15.7968 17.0149 15.9598C15.7176 17.856 14.7688 20.17 14.1614 22.5673C14.0614 22.5344 13.9347 22.5624 13.9032 22.6806C13.7122 23.4104 13.5576 24.1521 13.4386 24.9015C13.8906 21.2287 15.1683 17.749 17.4508 14.885C17.6313 14.659 17.3109 14.3351 17.1303 14.5646C16.4376 15.4434 15.8436 16.374 15.3279 17.3404C15.7393 16.4076 16.1892 15.4917 16.6881 14.5967C16.7679 14.6065 16.8533 14.5849 16.9295 14.5086C22.7722 8.745 27.9753 4.42703 36.4399 3.62935C42.948 3.01709 49.4547 5.22331 54.7502 8.90174C66.805 17.2767 69.1679 34.9005 60.1548 46.299Z" fill="#FDD8A1"/>
<path fill-rule="evenodd" clip-rule="evenodd" d="M55.981 8.9885C50.7884 4.77339 44.1025 2.81627 37.4818 2.91073C28.5925 3.03808 22.2957 7.85285 16.4859 14.0664C16.3683 14.193 16.3837 14.3414 16.4586 14.4512C8.32085 26.2051 11.005 42.123 22.4286 50.7779C34.2805 59.7567 52.0968 57.5847 61.259 45.9771C70.2399 34.5975 66.7483 17.7273 55.981 8.9885ZM13.0153 25.0184C12.8376 26.6613 12.839 28.3365 12.9859 30.0109C12.8956 30.0347 12.8047 30.0564 12.7144 30.0802C12.6612 30.0942 12.6297 30.127 12.6024 30.1634C12.5933 28.4519 12.7277 26.7292 13.0153 25.0184ZM18.04 45.8707C14.4077 41.4653 12.6794 36.0264 12.5982 30.4258C12.6353 30.4853 12.6892 30.5329 12.7753 30.5322C12.8613 30.5308 12.9446 30.521 13.0293 30.5147C13.13 31.4649 13.298 32.4102 13.4953 33.352C13.7472 34.9026 14.1278 36.4308 14.6232 37.9058C14.4504 37.5735 14.2783 37.2411 14.1061 36.9024C14.0082 36.71 13.6758 36.8457 13.7542 37.0508C14.0551 37.8351 14.3762 38.6377 14.7156 39.4417C14.5253 39.5789 14.6106 39.9182 14.8723 39.8356C14.8744 39.8349 14.8772 39.8343 14.88 39.8336C15.7722 41.8935 16.8421 43.9269 18.2457 45.6419C18.138 45.6734 18.0505 45.7651 18.04 45.8707ZM23.6979 50.8458C21.6792 49.5646 19.9642 48.0734 18.5186 46.4305C19.1749 47.0337 19.8411 47.6473 20.5212 48.2519C20.5471 48.3715 20.6528 48.4716 20.7766 48.48C21.9654 49.5247 23.2067 50.519 24.5313 51.3495C24.2514 51.1851 23.9722 51.02 23.6979 50.8458ZM60.1548 46.299C52.015 56.5918 37.2312 57.8758 26.1099 52.2144C26.3632 52.2718 26.5269 51.9541 26.2953 51.7813C26.1771 51.6924 26.0595 51.6049 25.9412 51.5161C26.8418 52.0339 27.7682 52.4964 28.7198 52.8973C28.752 53.0708 28.9416 53.1625 29.0802 53.045C38.2885 56.7528 49.5051 54.972 56.8675 48.3477C57.039 48.4828 57.2181 48.6045 57.4196 48.6885C57.5498 48.7417 57.7128 48.5793 57.6589 48.4485C57.5792 48.2547 57.4651 48.0776 57.335 47.9083C58.6504 46.6586 59.8483 45.2676 60.8601 43.6974C61.4647 42.7605 61.9559 41.7613 62.366 40.7264C62.5304 40.7628 62.6948 40.7887 62.8586 40.7803C62.9831 40.774 63.0447 40.6312 62.9586 40.5389C62.8453 40.4164 62.7123 40.3128 62.5717 40.2177C64.5036 34.9145 64.1971 28.6219 63.4757 23.2803C62.5759 16.6231 59.2214 11.8084 53.4774 8.39023C52.1549 7.60305 50.7408 6.92013 49.2693 6.34356C49.2203 6.20642 49.0523 6.13435 48.911 6.20502C38.0478 2.10886 24.1003 3.95752 18.732 15.3588C18.6333 15.5701 18.9216 15.7471 19.0476 15.5435C19.6438 14.5841 20.284 13.6997 20.9564 12.8775C21.2538 13.1273 21.5519 13.3778 21.8388 13.6374C22.2075 13.9712 22.563 14.3784 23.008 14.6114C23.1934 14.7087 23.3873 14.5149 23.29 14.3295C23.0584 13.8865 22.6484 13.5262 22.2845 13.1903C21.9801 12.9111 21.6583 12.669 21.3224 12.4451C23.4586 9.95761 25.937 8.11805 28.638 6.88024C29.1131 8.05857 29.5189 9.56787 30.4782 10.4152C30.5391 10.4684 30.635 10.418 30.6154 10.3347C30.3208 9.11304 29.7379 7.79688 29.1299 6.66963C31.9554 5.46122 35.0068 4.89304 38.1409 4.87835C38.0849 5.47171 38.0898 6.06715 38.0877 6.66402C38.0849 7.37563 38.038 8.11106 38.2563 8.79608C38.3011 8.93533 38.4943 8.93533 38.5397 8.79608C38.7294 8.19922 38.7119 7.57435 38.7091 6.9537C38.7063 6.26168 38.7196 5.56757 38.6538 4.87765C41.9103 4.92523 45.2487 5.57946 48.5115 6.74939C47.853 7.78078 47.3009 9.03678 46.9805 10.1703C46.9364 10.3257 47.1323 10.432 47.2457 10.325C48.1357 9.47621 48.5619 8.09915 49.0692 6.95161C50.1397 7.35675 51.2026 7.81366 52.2494 8.32935C54.1253 9.25298 55.7424 10.4236 57.125 11.7811C56.7584 12.0176 56.4526 12.3716 56.1335 12.6704C55.6444 13.1273 54.8852 13.6094 54.5732 14.214C54.5263 14.3043 54.5823 14.4533 54.7033 14.4393C55.3345 14.3686 55.9278 13.7214 56.3687 13.3156C56.7472 12.9671 57.2118 12.6012 57.4973 12.161C59.2711 14.0034 60.6215 16.1697 61.6054 18.5257C61.4675 18.2654 61.3241 18.0058 61.1736 17.7476C61.133 17.6776 61.0085 17.7252 61.0393 17.8036C61.4178 18.7594 61.7299 19.7446 62.0126 20.7403C60.8035 20.9705 59.5692 21.5233 58.4426 21.9816C58.2383 22.0656 58.3111 22.3783 58.5364 22.321C59.7098 22.0236 61.0792 21.8102 62.1197 21.1335C62.3646 22.0229 62.592 22.9171 62.8201 23.8023C62.8649 23.9772 63.0993 23.966 63.165 23.8288C63.5401 25.8713 63.6996 27.9768 63.6611 30.0815C63.0524 30.0186 62.4142 30.127 61.8097 30.1865C61.2303 30.2439 60.6705 30.3334 60.1317 30.5602C59.9435 30.6399 60.0366 30.9723 60.2367 30.9492C60.8413 30.8806 61.443 30.8016 62.0497 30.7519C62.5829 30.7078 63.142 30.7113 63.6556 30.5518C63.5534 33.7698 62.9992 36.9724 62.0567 39.928C61.718 39.7664 61.3598 39.6306 61.0407 39.4774C60.2766 39.1107 59.5048 38.7791 58.7274 38.4432C58.5154 38.3515 58.33 38.6391 58.5413 38.7623C59.269 39.1849 59.9764 39.6299 60.7272 40.0134C61.0743 40.1904 61.4563 40.4059 61.8503 40.5662C60.842 43.4777 59.2494 45.8826 57.2538 47.8202C56.9144 47.4101 56.4771 47.0554 56.1006 46.7104C55.487 46.1499 54.809 45.6629 54.1071 45.22C53.8167 45.0367 53.5782 45.4761 53.8441 45.6706C54.541 46.1807 55.177 46.758 55.8082 47.345C56.1265 47.6396 56.4288 47.9818 56.7668 48.2666C52.1563 52.4418 45.6041 54.2912 39.1198 54.1995C39.1898 53.0443 39.1156 51.8351 39.0505 50.6869C39.0351 50.4091 38.6398 50.4105 38.6209 50.6869C38.5418 51.8002 38.2899 53.117 38.7161 54.1939C35.4847 54.1078 32.2842 53.546 29.365 52.5538C29.5539 52.1941 29.7442 51.8365 29.9073 51.4622C30.092 51.0389 30.3124 50.5749 30.2641 50.104C30.2501 49.9718 30.092 49.8759 29.9842 49.9886C29.6995 50.2888 29.584 50.6771 29.43 51.0529C29.2488 51.4965 29.0648 51.9401 28.878 52.3802C28.3497 52.1906 27.827 51.9905 27.3197 51.7729C25.1848 50.8527 23.2459 49.5163 21.5337 47.8831C22.2957 47.1785 23.0976 46.4291 23.5846 45.5503C23.6776 45.3816 23.474 45.1283 23.297 45.2641C22.493 45.8791 21.7954 46.6929 21.1006 47.4619C18.902 45.2522 17.101 42.5436 15.7799 39.5838C15.7792 39.5789 15.7778 39.5739 15.7764 39.569C16.1472 39.4634 16.5188 39.357 16.8875 39.243C17.4312 39.073 17.9784 38.94 18.4185 38.5671C18.5263 38.4761 18.4367 38.2998 18.308 38.2998C17.7587 38.2984 17.25 38.5146 16.7322 38.6783C16.3628 38.7952 16.0066 38.94 15.6469 39.0758C14.8688 36.0991 14.3231 33.2394 14.0999 30.332C14.2734 30.2901 14.4476 30.2446 14.6225 30.1984C15.2803 30.0242 16.0101 29.9696 16.6314 29.6946C16.7525 29.64 16.6965 29.4784 16.5979 29.442C16.0654 29.2412 15.5014 29.3811 14.9619 29.5071C14.6582 29.5792 14.3546 29.6603 14.0509 29.7401C14.0054 28.997 13.9809 28.2497 13.9802 27.4954C14.5148 25.1457 15.0144 22.8744 15.677 20.6171L15.6847 20.6199C15.7232 20.6913 15.8177 20.7249 15.8939 20.6969C16.1703 20.7963 16.4474 20.8914 16.721 20.9943C17.2871 21.2091 17.842 21.4631 18.4549 21.4869C18.6613 21.4946 18.7453 21.1923 18.5606 21.0957C18.0274 20.8159 17.4382 20.6437 16.8763 20.431C16.6538 20.3471 16.4236 20.2652 16.1899 20.198C17.1667 18.2507 18.0064 16.2068 19.1477 14.3532C19.2358 14.2091 19.0224 14.0936 18.9272 14.2231C17.5894 16.0417 16.6154 17.9568 15.8492 20.0574C16.2508 18.7468 16.7077 17.4362 17.2745 16.1109C17.3501 15.936 17.1275 15.7968 17.0149 15.9598C15.7176 17.856 14.7688 20.17 14.1614 22.5673C14.0614 22.5344 13.9347 22.5624 13.9032 22.6806C13.7122 23.4104 13.5576 24.1521 13.4386 24.9015C13.8906 21.2287 15.1683 17.749 17.4508 14.885C17.6313 14.659 17.3109 14.3351 17.1303 14.5646C16.4376 15.4434 15.8436 16.374 15.3279 17.3404C15.7393 16.4076 16.1892 15.4917 16.6881 14.5967C16.7679 14.6065 16.8533 14.5849 16.9295 14.5086C22.7722 8.745 27.9753 4.42703 36.4399 3.62935C42.948 3.01709 49.4547 5.22331 54.7502 8.90174C66.805 17.2767 69.1679 34.9005 60.1548 46.299Z" stroke="#A2783A" stroke-width="0.8" mask="url(#path-11-outside-1_167_186)"/>
<path d="M20.7129 8.67939C20.8385 8.54922 20.8094 8.37665 20.7346 8.27684C20.696 8.22533 20.6377 8.17999 20.5631 8.16118C20.4843 8.14132 20.4012 8.15486 20.3294 8.20035L20.3292 8.20047C17.9263 9.72761 16.2429 12.2075 14.8598 14.5815L14.8597 14.5815C14.8195 14.6505 14.8082 14.732 14.8335 14.8093C14.8574 14.8821 14.908 14.9347 14.9623 14.9657C15.0706 15.0276 15.2418 15.0244 15.3415 14.8795L15.3416 14.8793C16.8178 12.728 18.565 10.912 20.3702 9.03573C20.4842 8.91722 20.5984 8.79848 20.7129 8.67939ZM20.7129 8.67939C20.7127 8.67953 20.7126 8.67966 20.7125 8.6798L20.5688 8.54069M20.7129 8.67939C20.7129 8.67935 20.7129 8.67931 20.713 8.67926L20.5688 8.54069M20.5688 8.54069C20.4535 8.66069 20.3383 8.7804 20.2233 8.89991C18.5181 10.6722 16.853 12.4028 15.4203 14.4174C15.348 14.5392 15.2763 14.661 15.2054 14.7828M20.5688 8.54069C20.6534 8.45323 20.5436 8.30139 20.4365 8.36927C18.2009 9.79005 16.5904 12.0576 15.2525 14.3083C15.1716 14.4222 15.0914 14.537 15.0119 14.6527M15.0119 14.6527C15.0119 14.6528 15.0119 14.6529 15.0118 14.6529L15.0388 14.6715C15.0367 14.675 15.0346 14.6786 15.0326 14.6821C14.978 14.7759 15.1165 14.8536 15.1767 14.7661L15.1769 14.7662L15.2054 14.7828C15.2054 14.7828 15.2054 14.7828 15.2054 14.7828M15.0119 14.6527L15.0389 14.6713C15.0511 14.6504 15.0633 14.6295 15.0755 14.6086C15.0479 14.6163 15.0254 14.6332 15.0119 14.6527ZM15.2054 14.7828C15.216 14.7645 15.2235 14.7365 15.2186 14.7053C15.2046 14.7255 15.1907 14.7458 15.1767 14.7661L15.2054 14.7828Z" fill="#FDD8A1" stroke="#A2783A" stroke-width="0.4"/>
<path d="M62.9059 45.7733L62.9061 45.773L62.407 45.4953L62.2379 45.3886C62.2379 45.3886 62.2378 45.3887 62.2378 45.3887C60.5669 48.0374 58.6621 50.3227 56.1127 52.1356C55.7476 52.3948 56.0704 52.9353 56.4702 52.7477C59.3835 51.3814 61.5053 48.5351 62.9059 45.7733Z" fill="#FDD8A1" stroke="#A2783A" stroke-width="0.4"/>
<path d="M8.55223 1.6566L8.55225 1.65667C9.76124 6.94437 8.42422 11.2941 6.99835 15.9328C6.74777 16.748 6.49445 17.5721 6.25172 18.4118C6.2687 18.4732 6.27626 18.5452 6.26075 18.6264M8.55223 1.6566L6.06428 18.589M8.55223 1.6566C8.52975 1.55843 8.48071 1.47373 8.4064 1.41316M8.55223 1.6566L8.4064 1.41316M6.26075 18.6264C6.26074 18.6265 6.26073 18.6265 6.26071 18.6266L6.06428 18.589M6.26075 18.6264C6.26077 18.6263 6.26078 18.6263 6.26079 18.6262L6.06428 18.589M6.26075 18.6264C5.69549 21.613 5.48286 24.7658 5.47986 27.9522M6.06428 18.589C5.48631 21.6426 5.2757 24.8655 5.27989 28.1157M5.47986 27.9522C5.41947 27.9351 5.36085 27.9251 5.30774 27.9176L5.27989 28.1157M5.47986 27.9522C5.58266 27.9815 5.69061 28.0315 5.7853 28.1255M5.47986 27.9522C5.47981 28.0066 5.47982 28.061 5.47989 28.1154L5.27989 28.1157M5.27989 28.1157L5.7853 28.1255M5.7853 28.1255C5.78524 28.1255 5.78518 28.1254 5.78512 28.1253L5.64445 28.2675L5.78538 28.1256C5.78535 28.1256 5.78533 28.1256 5.7853 28.1255ZM5.7853 28.1255C5.91951 28.2585 5.93793 28.4615 5.85075 28.6157C5.76336 28.7703 5.63142 28.8625 5.49019 28.9155C5.49225 28.9839 5.49495 29.0528 5.49775 29.1226L5.4986 29.1436C5.5001 29.181 5.50162 29.2188 5.50305 29.2568C5.5051 29.2563 5.50715 29.2559 5.50921 29.2554C5.56142 29.2437 5.6173 29.2312 5.68264 29.2188C5.82763 29.1914 5.99474 29.1716 6.16998 29.2089M5.7853 28.1255L6.39085 59.5447C7.76526 54.2542 7.23526 47.247 6.53406 41.9265C6.04613 38.2247 5.65545 34.2747 5.5356 30.3226C5.89272 30.268 6.28914 30.1082 6.44159 29.6941L6.44178 29.6936C6.48285 29.5811 6.45646 29.4687 6.41047 29.3889C6.36466 29.3094 6.28247 29.2325 6.16998 29.2089M6.16998 29.2089C6.17008 29.2089 6.17019 29.2089 6.17029 29.2089L6.12865 29.4046L6.16963 29.2088C6.16975 29.2088 6.16986 29.2089 6.16998 29.2089ZM5.81595 12.6175C6.51009 10.4446 6.64904 8.19987 6.79629 5.82114C6.80292 5.71398 6.80957 5.60655 6.81629 5.49884C6.81629 5.49882 6.81629 5.4988 6.81629 5.49877L5.81595 12.6175ZM5.81595 12.6175C5.68415 11.2309 5.62791 9.8329 5.57158 8.4325C5.56096 8.16837 5.55033 7.90415 5.53919 7.63991C5.45679 5.6851 5.34642 3.73147 4.99873 1.82764L4.9987 1.8275C4.98119 1.73203 4.93254 1.64802 4.85285 1.59286C4.77628 1.53986 4.6895 1.52617 4.61489 1.53259C4.47488 1.54464 4.32262 1.63334 4.25902 1.78687M5.81595 12.6175L3.62334 39.8103C3.81839 36.5883 4.01661 33.3139 4.09879 30.0448C3.89964 29.9248 3.7184 29.777 3.56157 29.6176L3.56152 29.6176C3.4629 29.5173 3.41535 29.3936 3.42268 29.2675C3.42974 29.1459 3.48663 29.0397 3.56401 28.9635C3.69868 28.831 3.92457 28.7671 4.12819 28.879C4.13024 28.8065 4.13217 28.7341 4.13361 28.6604C3.70158 28.3344 3.48724 27.866 3.40654 27.3578L3.40653 27.3577C3.35806 27.0514 3.56476 26.8323 3.78394 26.7685C3.89377 26.7365 4.02183 26.7377 4.13756 26.7956C4.1315 25.0686 4.08172 23.3507 3.96015 21.6505L3.96015 21.6505C3.84419 20.0248 3.26949 18.6439 2.68439 17.2381L2.66887 17.2008C2.08141 15.7892 1.48732 14.3496 1.40171 12.6543C1.35606 11.752 1.28332 10.849 1.20875 9.94311C1.20412 9.88683 1.19948 9.83054 1.19484 9.77424C1.12486 8.9252 1.05466 8.07351 1.00565 7.22216C0.90468 5.46804 0.893016 3.70659 1.15941 1.9464C1.01176 1.89412 0.934894 1.75257 0.934568 1.62189C0.934374 1.54385 0.959973 1.46033 1.01867 1.39302C1.08003 1.32267 1.16771 1.28157 1.26649 1.27752L1.26656 1.27752C1.63763 1.26242 1.94471 1.42657 2.18939 1.70074C2.42921 1.96947 2.61506 2.34901 2.76279 2.7914C3.05864 3.67736 3.22222 4.8804 3.31875 6.1434C3.41553 7.40979 3.4459 8.75267 3.46958 9.92373C3.47073 9.98082 3.47187 10.0375 3.473 10.0937C3.48174 10.5289 3.48993 10.9365 3.50064 11.3047C3.53106 11.0761 3.55907 10.8271 3.58502 10.5617C3.68167 9.57319 3.74856 8.37034 3.8077 7.17133C3.8213 6.89557 3.83449 6.61995 3.84754 6.34729C3.89112 5.43671 3.93314 4.55898 3.98355 3.81815C4.01631 3.33669 4.05282 2.90971 4.09605 2.56679C4.13831 2.23165 4.18938 1.95417 4.25902 1.78687M4.25902 1.78687C4.25905 1.7868 4.25908 1.78673 4.25911 1.78666L4.44373 1.86358L4.25889 1.78721C4.25893 1.7871 4.25898 1.78698 4.25902 1.78687ZM4.08757 29.0932C4.09876 29.1028 4.11006 29.1122 4.12146 29.1214C4.12205 29.098 4.12266 29.0747 4.12329 29.0516L4.08757 29.0932ZM4.08757 29.0932C3.82518 28.8679 3.45572 29.2247 3.70412 29.4773L4.1233 29.0514L4.08757 29.0932ZM4.32414 29.0244C4.28721 28.998 4.25169 28.9704 4.21774 28.9413L4.32414 29.0244ZM4.32414 29.0244C4.32484 28.9993 4.32556 28.9741 4.32628 28.949C4.33 28.8185 4.33372 28.688 4.33528 28.5572L4.32967 28.5544C3.89934 28.2668 3.68384 27.8288 3.60407 27.3264C3.55158 26.9948 3.97652 26.8228 4.13814 27.0525L4.32414 29.0244ZM4.8593 21.0686C4.9257 20.5637 5.00291 20.0603 5.09171 19.5585C5.08355 19.5305 5.07557 19.4884 5.08391 19.4377M4.8593 21.0686L1.90871 3.02102M4.8593 21.0686C4.75388 20.0638 4.58868 19.0701 4.33568 18.0998L4.33567 18.0998C4.10612 17.2199 3.78776 16.3898 3.47435 15.5727C3.35688 15.2664 3.2401 14.962 3.12896 14.6574C2.71854 13.5326 2.37609 12.386 2.31554 11.0704L2.31554 11.0704C2.27065 10.0962 2.20223 9.13242 2.13413 8.17327C2.01191 6.45173 1.89075 4.74523 1.90871 3.02102M4.8593 21.0686L1.90871 3.02102M5.08391 19.4377C5.30211 18.0756 5.76729 16.8119 6.24855 15.5737C6.29891 15.4441 6.34944 15.3148 6.39988 15.1858C6.83365 14.076 7.26162 12.981 7.53355 11.8258C8.11938 9.33485 8.21402 6.58288 7.95664 3.9581C7.9502 4.12251 7.94682 4.28552 7.94352 4.44434L7.94351 4.44481L7.9435 4.44566C7.93916 4.65472 7.93495 4.85806 7.92365 5.04124C7.90446 5.3573 7.88654 5.67438 7.86858 5.99209C7.80758 7.07132 7.74616 8.15794 7.63326 9.23706L7.63325 9.23715C7.61284 9.43142 7.59431 9.65455 7.57415 9.89749C7.51532 10.6061 7.44251 11.4833 7.26795 12.3046C7.03546 13.3984 6.60633 14.4844 5.70523 14.953L5.70499 14.9531C5.51872 15.0496 5.32056 15.0041 5.19679 14.8776C5.07541 14.7536 5.03139 14.5579 5.1194 14.3757L5.11958 14.3754C5.1293 14.3554 5.13834 14.3348 5.14783 14.3122C5.10336 14.2639 5.06732 14.2019 5.04496 14.1239L5.0449 14.1237C4.73103 13.024 4.56373 11.8806 4.47848 10.7208C4.42116 11.2226 4.3463 11.6959 4.2483 12.1026C4.16316 12.456 4.05812 12.77 3.92581 13.0115C3.80332 13.2351 3.64008 13.4281 3.41823 13.5044C3.32986 13.5656 3.21755 13.6062 3.09897 13.598C2.95295 13.5879 2.82266 13.5047 2.7475 13.3557M5.08391 19.4377C5.08394 19.4375 5.08398 19.4373 5.08401 19.4371L5.28129 19.4699L5.08381 19.4383C5.08384 19.4381 5.08388 19.4379 5.08391 19.4377ZM2.7475 13.3557C2.74747 13.3556 2.74745 13.3556 2.74743 13.3555L2.92601 13.2655L2.74756 13.3558C2.74754 13.3557 2.74752 13.3557 2.7475 13.3557ZM2.7475 13.3557C2.64383 13.1506 2.57495 12.8429 2.5245 12.4816C2.47317 12.1141 2.43818 11.6683 2.41247 11.173C2.37507 10.4521 2.35691 9.61528 2.33808 8.74764C2.33106 8.42416 2.32395 8.09639 2.31571 7.76874C2.28527 6.55827 2.23947 5.34693 2.12742 4.33659C2.07199 3.83681 2.00081 3.39081 1.90871 3.02102M8.4064 1.41316C8.33296 1.3533 8.24633 1.32636 8.16359 1.32323M8.4064 1.41316L8.16359 1.32323M8.16359 1.32323C8.03682 1.31843 7.90755 1.36862 7.81363 1.46063L8.16359 1.32323ZM5.50931 29.4603C5.44299 29.4747 5.37657 29.4881 5.30998 29.4969C5.30883 29.4299 5.30678 29.3628 5.30435 29.2958L5.50931 29.4603ZM3.59195 40.3291C3.31964 44.8212 3.14819 49.3432 3.47947 53.85C3.48964 53.9885 3.49932 54.1397 3.50963 54.3008C3.56224 55.1231 3.63143 56.2044 3.86832 57.1935C4.14938 58.367 4.68602 59.4964 5.79769 59.8743L5.7991 59.8748C5.93252 59.919 6.06687 59.8913 6.16926 59.8315C6.27097 59.7722 6.35786 59.6719 6.39081 59.5449L3.59195 40.3291ZM5.89022 53.329L5.89023 53.3291C5.8997 53.7436 5.93708 55.6195 5.8177 57.016C5.78789 57.3646 5.74868 57.6785 5.698 57.93C5.64558 58.1901 5.58649 58.3523 5.53371 58.4249C5.53313 58.4244 5.53253 58.4239 5.53193 58.4234C5.45459 58.3558 5.3348 58.1732 5.17904 57.7993L5.17903 57.7992C4.60999 56.4338 4.38821 54.8425 4.31088 53.2115C4.25746 52.085 4.27311 50.9526 4.28809 49.868C4.29484 49.3794 4.30146 48.9006 4.30157 48.4363C4.30279 44.8832 4.4678 41.3407 4.63305 37.7929C4.70569 36.2334 4.77838 34.673 4.83723 33.1101C4.96676 34.6809 5.12377 36.2504 5.27996 37.8118C5.29759 37.988 5.31521 38.1641 5.33278 38.3402C5.60502 41.0677 5.86503 43.7682 5.96378 46.4159L6.16364 46.4085L5.96378 46.4159C6.00653 47.561 5.97547 48.7073 5.93986 49.8603C5.93767 49.9312 5.93547 50.0021 5.93326 50.073C5.89962 51.154 5.86579 52.2411 5.89022 53.329Z" fill="#FDD8A1" stroke="#A2783A" stroke-width="0.4"/>
<path d="M75.7758 33.5966L75.7756 33.597C75.7218 33.6842 75.6598 33.7609 75.5929 33.8289C75.6616 35.1628 75.7408 36.4969 75.82 37.8317C76.1722 43.7671 76.5251 49.7139 75.9599 55.6962L75.9599 55.6962C75.8131 57.2472 74.9031 58.5576 73.8611 58.9644C73.3296 59.172 72.7598 59.1431 72.264 58.7798C71.7772 58.423 71.39 57.7644 71.1598 56.7707L71.3378 56.7294L71.1598 56.7706C70.287 53.0024 70.5984 49.1572 71.2811 45.3385C71.6122 43.4868 72.0315 41.6372 72.4469 39.8044L72.4859 39.6325C72.9 37.8052 73.3074 35.9951 73.6198 34.2082C73.5225 34.1826 73.4266 34.1521 73.335 34.1146C73.3349 34.1145 73.3348 34.1145 73.3346 34.1144L73.4104 33.9293L75.7758 33.5966ZM75.7758 33.5966C75.8796 33.4276 75.8565 33.2425 75.7607 33.1091C75.7078 33.0356 75.633 32.9774 75.5466 32.9432C75.5462 32.9366 75.5459 32.9301 75.5455 32.9235C75.5435 32.8851 75.5414 32.847 75.5394 32.809C75.5516 32.7883 75.5682 32.7557 75.577 32.715C75.6013 32.6047 75.57 32.5143 75.5236 32.4475C75.4511 30.8449 75.3979 29.2414 75.3842 27.6357C75.3514 23.7425 75.5253 19.8114 75.6983 15.902C75.7319 15.142 75.7655 14.3828 75.7975 13.6249L75.7975 13.6249M75.7758 33.5966L75.7975 13.6249M75.7975 13.6249C75.8729 11.8364 75.806 10.0375 75.7394 8.24871C75.7268 7.91065 75.7142 7.57295 75.7026 7.23575C75.6295 5.11008 75.595 3.00052 75.8342 0.916267L75.8342 0.915814C75.8493 0.78167 75.8024 0.664647 75.7198 0.58158C75.6418 0.503049 75.5394 0.461345 75.4424 0.448397C75.3054 0.430106 75.1205 0.469917 75.0132 0.609694M75.7975 13.6249L75.0132 0.609694M75.0132 0.609694C74.8856 0.541066 74.7248 0.524507 74.5628 0.600314C73.0031 1.32924 72.5718 2.95427 72.1863 4.40663C72.1737 4.45406 72.1612 4.50131 72.1487 4.54833C72.1487 4.54835 72.1487 4.54837 72.1487 4.54839L72.3419 4.59988C71.442 7.97393 70.6899 11.5589 69.9669 15.0045C69.9097 15.2775 69.8526 15.5496 69.7956 15.8206C69.4731 17.3565 69.1785 18.8287 69.0175 20.3037M75.0132 0.609694L68.8292 20.1879M69.0175 20.3037L68.9296 20.1241C68.8946 20.1412 68.8607 20.1627 68.8292 20.1879M69.0175 20.3037L68.8187 20.282C68.8221 20.2506 68.8256 20.2193 68.8292 20.1879M69.0175 20.3037C68.8804 20.3709 68.781 20.5381 68.8853 20.685M68.8292 20.1879C68.7646 20.2397 68.7101 20.3073 68.6766 20.3867C68.6237 20.5121 68.6259 20.6644 68.7215 20.7998M68.8853 20.685L68.7211 20.7992C68.7212 20.7994 68.7213 20.7996 68.7215 20.7998M68.8853 20.685C68.9009 20.7075 68.9157 20.73 68.9306 20.7526C68.943 20.7715 68.9555 20.7905 68.9686 20.8096L68.7215 20.7998M68.8853 20.685L68.7222 20.8008C68.7219 20.8004 68.7217 20.8001 68.7215 20.7998M70.0313 18.2266C70.0005 18.3947 69.9711 18.5613 69.9467 18.7311L69.9467 18.7313C69.94 18.7776 69.9333 18.8241 69.9267 18.8706C69.9208 18.8222 69.9147 18.7739 69.9083 18.7257C69.9083 18.7257 69.9083 18.7257 69.9083 18.7256C69.886 18.5576 69.8603 18.3912 69.8278 18.2274C69.7991 18.3852 69.7716 18.5434 69.7487 18.7027C69.6606 19.3143 69.5745 19.9517 69.5101 20.5976M70.0313 18.2266L69.5101 20.5976M70.0313 18.2266C70.0949 18.5588 70.1326 18.8987 70.1697 19.2332C70.1802 19.3276 70.1906 19.4216 70.2016 19.5149C70.1876 19.552 70.1724 19.5893 70.1561 19.6266L70.2184 19.6539C70.2193 19.6608 70.2202 19.6677 70.2211 19.6746M70.0313 18.2266L70.4197 19.6511L70.4195 19.6494M69.5101 20.5976L69.7091 20.6174C69.7119 20.5894 69.7148 20.5614 69.7176 20.5335C69.7081 20.5221 69.6986 20.5109 69.6892 20.4997C69.6804 20.4893 69.6717 20.479 69.6631 20.4687L69.5101 20.5976ZM70.6284 22.5208C70.6285 22.5207 70.6285 22.5205 70.6285 22.5204L70.4324 22.4812L70.6284 22.5211C70.6284 22.521 70.6284 22.5209 70.6284 22.5208ZM70.6284 22.5208C70.6026 22.6492 70.5076 22.7314 70.4158 22.7676C70.3245 22.8035 70.2027 22.8076 70.098 22.7391M70.6284 22.5208L69.6506 23.5404C69.8574 23.8056 70.0735 24.0707 70.3918 24.1766L70.3274 24.366C70.3276 24.3661 70.3278 24.3661 70.328 24.3662C70.4656 24.4127 70.5938 24.3598 70.671 24.2796C70.7462 24.2015 70.7925 24.0784 70.7564 23.9503L70.7564 23.9501C70.616 23.4538 70.2038 23.0354 69.8965 22.7236L69.8772 22.704L69.8767 22.7034C69.8013 22.6276 69.7104 22.583 69.6141 22.5723C69.6128 22.4454 69.6128 22.3183 69.6143 22.1912C69.6281 22.2143 69.6422 22.2374 69.6567 22.2603C69.766 22.4339 69.9033 22.6133 70.098 22.7391M70.098 22.7391C70.0982 22.7392 70.0984 22.7394 70.0986 22.7395L70.2071 22.5715L70.0971 22.7386C70.0974 22.7387 70.0977 22.7389 70.098 22.7391ZM73.539 30.1901C72.8591 29.3812 72.1446 28.6182 71.427 27.852L71.3844 27.8065L71.3844 27.8065C70.3428 26.695 69.8609 25.3433 69.6877 23.9024L73.539 30.1901ZM73.539 30.1901C74.042 30.7876 74.3309 31.336 74.5124 31.9377M73.539 30.1901C73.539 30.1901 73.5389 30.19 73.5389 30.19L74.5124 31.9377M74.5124 31.9377C74.5579 31.9511 74.6026 31.9725 74.6434 32.0039C74.4805 27.3343 74.4319 22.6774 74.5721 17.9426C74.5721 17.9426 74.5721 17.9425 74.5721 17.9425L74.7721 17.9484C74.8024 16.912 74.8571 15.8705 74.9119 14.8271C75.0342 12.4996 75.157 10.1625 75.0107 7.85077C75.0074 7.8002 75.0042 7.74967 75.001 7.69919C74.8662 5.58743 74.7367 3.55733 75.0333 1.47759L74.5124 31.9377ZM70.2211 19.6746L70.0225 19.6982C70.0225 19.6985 70.0225 19.6989 70.0226 19.6993C70.0226 19.6995 70.0226 19.6997 70.0227 19.6999L70.2211 19.6746ZM70.2211 19.6746C70.2274 19.7278 70.3099 19.7719 70.3393 19.7068C70.3464 19.6906 70.3533 19.6744 70.36 19.6582C70.3602 19.6578 70.3603 19.6574 70.3605 19.6569C70.3709 19.6317 70.3808 19.6066 70.3902 19.5815C70.4013 19.5945 70.4152 19.6171 70.4195 19.6494M70.4195 19.6494C70.4148 19.6128 70.4103 19.5759 70.4058 19.5386L70.4195 19.6494ZM70.5576 15.5665C70.4343 16.1025 70.3223 16.6417 70.2181 17.1846L70.5576 15.5665ZM70.5576 15.5665C70.6075 15.6645 70.6661 15.758 70.7359 15.8442C70.8412 15.9746 70.9973 15.9893 71.1124 15.9536C71.2217 15.9198 71.3305 15.8315 71.3689 15.6994C71.3689 15.6994 71.3689 15.6993 71.369 15.6993L71.1769 15.6435M70.5576 15.5665L71.2281 12.9962C71.1832 12.8757 71.1511 12.7514 71.1278 12.6261C71.0229 12.9815 70.9216 13.3377 70.8235 13.6948M71.1769 15.6435C71.3215 15.1465 71.1159 14.5511 70.935 14.0272C70.8953 13.9124 70.8568 13.801 70.8235 13.6948M71.1769 15.6435C71.144 15.7569 70.9753 15.8227 70.8914 15.7184C70.7787 15.5792 70.6973 15.4148 70.6349 15.2371L71.1769 15.6435ZM70.8235 13.6948L71.0164 13.7478C71.0216 13.7287 71.0269 13.7096 71.0321 13.6905C71.026 13.6716 71.02 13.6531 71.0143 13.6349L70.8235 13.6948ZM73.2271 10.6072C73.2271 10.6072 73.2271 10.6073 73.2271 10.6073L73.0388 10.5398L73.2271 10.6072ZM73.2271 10.6072C73.4046 10.1123 73.2929 9.56127 73.1166 9.05892C73.0272 8.80408 72.9175 8.55186 72.8102 8.31435C72.7816 8.25116 72.7534 8.18931 72.7258 8.12875C72.6565 7.97691 72.5909 7.83313 72.5331 7.69639M73.2271 10.6072L72.5331 7.69639M72.5331 7.69639C72.5387 7.65282 72.5442 7.60912 72.5498 7.56532C72.5799 7.32988 72.6103 7.0913 72.6426 6.85117C72.763 7.05324 72.9236 7.23069 73.142 7.35591C73.2998 7.44686 73.4715 7.41884 73.5893 7.3213C73.7011 7.22881 73.7625 7.07647 73.7338 6.91921L73.7337 6.91864C73.6996 6.73503 73.6319 6.56365 73.563 6.40757C73.5379 6.35085 73.5134 6.29761 73.4897 6.24617C73.445 6.1489 73.4031 6.05802 73.366 5.96209L73.3658 5.96168C73.2284 5.60883 73.1274 5.2378 73.0256 4.8593L73.0254 4.85863C73.0182 4.83236 73.0079 4.81 72.9968 4.79131C73.3257 3.33964 73.8476 2.13304 74.8165 1.58568C74.5414 3.63879 74.6694 5.6433 74.8008 7.7031L72.5331 7.69639ZM74.7286 34.269C74.7178 34.2709 74.7071 34.2727 74.6963 34.2744C74.4728 36.8827 73.8559 39.4457 73.2428 41.9929C73.1335 42.4469 73.0244 42.9004 72.9176 43.3536C72.1974 46.4099 71.5828 49.4579 71.7335 52.5939L71.7339 52.6026H71.7337C71.7391 53.8842 71.8871 55.1505 72.1802 56.401C72.7659 56.65 73.259 56.7971 73.6625 56.8492C74.0879 56.9042 74.3942 56.8512 74.6061 56.7228C74.8126 56.5976 74.9601 56.3821 75.0318 56.0422C75.1044 55.6978 75.0957 55.2371 74.9928 54.6512L74.9887 54.6277L74.9902 54.6039C75.0901 53.0262 75.1675 51.4553 75.1682 49.8787L74.7286 34.269ZM74.7286 34.269C74.8131 36.3032 74.9112 38.3424 75.0399 40.3974L75.2 40.3874L75.0399 40.3975C75.1963 42.8956 75.1851 45.4145 75.174 47.9315C75.1711 48.5808 75.1682 49.23 75.1682 49.8787L74.7286 34.269ZM75.5977 13.6165C75.6727 11.8366 75.6061 10.0469 75.5396 8.25806C75.4478 5.79214 75.3561 3.32788 75.6355 0.893461C75.6638 0.642164 75.2955 0.562976 75.1693 0.737376L75.5977 13.6165ZM73.3859 32.2633C73.4957 32.6307 73.6742 32.9875 73.9961 33.1771L73.3859 32.2633Z" fill="#FDD8A1" stroke="#A2783A" stroke-width="0.4"/>
<path d="M77.2516 51.8413C77.2468 51.7203 77.1978 51.6151 77.1146 51.5418C77.0342 51.4709 76.9333 51.4395 76.8378 51.44C76.6445 51.441 76.4387 51.5772 76.4186 51.8337C76.1851 54.7895 75.5271 57.6063 74.3921 60.3415L74.3918 60.3423C74.3607 60.4181 74.3658 60.5002 74.4037 60.569C74.4384 60.6319 74.493 60.6711 74.5438 60.6917C74.6364 60.7294 74.8057 60.7298 74.892 60.5754C76.403 57.8778 77.3823 54.9874 77.2516 51.8413ZM77.2516 51.8413C77.2516 51.8413 77.2516 51.8414 77.2516 51.8415L77.0518 51.8494L77.2516 51.8411C77.2516 51.8412 77.2516 51.8412 77.2516 51.8413Z" fill="#FDD8A1" stroke="#A2783A" stroke-width="0.4"/>
<path d="M2.26084 55.2218L2.26074 55.2215C1.67511 53.9744 1.57747 52.6269 1.48275 51.3196C1.47124 51.1608 1.45978 51.0026 1.4475 50.8453L1.64689 50.8298L1.44751 50.8456C1.43784 50.7235 1.47698 50.6106 1.5627 50.531C1.64353 50.4559 1.747 50.4277 1.8393 50.4289C2.01968 50.4314 2.23425 50.5534 2.26522 50.8046L2.26526 50.8049C2.39961 51.9078 2.59302 53.0005 2.7875 54.0993C2.83899 54.3902 2.89055 54.6816 2.94112 54.9736L2.26084 55.2218ZM2.26084 55.2218C2.3037 55.3127 2.37748 55.3817 2.47394 55.4095M2.26084 55.2218L2.47394 55.4095M2.47394 55.4095C2.5653 55.4358 2.65416 55.4186 2.72316 55.3853M2.47394 55.4095L2.72316 55.3853M2.72316 55.3853C2.85412 55.3221 2.97458 55.1668 2.94113 54.9737L2.72316 55.3853Z" fill="#FDD8A1" stroke="#A2783A" stroke-width="0.4"/>
<path d="M1.52848 53.4349C1.50763 53.1908 1.31113 53.0591 1.12558 53.0572C1.03363 53.0563 0.935922 53.0862 0.858091 53.1553C0.777456 53.2268 0.731328 53.3288 0.727023 53.4448L0.727023 53.4448L2.1479 56.1783L2.34464 56.1423C2.26315 55.6963 2.09963 55.2807 1.94441 54.8862C1.9269 54.8417 1.9095 54.7975 1.89233 54.7535C1.7202 54.3126 1.5688 53.8913 1.52848 53.4349ZM1.52848 53.4349C1.52849 53.4351 1.5285 53.4352 1.52851 53.4353L1.32922 53.4522L1.52845 53.4346C1.52846 53.4347 1.52847 53.4348 1.52848 53.4349ZM0.926885 53.4522L0.926881 53.4522L0.926885 53.4522Z" fill="#FDD8A1" stroke="#A2783A" stroke-width="0.4"/>
<path d="M9.64243 1.07278C9.56468 0.842641 9.33926 0.783724 9.17665 0.827724C9.09456 0.849937 9.01133 0.900772 8.9571 0.984763C8.89965 1.07373 8.88621 1.18262 8.91995 1.29037L9.11081 1.23061L8.91988 1.29015C9.24405 2.32962 9.41463 3.36609 9.59102 4.43786L9.91129 5.14134L9.71401 5.17422C9.71405 5.17442 9.71408 5.17462 9.71411 5.17483C9.7442 5.35327 9.9066 5.41415 10.0084 5.41532C10.1133 5.41653 10.2808 5.35516 10.3067 5.16896M9.64243 1.07278C9.64244 1.07281 9.64245 1.07283 9.64246 1.07286L9.45297 1.13685L9.64241 1.07269C9.64242 1.07272 9.64243 1.07275 9.64243 1.07278ZM9.64243 1.07278C10.0718 2.34075 10.5029 3.76178 10.3067 5.16896M10.3067 5.16896C10.3067 5.16893 10.3067 5.16889 10.3067 5.16885L10.1086 5.14134L10.3067 5.16896Z" fill="#FDD8A1" stroke="#A2783A" stroke-width="0.4"/>
<path d="M71.0408 4.86126L71.0406 4.86154C70.9456 5.0309 70.7666 5.07527 70.6214 5.03057C70.4857 4.98878 70.3632 4.86494 70.3524 4.69175M71.0408 4.86126L72.6316 0.911715C72.8282 0.689204 72.5175 0.370836 72.3034 0.583551L72.1626 0.441515C72.1626 0.441546 72.1625 0.441577 72.1625 0.441609C71.659 0.94081 71.1846 1.63615 70.8473 2.38488C70.5107 3.1321 70.3031 3.94943 70.3524 4.69175M71.0408 4.86126C71.1999 4.57648 71.304 4.26246 71.3926 3.95804C71.4192 3.86678 71.4441 3.7772 71.4687 3.68915C71.528 3.47636 71.5849 3.27254 71.6554 3.07576C71.9246 2.32888 72.2688 1.62647 72.7816 1.04401L71.0408 4.86126ZM70.3524 4.69175C70.3524 4.69157 70.3524 4.69139 70.3524 4.69121L70.552 4.67901L70.3524 4.69229C70.3524 4.69211 70.3524 4.69193 70.3524 4.69175Z" fill="#FDD8A1" stroke="#A2783A" stroke-width="0.4"/>
</svg>
