<svg width="78" height="63" fill="none" xmlns="http://www.w3.org/2000/svg"><path d="M52.603 43.576c6.126-6.562 7.261-17.798.472-24.404-3.34-3.251-8.031-5.232-12.767-5.646-4.688-.409-9.46.717-13.027 3.718a.666.666 0 0 0-.183.054c-4.198 1.91-6.182 6.137-6.611 10.628-.43 4.49.682 9.342 2.784 12.65 5.232 8.231 17.427 10.938 25.738 5.93 1.243-.581 2.421-1.288 3.48-2.148v-.001a.576.576 0 0 0 .114-.78Zm-29.387-9.203c-.795-4.196-.026-8.877 1.793-12.99a.59.59 0 0 0 .462-.2c7.226-8.066 18.423-7.907 26.569-.924 3.493 2.994 4.647 7.43 4.13 11.86-.516 4.434-2.704 8.807-5.816 11.606-.334.3-.683.577-1.04.844-5.941 2.621-11.788 3.055-18.127.098-4.694-2.19-7.155-5.99-7.97-10.294Z" fill="#FDD8A1" stroke="#A2783A" stroke-width=".8"/><path d="m38.75 26.029.029-.05-.1.07m.072-.02 7.857-1.73c-1.207-3.232-5.76-.78-7.321 1.612a.563.563 0 0 0-.314-.25m-.222.368a.214.214 0 0 0-.073.02m.073-.02-8.12-1.74c2.108-2.6 6.322-.71 8.047 1.76m0 0-.172-.361a.622.622 0 0 1 .367-.052m0 0 .062.083.038-.058m-.1-.025c-.928-1.232-2.418-2.292-3.96-2.752-1.627-.483-3.401-.316-4.593 1.154-.516.636-.71 1.39-.723 2.147m9.276-.549a.611.611 0 0 1 .1.025m0 0a7.296 7.296 0 0 1 1.203-1.366 8.635 8.635 0 0 1 2.382-1.529c.845-.352 1.745-.527 2.548-.346.832.188 1.506.747 1.876 1.74m0 0c1.073 2.873.012 6.128-1.66 9.072-1.68 2.956-4.04 5.706-5.749 7.627m7.41-16.7-7.717 16.444m7.716-16.443-16.985 2.058m9.576 14.641a.868.868 0 0 0 .011-.014l-.318-.242m.307.256-.008.01-.299-.266m.307.256a.8.8 0 0 1-.052.06m-.255-.316a.409.409 0 0 1-.037.042m.292.273.007-.007-.299-.266m.292.273-.123.14-.077.086v.001a.716.716 0 0 1-.578.25.768.768 0 0 1-.499-.23c-.187-.188-.308-.51-.192-.82m1.47.573a.807.807 0 0 1-.01.01l-.283-.283m0 0-1.177-.3m0 0 .024.038.012.018c.033.052.06.096.085.139l.327-.184.022-.012-.253-.252-.217.254Zm0 0a.745.745 0 0 1 .048-.1l-.063.06-.031-.033m.046.074a4.97 4.97 0 0 1-.046-.074m0 0a4.147 4.147 0 0 1-.025-.041l.223-.132m-.198.173c-.465-.48-.97-.983-1.497-1.506-1.44-1.429-3.03-3.006-4.315-4.699-1.768-2.326-3.04-4.963-2.597-7.882m8.607 13.914.038-.038-.002.001m-.036.037a.128.128 0 0 1 .005-.006l.015-.017h.001a.71.71 0 0 1 .014-.015l.001.001m-.036.037.036-.037m-8.643-13.877v.029l.4.004m-.4-.033.005-.028.395.061m0 0c-.745 4.782 3.363 8.86 6.774 12.245.543.539 1.069 1.06 1.554 1.564l-.074.044h-.002l-.009-.009m-.41-13.094.053-.134a6.489 6.489 0 0 0-.43-.574m.377.708.207-.294a.614.614 0 0 0-.584-.415m.377.71-.173-.05.173.05Zm-.377-.71a.597.597 0 0 0-.585.427l-.031.096m.616-.522a6.11 6.11 0 0 0-.463-.495m-.153 1.017-2.42-2.814a4.921 4.921 0 0 0-.459-.07.54.54 0 0 1 .12.418m2.759 2.466c.025-.164.05-.326.073-.487l.08-.53m-.153 1.017-.679-1.677a5.851 5.851 0 0 1 .832.66m0 0 .013-.083a.678.678 0 0 0-.49-.756.655.655 0 0 0-.38.003.62.62 0 0 0-.075-.166.668.668 0 0 0-.387-.277.706.706 0 0 0-.566.09m0 0a5.114 5.114 0 0 0-.208-.072m.208.072c.31.113.604.255.883.422a.594.594 0 0 0-.192.205m-.69-.627a.62.62 0 0 0-.112.095m-.097-.167a.648.648 0 0 0-.54-.232.667.667 0 0 0-.224.051m.764.181a.637.637 0 0 1 .097.167m-.097-.167a4.805 4.805 0 0 0-.764-.18m0 0-.054-.009m.054.008a.63.63 0 0 0-.06.03m.006-.038a.63.63 0 0 1-.006.038m.006-.038a4.17 4.17 0 0 0-.382-.036h-.017l-.001.006-.03.155a.255.255 0 0 0 .105-.14l.002-.006-.002.006c-.089.37-.183.737-.282 1.103l-.085.479c.14-.392.275-.78.4-1.169a.618.618 0 0 1 .271-.352l.015-.008m5.012 14.744a25.757 25.757 0 0 0-1.533-2.16.543.543 0 0 0 .18-.22h.001c.744-1.632 1.284-3.345 1.793-5.047l.211-.708c.437-1.468.868-2.917 1.409-4.32a.624.624 0 0 0-.22-.746c.23-.258.468-.512.71-.77.49-.52 1.342-1.14 2.159-1.29.396-.072.762-.03 1.083.161.324.194.653.57.913 1.265.207.551.193 1.207.059 1.909-.067.346-.16.693-.263 1.03a.664.664 0 0 0-.949-.019.636.636 0 0 0-.076-.151.68.68 0 0 0-.383-.272.678.678 0 0 0-.47.039.642.642 0 0 0-.344.42l-4.28 10.879Zm0 0c.486-.563.97-1.146 1.442-1.745.41-1.456.882-2.892 1.351-4.32l.073-.222c.502-1.529.998-3.049 1.414-4.592l-4.28 10.879Zm-3.29-13.894-1.628-.368c-.12.379-.254.762-.392 1.15l.096-.54.12-.666.08-.415.002-.011m1.723.85-.052-.016.052.016Zm-.802-.532c.038.097.05.203.035.309l-.178-.059a.678.678 0 0 1 .143-.25Zm3.216 15.422Z" fill="#FDD8A1" stroke="#A2783A" stroke-width=".8"/><path d="m39.867 33.873.002-.002a5.758 5.758 0 0 0 .268-.628c.064-.168.122-.319.191-.465a.536.536 0 0 0-.216-.695.508.508 0 0 0-.73.22c-.096.201-.167.405-.231.59l-.019.053a6.74 6.74 0 0 1-.175.472l-.001.003a.52.52 0 0 0 .577.712.497.497 0 0 0 .334-.26Zm-.261-1.44v.002-.001Z" fill="#FDD8A1" stroke="#A2783A" stroke-width=".8"/><path d="M43.247 26.161a.557.557 0 0 0-.393-.722.585.585 0 0 0-.71.366c-.574 1.6-1.105 3.214-1.635 4.82l-.29.882c-.629 1.9-1.266 3.79-1.983 5.652v.002a.53.53 0 0 0 .03.448c.069.126.178.205.282.247.193.078.525.07.698-.23m4-11.465-.38-.124.38.124Zm0 0c-.366 1.122-.68 2.252-.998 3.394-.222.796-.445 1.597-.689 2.406-.586 1.946-1.277 3.877-2.313 5.665m0 0v-.001l-.346-.2m.346.2-.346-.2m0 0 .005-.008.078.03.204-.538c1.246-2.328 1.96-4.892 2.67-7.444.216-.774.431-1.548.66-2.313.126-.36.252-.718.38-1.076M38.9 37.426c-.087.151-.355.048-.29-.123l.014-.037.057-.15a.257.257 0 0 0-.127.109m4.343-11.149-.038-.014.008-.025c.07-.216-.252-.306-.34-.112a.23.23 0 0 0-.006.016l-.036.1a.24.24 0 0 1-.002-.114.172.172 0 0 1 .004-.015l-.005.015c-.119.362-.233.73-.344 1.1-.43 1.237-.84 2.48-1.249 3.723-.661 2.006-1.323 4.012-2.067 5.993-.087.162-.176.323-.268.482m4.343-11.149-.038-.014-.038.114a.218.218 0 0 0 .077-.1Zm-4.343 11.149Zm.43.22-.078-.03.081-.142a.266.266 0 0 1-.003.172Z" fill="#FDD8A1" stroke="#A2783A" stroke-width=".8"/><path d="M42.333 28.67c-.46 1.699-1.05 3.353-1.655 5.017l2.817-4.709a.591.591 0 0 0-.426-.724.586.586 0 0 0-.736.416Zm-2.777 10.69a.488.488 0 0 0 .31-.253l-.93-.375c-.093.306.114.53.288.604a.51.51 0 0 0 .332.025Zm.146-.397ZM54.833 36.65a.608.608 0 0 0-.335-.627.555.555 0 0 0-.404-.04.542.542 0 0 0-.345.314c-.772 1.798-1.479 3.268-2.807 4.648-1.289 1.337-2.86 2.387-4.446 3.446l-.064.042c-.513.34-.06 1.128.494.841 1.657-.858 3.468-1.972 4.946-3.385 1.479-1.413 2.644-3.146 2.961-5.238Zm0 0-.395-.06.395.06ZM30.25 18.957h-.002c-3.172 2.048-4.84 4.87-6.017 8.436l-.38-.125c-.055.166-.333.148-.318-.043l6.717-8.268Zm0 0c.27-.175.284-.486.21-.677a.524.524 0 0 0-.695-.308l.485.985ZM54.33 34.101a.53.53 0 0 0 .378.468.52.52 0 0 0 .583-.217l.002-.003c.198-.305.31-.651.39-.971.04-.162.074-.324.105-.475l.004-.021c.03-.146.059-.282.09-.41a.602.602 0 0 0-.087-.489.63.63 0 0 0-.786-.21.592.592 0 0 0-.314.394l.388.098M54.33 34.1c-.03-.362.034-.72.114-1.04.04-.163.088-.322.131-.47l.005-.016c.043-.145.082-.28.115-.409l.388.099M54.33 34.1l.398-.033-.398.034Zm.753-1.836c-.035.136-.077.277-.119.42-.098.335-.2.684-.232 1.025l.761-1.333c.065-.266-.343-.379-.41-.112Z" fill="#FDD8A1" stroke="#A2783A" stroke-width=".8"/><path d="m32.295 17.19.29.275a.607.607 0 0 0 .118-.678.649.649 0 0 0-.521-.37c-.404-.043-.758.121-1.027.29-.178.113-.367.262-.519.381a8.058 8.058 0 0 1-.173.135.668.668 0 0 0 .175 1.17.637.637 0 0 0 .521-.067c.126-.075.255-.136.4-.206.086-.041.178-.085.279-.137.247-.125.528-.286.747-.518l-.29-.275Zm0 0c.141-.149.03-.355-.156-.375l.156.375ZM47.812 54.06v-.001c-.36-.486-.617-1.044-.836-1.586-.081-.2-.156-.393-.23-.582-.13-.34-.255-.665-.4-.98a.558.558 0 0 1 .608-.787c.15.03.273.119.355.241.61.904 1.359 2.03 1.57 3.239l-1.067.456Zm0 0a.6.6 0 0 0 .714.205m-.714-.205.714.205m0 0a.594.594 0 0 0 .353-.661l-.353.661Zm-1.88-3.453h-.001Z" fill="#FDD8A1" stroke="#A2783A" stroke-width=".8"/><mask id="a" maskUnits="userSpaceOnUse" x="10.752" y="2.908" width="57" height="56" fill="#000"><path fill="#fff" d="M10.752 2.908h57v56h-57z"/><path fill-rule="evenodd" clip-rule="evenodd" d="M55.981 9.989c-5.193-4.216-11.879-6.173-18.5-6.078-8.889.127-15.185 4.942-20.995 11.155a.295.295 0 0 0-.027.385c-8.138 11.754-5.454 27.672 5.97 36.327 11.852 8.979 29.668 6.807 38.83-4.8 8.98-11.38 5.49-28.25-5.278-36.99Zm-42.966 16.03a25.627 25.627 0 0 0-.03 4.992c-.09.024-.18.045-.27.07a.2.2 0 0 0-.113.082c-.009-1.711.126-3.434.413-5.145ZM18.04 46.87c-3.632-4.406-5.36-9.845-5.442-15.445.037.06.091.107.177.106.086-.001.17-.01.254-.017.101.95.269 1.895.466 2.837a28.87 28.87 0 0 0 1.128 4.554c-.173-.332-.345-.665-.517-1.003-.098-.193-.43-.057-.352.148.301.784.622 1.587.962 2.39-.19.138-.105.477.156.395l.008-.002c.892 2.06 1.962 4.093 3.366 5.808-.108.031-.195.123-.206.229Zm5.658 4.975a23.971 23.971 0 0 1-5.18-4.415c.657.603 1.323 1.216 2.003 1.821.026.12.132.22.256.228 1.188 1.045 2.43 2.039 3.754 2.87-.28-.165-.559-.33-.833-.504Zm36.457-4.547c-8.14 10.293-22.924 11.577-34.045 5.916a.239.239 0 0 0 .185-.434l-.354-.265c.9.518 1.827.98 2.779 1.381.032.174.222.266.36.148 9.209 3.708 20.425 1.927 27.788-4.697.171.135.35.257.552.34.13.054.293-.109.239-.24a2.374 2.374 0 0 0-.324-.54c1.315-1.25 2.513-2.64 3.525-4.21a17.014 17.014 0 0 0 1.506-2.971c.164.036.329.062.493.053a.143.143 0 0 0 .1-.241 2.2 2.2 0 0 0-.387-.321c1.932-5.303 1.625-11.596.904-16.938-.9-6.657-4.255-11.472-9.999-14.89a28.714 28.714 0 0 0-4.208-2.046.259.259 0 0 0-.358-.139C38.048 3.11 24.101 4.958 18.732 16.36c-.099.211.19.388.316.184a25.283 25.283 0 0 1 1.908-2.665c.298.25.596.5.883.76.369.333.724.74 1.169.973a.208.208 0 0 0 .282-.282c-.232-.442-.642-.803-1.005-1.139a7.854 7.854 0 0 0-.963-.745c2.137-2.487 4.615-4.327 7.316-5.565.475 1.179.88 2.688 1.84 3.535.061.054.157.003.137-.08-.294-1.222-.877-2.538-1.485-3.665 2.825-1.209 5.877-1.777 9.01-1.792-.055.594-.05 1.19-.052 1.786-.003.712-.05 1.447.168 2.132.045.14.238.14.284 0 .19-.597.172-1.222.17-1.842-.004-.692.01-1.386-.056-2.076 3.256.047 6.595.702 9.857 1.871a13.43 13.43 0 0 0-1.53 3.421c-.045.156.151.262.265.155.89-.849 1.316-2.226 1.823-3.373 1.07.405 2.134.862 3.18 1.377a18.725 18.725 0 0 1 4.876 3.452c-.367.237-.672.59-.992.89-.489.456-1.248.939-1.56 1.543-.047.09.01.24.13.225.631-.07 1.225-.717 1.666-1.123.378-.349.843-.715 1.128-1.155 1.774 1.843 3.124 4.009 4.108 6.365-.137-.26-.28-.52-.431-.778-.041-.07-.166-.023-.135.056.379.956.69 1.94.974 2.936-1.21.23-2.444.783-3.57 1.242-.205.084-.132.396.093.339 1.174-.297 2.543-.51 3.584-1.187.245.889.472 1.783.7 2.668.045.175.28.164.345.027a31.51 31.51 0 0 1 .496 6.253c-.609-.063-1.247.045-1.851.105-.58.057-1.14.146-1.678.373-.188.08-.095.412.105.39.604-.07 1.206-.148 1.813-.198.533-.044 1.092-.04 1.606-.2a34.723 34.723 0 0 1-1.6 9.376c-.338-.162-.696-.297-1.015-.45-.764-.367-1.536-.699-2.314-1.035-.212-.091-.397.196-.186.32.728.422 1.435.867 2.186 1.25.347.178.73.393 1.123.553-1.008 2.912-2.6 5.317-4.596 7.254-.34-.41-.777-.765-1.153-1.11a14.076 14.076 0 0 0-1.994-1.49c-.29-.183-.529.256-.263.45.697.51 1.333 1.088 1.964 1.675.319.295.62.637.959.922-4.61 4.175-11.163 6.024-17.647 5.933.07-1.156-.004-2.365-.07-3.513-.015-.278-.41-.276-.43 0-.078 1.113-.33 2.43.096 3.507-3.231-.086-6.432-.648-9.351-1.64.189-.36.38-.717.542-1.092.185-.423.405-.887.357-1.358-.014-.132-.172-.228-.28-.115-.285.3-.4.688-.554 1.064-.181.444-.365.887-.552 1.327-.528-.19-1.051-.39-1.558-.607-2.135-.92-4.074-2.257-5.786-3.89.762-.704 1.564-1.454 2.05-2.333.094-.168-.11-.422-.287-.286-.804.615-1.502 1.429-2.196 2.198-2.199-2.21-4-4.918-5.321-7.878 0-.005-.002-.01-.004-.015.371-.105.743-.212 1.111-.326.544-.17 1.091-.303 1.532-.676.107-.09.018-.267-.111-.267-.55-.002-1.058.215-1.576.378-.37.117-.725.262-1.085.398-.778-2.977-1.324-5.837-1.547-8.744.173-.042.348-.087.523-.134.657-.174 1.387-.228 2.008-.503.122-.055.066-.216-.033-.253-.533-.2-1.097-.06-1.636.065-.304.072-.607.153-.911.233a37.26 37.26 0 0 1-.07-2.244c.534-2.35 1.033-4.621 1.696-6.879l.008.003a.176.176 0 0 0 .209.077c.276.1.553.195.827.297.566.215 1.12.47 1.734.493.206.008.29-.295.106-.391-.534-.28-1.123-.452-1.685-.665a8.981 8.981 0 0 0-.686-.233c.977-1.947 1.816-3.991 2.958-5.845.088-.144-.126-.26-.22-.13-1.339 1.819-2.313 3.734-3.079 5.834.402-1.31.859-2.62 1.425-3.946.076-.175-.146-.314-.26-.151-1.296 1.896-2.245 4.21-2.853 6.607-.1-.032-.226-.005-.258.114-.19.73-.345 1.471-.464 2.22.452-3.672 1.73-7.152 4.012-10.016.18-.226-.14-.55-.32-.32a18.653 18.653 0 0 0-1.803 2.775c.411-.932.861-1.848 1.36-2.743.08.01.165-.012.242-.088 5.842-5.764 11.045-10.082 19.51-10.88 6.508-.612 13.015 1.594 18.31 5.273 12.055 8.375 14.418 25.999 5.405 37.397Z"/></mask><path fill-rule="evenodd" clip-rule="evenodd" d="M55.981 9.989c-5.193-4.216-11.879-6.173-18.5-6.078-8.889.127-15.185 4.942-20.995 11.155a.295.295 0 0 0-.027.385c-8.138 11.754-5.454 27.672 5.97 36.327 11.852 8.979 29.668 6.807 38.83-4.8 8.98-11.38 5.49-28.25-5.278-36.99Zm-42.966 16.03a25.627 25.627 0 0 0-.03 4.992c-.09.024-.18.045-.27.07a.2.2 0 0 0-.113.082c-.009-1.711.126-3.434.413-5.145ZM18.04 46.87c-3.632-4.406-5.36-9.845-5.442-15.445.037.06.091.107.177.106.086-.001.17-.01.254-.017.101.95.269 1.895.466 2.837a28.87 28.87 0 0 0 1.128 4.554c-.173-.332-.345-.665-.517-1.003-.098-.193-.43-.057-.352.148.301.784.622 1.587.962 2.39-.19.138-.105.477.156.395l.008-.002c.892 2.06 1.962 4.093 3.366 5.808-.108.031-.195.123-.206.229Zm5.658 4.975a23.971 23.971 0 0 1-5.18-4.415c.657.603 1.323 1.216 2.003 1.821.026.12.132.22.256.228 1.188 1.045 2.43 2.039 3.754 2.87-.28-.165-.559-.33-.833-.504Zm36.457-4.547c-8.14 10.293-22.924 11.577-34.045 5.916a.239.239 0 0 0 .185-.434l-.354-.265c.9.518 1.827.98 2.779 1.381.032.174.222.266.36.148 9.209 3.708 20.425 1.927 27.788-4.697.171.135.35.257.552.34.13.054.293-.109.239-.24a2.374 2.374 0 0 0-.324-.54c1.315-1.25 2.513-2.64 3.525-4.21a17.014 17.014 0 0 0 1.506-2.971c.164.036.329.062.493.053a.143.143 0 0 0 .1-.241 2.2 2.2 0 0 0-.387-.321c1.932-5.303 1.625-11.596.904-16.938-.9-6.657-4.255-11.472-9.999-14.89a28.714 28.714 0 0 0-4.208-2.046.259.259 0 0 0-.358-.139C38.048 3.11 24.101 4.958 18.732 16.36c-.099.211.19.388.316.184a25.283 25.283 0 0 1 1.908-2.665c.298.25.596.5.883.76.369.333.724.74 1.169.973a.208.208 0 0 0 .282-.282c-.232-.442-.642-.803-1.005-1.139a7.854 7.854 0 0 0-.963-.745c2.137-2.487 4.615-4.327 7.316-5.565.475 1.179.88 2.688 1.84 3.535.061.054.157.003.137-.08-.294-1.222-.877-2.538-1.485-3.665 2.825-1.209 5.877-1.777 9.01-1.792-.055.594-.05 1.19-.052 1.786-.003.712-.05 1.447.168 2.132.045.14.238.14.284 0 .19-.597.172-1.222.17-1.842-.004-.692.01-1.386-.056-2.076 3.256.047 6.595.702 9.857 1.871a13.43 13.43 0 0 0-1.53 3.421c-.045.156.151.262.265.155.89-.849 1.316-2.226 1.823-3.373 1.07.405 2.134.862 3.18 1.377a18.725 18.725 0 0 1 4.876 3.452c-.367.237-.672.59-.992.89-.489.456-1.248.939-1.56 1.543-.047.09.01.24.13.225.631-.07 1.225-.717 1.666-1.123.378-.349.843-.715 1.128-1.155 1.774 1.843 3.124 4.009 4.108 6.365-.137-.26-.28-.52-.431-.778-.041-.07-.166-.023-.135.056.379.956.69 1.94.974 2.936-1.21.23-2.444.783-3.57 1.242-.205.084-.132.396.093.339 1.174-.297 2.543-.51 3.584-1.187.245.889.472 1.783.7 2.668.045.175.28.164.345.027a31.51 31.51 0 0 1 .496 6.253c-.609-.063-1.247.045-1.851.105-.58.057-1.14.146-1.678.373-.188.08-.095.412.105.39.604-.07 1.206-.148 1.813-.198.533-.044 1.092-.04 1.606-.2a34.723 34.723 0 0 1-1.6 9.376c-.338-.162-.696-.297-1.015-.45-.764-.367-1.536-.699-2.314-1.035-.212-.091-.397.196-.186.32.728.422 1.435.867 2.186 1.25.347.178.73.393 1.123.553-1.008 2.912-2.6 5.317-4.596 7.254-.34-.41-.777-.765-1.153-1.11a14.076 14.076 0 0 0-1.994-1.49c-.29-.183-.529.256-.263.45.697.51 1.333 1.088 1.964 1.675.319.295.62.637.959.922-4.61 4.175-11.163 6.024-17.647 5.933.07-1.156-.004-2.365-.07-3.513-.015-.278-.41-.276-.43 0-.078 1.113-.33 2.43.096 3.507-3.231-.086-6.432-.648-9.351-1.64.189-.36.38-.717.542-1.092.185-.423.405-.887.357-1.358-.014-.132-.172-.228-.28-.115-.285.3-.4.688-.554 1.064-.181.444-.365.887-.552 1.327-.528-.19-1.051-.39-1.558-.607-2.135-.92-4.074-2.257-5.786-3.89.762-.704 1.564-1.454 2.05-2.333.094-.168-.11-.422-.287-.286-.804.615-1.502 1.429-2.196 2.198-2.199-2.21-4-4.918-5.321-7.878 0-.005-.002-.01-.004-.015.371-.105.743-.212 1.111-.326.544-.17 1.091-.303 1.532-.676.107-.09.018-.267-.111-.267-.55-.002-1.058.215-1.576.378-.37.117-.725.262-1.085.398-.778-2.977-1.324-5.837-1.547-8.744.173-.042.348-.087.523-.134.657-.174 1.387-.228 2.008-.503.122-.055.066-.216-.033-.253-.533-.2-1.097-.06-1.636.065-.304.072-.607.153-.911.233a37.26 37.26 0 0 1-.07-2.244c.534-2.35 1.033-4.621 1.696-6.879l.008.003a.176.176 0 0 0 .209.077c.276.1.553.195.827.297.566.215 1.12.47 1.734.493.206.008.29-.295.106-.391-.534-.28-1.123-.452-1.685-.665a8.981 8.981 0 0 0-.686-.233c.977-1.947 1.816-3.991 2.958-5.845.088-.144-.126-.26-.22-.13-1.339 1.819-2.313 3.734-3.079 5.834.402-1.31.859-2.62 1.425-3.946.076-.175-.146-.314-.26-.151-1.296 1.896-2.245 4.21-2.853 6.607-.1-.032-.226-.005-.258.114-.19.73-.345 1.471-.464 2.22.452-3.672 1.73-7.152 4.012-10.016.18-.226-.14-.55-.32-.32a18.653 18.653 0 0 0-1.803 2.775c.411-.932.861-1.848 1.36-2.743.08.01.165-.012.242-.088 5.842-5.764 11.045-10.082 19.51-10.88 6.508-.612 13.015 1.594 18.31 5.273 12.055 8.375 14.418 25.999 5.405 37.397Z" fill="#FDD8A1"/><path clip-rule="evenodd" d="M55.981 9.989c-5.193-4.216-11.879-6.173-18.5-6.078-8.889.127-15.185 4.942-20.995 11.155a.295.295 0 0 0-.027.385c-8.138 11.754-5.454 27.672 5.97 36.327 11.852 8.979 29.668 6.807 38.83-4.8 8.98-11.38 5.49-28.25-5.278-36.99Zm-42.966 16.03a25.627 25.627 0 0 0-.03 4.992c-.09.024-.18.045-.27.07a.2.2 0 0 0-.113.082c-.009-1.711.126-3.434.413-5.145ZM18.04 46.87c-3.632-4.406-5.36-9.845-5.442-15.445.037.06.091.107.177.106.086-.001.17-.01.254-.017.101.95.269 1.895.466 2.837a28.87 28.87 0 0 0 1.128 4.554c-.173-.332-.345-.665-.517-1.003-.098-.193-.43-.057-.352.148.301.784.622 1.587.962 2.39-.19.138-.105.477.156.395l.008-.002c.892 2.06 1.962 4.093 3.366 5.808-.108.031-.195.123-.206.229Zm5.658 4.975a23.971 23.971 0 0 1-5.18-4.415c.657.603 1.323 1.216 2.003 1.821.026.12.132.22.256.228 1.188 1.045 2.43 2.039 3.754 2.87-.28-.165-.559-.33-.833-.504Zm36.457-4.547c-8.14 10.293-22.924 11.577-34.045 5.916a.239.239 0 0 0 .185-.434l-.354-.265c.9.518 1.827.98 2.779 1.381.032.174.222.266.36.148 9.209 3.708 20.425 1.927 27.788-4.697.171.135.35.257.552.34.13.054.293-.109.239-.24a2.374 2.374 0 0 0-.324-.54c1.315-1.25 2.513-2.64 3.525-4.21a17.014 17.014 0 0 0 1.506-2.971c.164.036.329.062.493.053a.143.143 0 0 0 .1-.241 2.2 2.2 0 0 0-.387-.321c1.932-5.303 1.625-11.596.904-16.938-.9-6.657-4.255-11.472-9.999-14.89a28.714 28.714 0 0 0-4.208-2.046.259.259 0 0 0-.358-.139C38.048 3.11 24.101 4.958 18.732 16.36c-.099.211.19.388.316.184a25.283 25.283 0 0 1 1.908-2.665c.298.25.596.5.883.76.369.333.724.74 1.169.973a.208.208 0 0 0 .282-.282c-.232-.442-.642-.803-1.005-1.139a7.854 7.854 0 0 0-.963-.745c2.137-2.487 4.615-4.327 7.316-5.565.475 1.179.88 2.688 1.84 3.535.061.054.157.003.137-.08-.294-1.222-.877-2.538-1.485-3.665 2.825-1.209 5.877-1.777 9.01-1.792-.055.594-.05 1.19-.052 1.786-.003.712-.05 1.447.168 2.132.045.14.238.14.284 0 .19-.597.172-1.222.17-1.842-.004-.692.01-1.386-.056-2.076 3.256.047 6.595.702 9.857 1.871a13.43 13.43 0 0 0-1.53 3.421c-.045.156.151.262.265.155.89-.849 1.316-2.226 1.823-3.373 1.07.405 2.134.862 3.18 1.377a18.725 18.725 0 0 1 4.876 3.452c-.367.237-.672.59-.992.89-.489.456-1.248.939-1.56 1.543-.047.09.01.24.13.225.631-.07 1.225-.717 1.666-1.123.378-.349.843-.715 1.128-1.155 1.774 1.843 3.124 4.009 4.108 6.365-.137-.26-.28-.52-.431-.778-.041-.07-.166-.023-.135.056.379.956.69 1.94.974 2.936-1.21.23-2.444.783-3.57 1.242-.205.084-.132.396.093.339 1.174-.297 2.543-.51 3.584-1.187.245.889.472 1.783.7 2.668.045.175.28.164.345.027a31.51 31.51 0 0 1 .496 6.253c-.609-.063-1.247.045-1.851.105-.58.057-1.14.146-1.678.373-.188.08-.095.412.105.39.604-.07 1.206-.148 1.813-.198.533-.044 1.092-.04 1.606-.2a34.723 34.723 0 0 1-1.6 9.376c-.338-.162-.696-.297-1.015-.45-.764-.367-1.536-.699-2.314-1.035-.212-.091-.397.196-.186.32.728.422 1.435.867 2.186 1.25.347.178.73.393 1.123.553-1.008 2.912-2.6 5.317-4.596 7.254-.34-.41-.777-.765-1.153-1.11a14.076 14.076 0 0 0-1.994-1.49c-.29-.183-.529.256-.263.45.697.51 1.333 1.088 1.964 1.675.319.295.62.637.959.922-4.61 4.175-11.163 6.024-17.647 5.933.07-1.156-.004-2.365-.07-3.513-.015-.278-.41-.276-.43 0-.078 1.113-.33 2.43.096 3.507-3.231-.086-6.432-.648-9.351-1.64.189-.36.38-.717.542-1.092.185-.423.405-.887.357-1.358-.014-.132-.172-.228-.28-.115-.285.3-.4.688-.554 1.064-.181.444-.365.887-.552 1.327-.528-.19-1.051-.39-1.558-.607-2.135-.92-4.074-2.257-5.786-3.89.762-.704 1.564-1.454 2.05-2.333.094-.168-.11-.422-.287-.286-.804.615-1.502 1.429-2.196 2.198-2.199-2.21-4-4.918-5.321-7.878 0-.005-.002-.01-.004-.015.371-.105.743-.212 1.111-.326.544-.17 1.091-.303 1.532-.676.107-.09.018-.267-.111-.267-.55-.002-1.058.215-1.576.378-.37.117-.725.262-1.085.398-.778-2.977-1.324-5.837-1.547-8.744.173-.042.348-.087.523-.134.657-.174 1.387-.228 2.008-.503.122-.055.066-.216-.033-.253-.533-.2-1.097-.06-1.636.065-.304.072-.607.153-.911.233a37.26 37.26 0 0 1-.07-2.244c.534-2.35 1.033-4.621 1.696-6.879l.008.003a.176.176 0 0 0 .209.077c.276.1.553.195.827.297.566.215 1.12.47 1.734.493.206.008.29-.295.106-.391-.534-.28-1.123-.452-1.685-.665a8.981 8.981 0 0 0-.686-.233c.977-1.947 1.816-3.991 2.958-5.845.088-.144-.126-.26-.22-.13-1.339 1.819-2.313 3.734-3.079 5.834.402-1.31.859-2.62 1.425-3.946.076-.175-.146-.314-.26-.151-1.296 1.896-2.245 4.21-2.853 6.607-.1-.032-.226-.005-.258.114-.19.73-.345 1.471-.464 2.22.452-3.672 1.73-7.152 4.012-10.016.18-.226-.14-.55-.32-.32a18.653 18.653 0 0 0-1.803 2.775c.411-.932.861-1.848 1.36-2.743.08.01.165-.012.242-.088 5.842-5.764 11.045-10.082 19.51-10.88 6.508-.612 13.015 1.594 18.31 5.273 12.055 8.375 14.418 25.999 5.405 37.397Z" stroke="#A2783A" stroke-width="1.6" mask="url(#a)"/><path d="M15.506 15.993c1.467-2.138 3.203-3.943 5.011-5.822l.34-.353a.509.509 0 0 0 .038-.661.498.498 0 0 0-.672-.126h-.001c-2.447 1.555-4.15 4.072-5.535 6.45a.478.478 0 0 0 .176.658c.181.104.474.1.643-.146Zm4.775-6.73ZM63.085 46.863c-1.41 2.779-3.557 5.672-6.53 7.066l6.53-7.066Zm0 0a.584.584 0 0 0-.226-.775.58.58 0 0 0-.79.194c-1.662 2.635-3.55 4.898-6.072 6.69m7.088-6.109-7.088 6.11m0 0c-.566.402-.06 1.246.558.956l-.558-.956Zm.463.652ZM8.747 2.612c1.222 5.344-.133 9.75-1.56 14.389-.245.797-.492 1.6-.729 2.417a.662.662 0 0 1 0 .246m2.29-17.052L6.063 19.589M8.747 2.612a.632.632 0 0 0-.214-.354m.214.354-.214-.354M6.457 19.664l-.393-.075m.393.075-.393-.075m.393.075c-.554 2.927-.768 6.019-.777 9.15m.384-9.225c-.578 3.054-.788 6.277-.784 9.527m.4-.303a1.206 1.206 0 0 0-.344-.093l-.056.396m.4-.303a.855.855 0 0 1 .246.17m-.246-.17v.302h-.4m0 0 .646-.131m0 0-.282.283.282-.284Zm-.002-16.502c-.07-1.013-.111-2.032-.153-3.057-.01-.264-.02-.529-.032-.793-.082-1.956-.193-3.921-.544-5.84a.557.557 0 0 0-.228-.364.561.561 0 0 0-.37-.095.63.63 0 0 0-.523.377m1.85 9.772-4.722 1.182a85.978 85.978 0 0 0-.193-2.704l-.014-.17c-.07-.848-.14-1.702-.189-2.556C.707 6.518.693 4.787.942 3.052a.559.559 0 0 1-.207-.43.542.542 0 0 1 .524-.545 1.34 1.34 0 0 1 .116.001l.008-.184.145.2c.323.055.593.23.81.474.266.297.463.706.615 1.16.304.91.468 2.134.565 3.4.033.424.058.856.077 1.287l.013-.253.04-.823c.043-.91.085-1.791.136-2.534.033-.483.07-.915.114-1.263.042-.333.095-.636.176-.832m1.85 9.772c.434-1.814.55-3.692.673-5.684l-.673 5.684ZM4.074 2.71l.37.154-.37-.153Zm-.138 24.838a74.8 74.8 0 0 0-.175-4.883c-.114-1.593-.678-2.948-1.266-4.362l-.01-.025c-.587-1.409-1.195-2.879-1.283-4.614l2.734 13.884Zm0 0a.724.724 0 0 0-.727.841c.072.456.248.896.588 1.242m.14-2.083-.14 2.083m0 0a.707.707 0 0 0-.373.19.667.667 0 0 0-.201.435c-.01.187.06.364.196.502.14.143.301.278.477.395-.084 3.228-.28 6.46-.472 9.646l-.032.518c-.272 4.494-.444 9.027-.112 13.548l.03.444c.052.821.123 1.924.364 2.931.284 1.185.843 2.41 2.06 2.824h.002a.674.674 0 0 0 .848-.47c1.386-5.33.85-12.372.148-17.694l-.396.053.396-.053c-.48-3.644-.866-7.527-.991-11.414.35-.086.726-.283.888-.723a.563.563 0 0 0-.045-.474.57.57 0 0 0-.373-.276m-2.414-.382 1.958.373a1.31 1.31 0 0 1 .456.01m0 0-.082.39.082-.39Zm-.516.027-.001-.027m0 .027v-.027m0 .027c-.11.061-.227.097-.335.117l-.013-.072m.349-.045.003.074v.021c.004.091.008.186.01.282l-.142.03a3.01 3.01 0 0 1-.256.049c-.002-.115-.007-.23-.011-.346l-.003-.056.05-.009m.348-.072a5.063 5.063 0 0 0-.348.072m.348-.072a9.848 9.848 0 0 1-.007-.254l-.4.004.059.322M8.533 2.258a.606.606 0 0 0-.362-.135m.362.135-.362-.135m0 0a.68.68 0 0 0-.456.158m.456-.158-.456.158m0 0c-.398.124-.627.48-.759.81-.149.371-.227.83-.271 1.272-.045.447-.057.905-.06 1.288a50.35 50.35 0 0 0-.002.386c0 .2 0 .352-.006.45L7.715 2.28Zm-.792 14.215.036-.093c.432-1.105.876-2.24 1.159-3.44a21.68 21.68 0 0 0 .5-3.306 29.819 29.819 0 0 1-.664 3.268 79.883 79.883 0 0 1-1.031 3.571Zm-.86.005c-.482 1.239-.955 2.52-1.176 3.904a.467.467 0 0 0 0 .159 44.91 44.91 0 0 0-.016.096 18.49 18.49 0 0 0-.342-1.61c-.232-.892-.557-1.738-.871-2.559a59.187 59.187 0 0 1-.341-.902 21.06 21.06 0 0 1-.274-.796.546.546 0 0 0 .063.006l.028.242.134-.257c.09-.019.17-.055.24-.1.278-.105.466-.343.593-.576.14-.255.247-.575.333-.923.097.675.232 1.341.419 1.994a.7.7 0 0 0 .066.157.637.637 0 0 0 .135.682.625.625 0 0 0 .743.113c.217-.113.408-.258.576-.426l-.16.409-.15.387Zm-1.23 22.311.078-1.695.17 1.714.053.53c.272 2.727.531 5.422.63 8.062.042 1.138.012 2.278-.024 3.431l-.007.214c-.033 1.08-.067 2.172-.043 3.266.01.415.047 2.28-.072 3.665a8.267 8.267 0 0 1-.136.985 4.389 4.389 0 0 1-.118-.262c-.556-1.334-.776-2.898-.853-4.52-.053-1.12-.038-2.242-.023-3.324.007-.49.013-.972.014-1.442 0-3.552.165-7.083.33-10.624ZM74.415 32.144c-.14-4.383-.175-8.76-.043-13.207.031-1.057.087-2.11.142-3.159.121-2.315.242-4.614.097-6.902a92.56 92.56 0 0 0-.01-.169c-.122-1.906-.242-3.783-.037-5.701-.663.567-1.075 1.549-1.357 2.764a.488.488 0 0 1 .011.036v.001c.103.38.201.741.334 1.082v.001c.036.09.073.172.116.265l.078.172c.07.16.146.348.184.555v.001a.624.624 0 0 1-.213.592.587.587 0 0 1-.675.054l.2-.346a1.159 1.159 0 0 1-.392-.377l1.565 24.338Zm0 0a5.375 5.375 0 0 0-.723-1.082l.723 1.082Zm.551-30.768a.718.718 0 0 1 .503-.126.681.681 0 0 1 .393.19c.123.125.193.301.171.498v.001c-.237 2.068-.204 4.165-.13 6.29l.036 1.01c.067 1.79.134 3.597.058 5.394l-.099 2.28c-.173 3.909-.347 7.834-.314 11.721.014 1.586.066 3.17.137 4.754a.523.523 0 0 1 .031.439.677.677 0 0 1 .171.166c.14.193.172.465.023.708v.001c-.046.074-.096.14-.149.201.068 1.302.145 2.606.222 3.91.353 5.937.707 11.903.14 17.902-.152 1.605-1.095 2.994-2.225 3.436-.586.229-1.23.2-1.788-.21-.54-.396-.945-1.107-1.181-2.125-.882-3.807-.565-7.684.12-11.513.331-1.856.751-3.71 1.166-5.541l.04-.174c.4-1.768.794-3.515 1.1-5.239a2.23 2.23 0 0 1-.131-.05h-.001l.151-.37c-.331-.135-.21-.666.148-.558l1.408-32.995Zm0 0a.693.693 0 0 0-.488.043m.488-.043a.585.585 0 0 0-.227.374v.004l-1.686 31.141m-3.087-7.481c.219 1.206.688 2.32 1.564 3.256l.044.047c.717.765 1.435 1.531 2.118 2.344l-3.726-5.647Zm0 0c.09.056.189.105.298.142m-.298-.142.466-1.933.393.079a.54.54 0 0 1-.415.418m-.146 1.578h-.001l.129-.38-.126.38h-.002Zm0 0a.528.528 0 0 0 .551-.138.543.543 0 0 0 .134-.522c-.1-.35-.316-.66-.539-.918m0 0a.541.541 0 0 1-.421-.071m.421.071a6.52 6.52 0 0 0-.274-.296l.071-.11-.072.109m1.106-8.996c.02.057.04.12.063.184.074.216.16.466.22.694.092.36.156.785.037 1.192l.767-8.03m-1.087 5.96.046-.164m-.046.164-.032.116-.386-.106.382-.12c.01.034.023.071.036.11Zm.046-.164c.022.03.046.06.072.089m-.072-.09a1.818 1.818 0 0 1-.269-.518l.34.608m-.071-.09c.05-.178.1-.356.152-.534a1.5 1.5 0 0 0 .055.116l-.02.06.069.025c.034.056.074.11.118.16l-.303.262m0 0a.495.495 0 0 0 .534.148.534.534 0 0 0 .333-.318l.001-.004c.158-.433.15-.904.09-1.328a8.929 8.929 0 0 0-.255-1.131l.047-.152c.042-.135.083-.267.128-.404.067.146.15.291.257.428l.002.002a.511.511 0 0 0 .574.164.568.568 0 0 0 .346-.34l-.376-.134m0 0c.018-.05.033-.102.044-.154l.04-.031a1.058 1.058 0 0 1-.027-.036c.11-.655-.243-1.429-.55-2.104-.079-.171-.154-.336-.218-.49m.71 2.815c-.03.086-.16.15-.23.061a1.576 1.576 0 0 1-.127-.19l-.013-.021m.37.15-.37-.15m-.34-2.666.397.051.013-.107m-.41.056.37-.153.04.097m0 0 .01-.077.032-.253-.042.33Zm-.07 2.722a.44.44 0 0 0-.006.015l.006-.016m0 0a3.144 3.144 0 0 1-.25-.65m.25.65-.25-.65m-1.726 6.14-.112.09c.023.03.049.055.075.078l.037-.167m0 0 .2-.162-.2.162m0 0-.112.09.112-.09m-.703 7.027-.456-.134-.118-.137a16.788 16.788 0 0 1-.002-.246.632.632 0 0 1 .08-.015m.496.532-.002-.001.148-.225m-.146.226.146-.226m0 0-.085-.086-.03-.031-.001-.001a.662.662 0 0 0-.206-.142m0 0c0-.095 0-.19.002-.284a6.245 6.245 0 0 1-.141-.244 5.779 5.779 0 0 0-.138-.239m.277.767a.61.61 0 0 0-.32-.046m.32.046c0 .114.002.228.004.341v.001l-.325-.388m.044-.72a2.116 2.116 0 0 0-.049-.074 2.449 2.449 0 0 1-.049-.073 13.88 13.88 0 0 0-.01.214l.108-.068Zm0 0-.109.068c-.008.174-.012.348-.013.522l.073.122.005.008m2.925-12.635c-.051.238-.11.463-.177.669l.177-.67Zm.636 22.155c-.467-.75-1.06-1.414-1.676-2.104-.209-.234-.42-.47-.63-.714-.882-1.025-1.713-2.156-1.988-3.634-.293-1.57-.319-3.06-.2-4.527l-.001-.001a.62.62 0 0 1-.066-.606.7.7 0 0 1 .147-.218c.167-1.44.455-2.875.765-4.353l.172-.818c.722-3.443 1.477-7.038 2.38-10.423l.043-.166c.38-1.43.833-3.142 2.48-3.912m-1.426 31.476a.6.6 0 0 0-.05.482v.001c.058.195.14.41.263.61l-.213-1.093ZM74.478 1.42l.17.363-.17-.363Zm.148 36.047c-.3 1.879-.746 3.736-1.19 5.577l-.324 1.357c-.72 3.054-1.328 6.079-1.179 9.184V53.602a16.7 16.7 0 0 0 .419 3.654c.534.221.978.349 1.336.395.4.052.656-.003.814-.1.148-.089.27-.25.334-.55.065-.31.06-.742-.04-1.315l-.009-.047.004-.048c.1-1.576.177-3.142.177-4.712l-.342-13.413Zm0 0c.061 1.31.132 2.623.214 3.944l.4-.025-.4.025c.156 2.49.145 5.001.134 7.517-.003.65-.006 1.301-.006 1.952l-.342-13.413ZM69.51 21.598l.398.04.017-.168a37.312 37.312 0 0 0-.109-.13l-.306.258Zm1.01 3.2h-.002.003Zm-.696-4.075a.466.466 0 0 0 .153.292c.012-.105.025-.21.039-.314l-.192.022Zm3.271-9.399.026.029-.037.03.011-.059ZM70.4 18.3l.029-.152a4.547 4.547 0 0 0-.085-.138l-.337.215.393.075Zm2.67-12.73c-.001 0-.001 0 0 0Z" fill="#FDD8A1" stroke="#A2783A" stroke-width=".8"/><path d="M74.207 61.266v-.001c1.127-2.715 1.78-5.511 2.012-8.447l.399.031c.022-.277.423-.28.434 0l-2.845 8.417Zm0 0a.46.46 0 0 0 .022.4.48.48 0 0 0 .24.211c.15.061.446.068.598-.204l-.86-.407ZM2.08 56.307c-.603-1.284-.703-2.67-.797-3.973l-.035-.473.399-.031m.433 4.477 1.058-.368c-.05-.293-.102-.586-.154-.877-.194-1.098-.387-2.184-.52-3.281a.629.629 0 0 0-1.037-.397.578.578 0 0 0-.179.477l.399-.031m.433 4.477a.54.54 0 0 0 .339.295m-.34-.295.34.295m-.772-4.772.035.474c.088 1.2.175 2.397.624 3.52l-.66-3.994Zm.772 4.772a.55.55 0 0 0 .391-.037m-.391.037.391-.037m0 0a.588.588 0 0 0 .328-.625l-.328.625Z" fill="#FDD8A1" stroke="#A2783A" stroke-width=".8"/><path d="M1.728 54.418a.605.605 0 0 0-1.003-.412.6.6 0 0 0-.198.431v.001C.49 55.531.81 56.741 1.6 57.597h.001c.09.097.211.162.35.174a.539.539 0 0 0 .34-.088.57.57 0 0 0 .25-.577l-.393.072.393-.072c-.085-.466-.256-.9-.41-1.292l-.052-.133c-.172-.44-.314-.838-.351-1.263Zm0 0-.399.034.399-.035Zm.46 2.636a2.626 2.626 0 0 1-.089-.1l.011.044a.247.247 0 0 1 .077.055l-.054.05.055-.05Zm-.457.08.023.029a.24.24 0 0 0 0 .087 3.233 3.233 0 0 0-.023-.116Zm.163.191ZM10.505 6.196c.203-1.46-.245-2.922-.673-4.187l.673 4.187ZM9.832 2.01a.579.579 0 0 0-.708-.374.558.558 0 0 0-.395.715c.32 1.025.487 2.045.664 3.115a107.228 107.228 0 0 0 .124.744l.315-4.2Zm-.758.256ZM71.215 5.959a.553.553 0 0 1-.653.263.58.58 0 0 1-.41-.517m1.063.254-.663-.28m.663.28c.171-.306.28-.638.37-.945l.078-.278a8.59 8.59 0 0 1 .18-.593m-.628 1.816-.27-.348a.23.23 0 0 1 .006.041 2.6 2.6 0 0 1-.003-.048c.142-.3.234-.632.326-.961a9.3 9.3 0 0 1 .193-.635c.274-.76.629-1.488 1.165-2.096m-2.48 3.793v-.002l.4-.024m-.4.026.4-.026m-.4.026c-.051-.786.168-1.637.513-2.402.346-.769.834-1.485 1.357-2.004m-1.47 4.38a2.885 2.885 0 0 1-.005-.094l-.03-.016.029-.053c-.02-1.368.826-3.01 1.757-3.932m-.281-.285.281.285m-.281-.285a.618.618 0 0 1 .475-.184c.168.01.31.088.409.188.198.201.289.575.025.873m-.91-.877.282.285m0 0c.215-.213.525.105.329.328m0 0 .3.265m-.3-.265.3.264m0 0c-.49.556-.824 1.233-1.088 1.967m0 0-.377-.135.377.136Zm-1.327 1.425a.22.22 0 0 1 .029-.04l.001.057-.03-.017Z" fill="#FDD8A1" stroke="#A2783A" stroke-width=".8"/></svg>