<svg width="91" height="63" fill="none" xmlns="http://www.w3.org/2000/svg"><path d="M61.054 61.5V37.12h1.253v-2.533h2.09v-1.425h-45.55v1.425h1.95v2.533h1.393V61.5h1.532v-9.815h35.521V61.5h1.81Z" fill="#FDD8A1"/><path d="m56.596 17.173 9.612 8.39a2.181 2.181 0 0 0 2.368 0c1.003-.633 5.387-5.063 7.661-6.807 1.855-1.423 6.499.839 3.622 5.224-1.161 1.425-3.873 4.496-5.433 5.383v6.174H63.7v2.533h-1.81v20.264l5.153-15.198h12.259c1.578 0 4.736-1.077 4.736-5.383v-9.657c-.372-3.271-1.923-10.227-5.154-11.873-4.04-2.058-8.358 3.325-11.423 4.433-2.6-2.058-7.828-6.206-7.94-6.333-.139-.158-3.343-1.108-2.925 2.85ZM56.736 52.635h1.81v8.232c-1.253-.106-3.566-1.172-2.785-4.591.78-3.42.975-3.853.975-3.641Z" fill="#FDD8A1"/><path d="M56.596 31.738h13.93c2.693-2.27 8.274-7.188 9.054-8.708.975-1.9-.557-4.749-3.343-3.166-2.229 1.267-5.572 5.277-6.965 7.124H56.736c-1.068.845-2.591 2.976-.14 4.75ZM71.222 1.5c-2.043.158-6.1 1.836-5.99 7.282.112 5.446 4.04 6.491 5.99 6.333 2.09-.159 6.185-1.647 5.85-6.333-.417-5.857-4.596-7.282-5.85-7.282ZM88.495 25.88h1.672l-4.04 16.306c-.232 1.055-1.226 3.261-3.343 3.641v.475c.743.528 2.758 4.306 4.875 15.198h-.975c-1.207-4.802-3.705-14.406-4.04-14.406H69.413c-.604 1.952-1.923 7.567-2.369 14.406H65.93c.557-4.855 1.922-14.723 2.925-15.356h-1.253v-1.742l15.044-.158c.51-.105 1.615-.728 1.95-2.375.334-1.646 2.74-11.345 3.9-15.99ZM18.45 3.008c2.044.158 6.102 1.836 5.99 7.282-.11 5.446-4.039 6.491-5.99 6.333-2.089-.159-6.184-1.647-5.85-6.333.418-5.857 4.597-7.282 5.85-7.282ZM2.505 25.88H.833l4.04 16.306c.232 1.055 1.226 3.261 3.343 3.641v.475c-.743.528-2.758 4.306-4.875 15.198h.975c1.207-4.802 3.705-14.406 4.04-14.406h13.232c.604 1.952 1.923 7.567 2.368 14.406h1.115a196.35 196.35 0 0 0-1.115-8.164c-.076-.478-.154-.948-.234-1.406-.522-3.014-1.091-5.48-1.576-5.786h1.253v-1.742l-15.044-.158c-.51-.105-1.616-.728-1.95-2.375-.334-1.646-2.74-11.345-3.9-15.99ZM34.404 31.738h-13.93c-2.693-2.27-8.274-7.188-9.054-8.708-.975-1.9.557-4.749 3.343-3.166 2.229 1.267 5.572 5.277 6.965 7.124H34.264c1.848 1.107 4.462 3.607.14 4.75Z" fill="#FDD8A1"/><path d="M23.722 51.685v.245c.08.458.158.928.234 1.406a77.14 77.14 0 0 1 2.39 3.957c1.087 1.924 2.246-.518 2.567-.825-.233-.63-.881-3.27-1.24-4.783h-3.95ZM11.141 23.98c-1.543-2.352-.922-4.093.27-4.982-2.8 1.88-4.102 6.044-4.449 9.098v9.657c0 4.306 3.158 5.383 4.736 5.383H22.19v-3.938c-.14-1.81-3.803-3.195-5.616-3.661v-6.174c-1.56-.887-4.272-3.958-5.433-5.383ZM14.763 19.864c2.229 1.267 5.572 5.277 6.965 7.124h12.406c.923-1.323.058-1.962-.49-2.115H22.367c-5.308-5.492-7.28-6.366-7.604-6.117v1.108Z" fill="#FDD8A1"/><path d="M84.038 37.753c0 4.306-3.158 5.383-4.736 5.383H67.043L61.89 58.334V38.07h1.81v-2.533h10.726v-6.174c1.56-.887 4.272-3.958 5.433-5.383 2.877-4.385-1.767-6.647-3.622-5.224-2.274 1.744-6.658 6.174-7.661 6.807a2.181 2.181 0 0 1-2.368 0l-9.612-8.39c-.418-3.958 2.786-3.008 2.926-2.85.111.127 5.34 4.275 7.94 6.333 3.064-1.108 7.382-6.491 11.422-4.433 3.231 1.646 4.782 8.602 5.154 11.873m0 9.657v-9.657m0 9.657v-9.657m-1.393 18.998c.334 0 2.832 9.604 4.04 14.406h.974c-2.117-10.892-4.132-14.67-4.875-15.198v-.475c2.117-.38 3.11-2.586 3.343-3.641l4.04-16.306h-1.672c-1.16 4.644-3.566 14.343-3.9 15.99-.335 1.646-1.44 2.269-1.95 2.374l-15.044.158v1.742h1.253c-1.003.633-2.368 10.501-2.925 15.356h1.114c.446-6.84 1.765-12.454 2.369-14.406m13.233 0H69.412m13.233 0H69.412m-54.649-27.23c-2.786-1.583-4.318 1.267-3.343 3.166.78 1.52 6.361 6.438 9.054 8.707h13.93c4.322-1.142 1.708-3.642-.14-4.749h-.13m-19.371-7.124c2.229 1.267 5.572 5.277 6.965 7.124h12.406m-19.371-7.124v-1.108m0 0c-.86-.66-2.32-.527-3.351.242m3.351-.242c.323-.25 2.296.625 7.604 6.117h11.277c.548.153 1.413.792.49 2.115M23.956 43.136H22.19M6.962 37.753c0 4.306 3.158 5.383 4.736 5.383H22.19M6.962 37.753v-9.657m0 9.657v-9.657m0 0c.347-3.054 1.65-7.219 4.45-9.098m.621-.366c-.215.11-.422.232-.621.366M8.355 47.094c-.334 0-2.832 9.604-4.04 14.406h-.974c2.117-10.892 4.132-14.67 4.875-15.198v-.475c-2.117-.38-3.11-2.586-3.343-3.641L.833 25.88h1.672c1.16 4.644 3.566 14.343 3.9 15.99.334 1.646 1.44 2.269 1.95 2.374l15.044.158v1.742h-1.253c.485.306 1.054 2.772 1.576 5.786M8.355 47.094h13.233m-13.233 0h13.233m0 0c.604 1.952 1.923 7.567 2.368 14.406h1.115a196.35 196.35 0 0 0-1.115-8.164m3.718-1.651h-3.952v.245m3.952-.245h31.569V61.5h1.81V37.12h1.255v-2.533h2.089v-1.425h-45.55v1.425h1.95v2.533h1.393v2.078m5.484 12.487c.358 1.513 1.006 4.153 1.24 4.783m-4.958-3.133a77.14 77.14 0 0 1 2.39 3.958c1.087 1.924 2.246-.518 2.567-.825m-4.957-3.133c-.076-.477-.154-.947-.234-1.405m0 0v9.57H22.19V43.136m6.723 13.332c.057-.053.087-.042.087.07 0 .116-.032.079-.087-.07Zm-6.723-17.27c-.14-1.81-3.803-3.195-5.616-3.661v-6.174c-1.56-.887-4.272-3.958-5.433-5.383-1.543-2.352-.922-4.093.27-4.982m10.78 20.2v3.938m34.405-11.399h13.93c2.693-2.269 8.274-7.187 9.054-8.707.975-1.9-.557-4.749-3.343-3.166-2.229 1.267-5.572 5.277-6.965 7.124H56.736c-1.068.845-2.591 2.976-.14 4.75ZM71.222 1.5c-2.043.158-6.1 1.836-5.99 7.282.112 5.446 4.04 6.491 5.99 6.333 2.09-.159 6.185-1.647 5.85-6.333-.417-5.857-4.596-7.282-5.85-7.282ZM56.736 52.635h1.81v8.232c-1.253-.106-3.566-1.172-2.785-4.591.78-3.42.975-3.853.975-3.641ZM18.45 3.008c2.043.158 6.101 1.836 5.99 7.282-.112 5.446-4.04 6.491-5.99 6.333-2.09-.159-6.185-1.647-5.85-6.333.417-5.857 4.596-7.282 5.85-7.282Z" stroke="#A2783A" stroke-width="1.067"/></svg>