<svg width="61" height="61" viewBox="0 0 61 61" fill="none" xmlns="http://www.w3.org/2000/svg">
<path d="M55.3048 22.0836V24.4714C55.3048 25.5268 54.8855 26.5391 54.1392 27.2854C53.3929 28.0317 52.3807 28.451 51.3252 28.451H10.4308C9.37532 28.451 8.36309 28.0317 7.61677 27.2854C6.87045 26.5391 6.45117 25.5268 6.45117 24.4714V22.0836C6.45117 21.0282 6.87045 20.0159 7.61677 19.2696C8.36309 18.5233 9.37532 18.104 10.4308 18.104H51.3252C52.3807 18.104 53.3929 18.5233 54.1392 19.2696C54.8855 20.0159 55.3048 21.0282 55.3048 22.0836Z" fill="#FBD6A0"/>
<path d="M51.8747 51.7005V28.4517H9.88184V51.7005C9.88184 52.756 10.3011 53.7682 11.0474 54.5145C11.7938 55.2609 12.806 55.6801 13.8614 55.6801H47.895C48.9505 55.6801 49.9627 55.2609 50.7091 54.5145C51.4554 53.7682 51.8747 52.756 51.8747 51.7005Z" fill="#F9D5A0"/>
<path d="M51.8747 51.7005V28.4517H9.88184V51.7005C9.88184 52.756 10.3011 53.7682 11.0474 54.5145C11.7938 55.2609 12.806 55.6801 13.8614 55.6801H47.895C48.9505 55.6801 49.9627 55.2609 50.7091 54.5145C51.4554 53.7682 51.8747 52.756 51.8747 51.7005Z" stroke="#A2783A" stroke-width="1.5" stroke-linecap="round" stroke-linejoin="round"/>
<path d="M30.877 55.6797V28.4473" stroke="#A2783A" stroke-width="1.5" stroke-linecap="round" stroke-linejoin="round"/>
<path d="M55.3048 22.0836V24.4714C55.3048 25.5268 54.8855 26.5391 54.1392 27.2854C53.3929 28.0317 52.3807 28.451 51.3252 28.451H10.4308C9.37532 28.451 8.36309 28.0317 7.61677 27.2854C6.87045 26.5391 6.45117 25.5268 6.45117 24.4714V22.0836C6.45117 21.0282 6.87045 20.0159 7.61677 19.2696C8.36309 18.5233 9.37532 18.104 10.4308 18.104H51.3252C52.3807 18.104 53.3929 18.5233 54.1392 19.2696C54.8855 20.0159 55.3048 21.0282 55.3048 22.0836Z" stroke="#A2783A" stroke-width="1.5" stroke-linecap="round" stroke-linejoin="round"/>
<path d="M30.8782 18.1041C30.8782 14.622 26.819 6.49561 20.7222 6.49561C10.809 6.49561 14.4185 18.1041 19.1662 18.1041" stroke="#A2783A" stroke-width="1.5" stroke-linecap="round" stroke-linejoin="round"/>
<path d="M30.877 18.1041C30.877 14.622 34.9362 6.49561 41.0329 6.49561C50.9461 6.49561 47.3366 18.1041 42.5889 18.1041" stroke="#A2783A" stroke-width="1.5" stroke-linecap="round" stroke-linejoin="round"/>
</svg>
