<svg width="42" height="63" viewBox="0 0 42 63" fill="none" xmlns="http://www.w3.org/2000/svg">
<path fill-rule="evenodd" clip-rule="evenodd" d="M20.6952 49.5002C14.654 41.9055 2.57156 27.7851 2.57156 19.4667C2.57156 12.2173 5.67847 1.86093 19.6595 1.34311C30.8444 0.928859 36.0571 10.4912 37.2654 15.3242C37.9558 17.5681 38.301 23.8165 34.1584 30.8588C30.0159 37.9012 23.4569 46.2207 20.6952 49.5002ZM9.30319 19.4667C9.30319 10.3531 14.6226 7.55704 20.6952 7.55704C24.3946 7.55704 31.5694 11.596 31.5694 19.4667C31.5694 27.3375 24.3199 29.9957 20.6952 30.341C16.8979 30.5136 9.30319 28.5804 9.30319 19.4667Z" fill="#FDD8A1"/>
<path d="M6.7141 40.6974L20.6952 58.821L33.6406 40.1796C37.9558 42.7686 44.7219 49.5003 37.2654 55.7141C29.8088 61.9279 17.9335 61.7553 12.9279 60.8923C8.44016 59.684 -0.224657 55.4034 1.01811 47.9468C1.1907 46.7386 2.57154 43.5972 6.7141 40.6974Z" fill="#FDD8A1"/>
<path fill-rule="evenodd" clip-rule="evenodd" d="M20.6952 49.5002C14.654 41.9055 2.57156 27.7851 2.57156 19.4667C2.57156 12.2173 5.67847 1.86093 19.6595 1.34311C30.8444 0.928859 36.0571 10.4912 37.2654 15.3242C37.9558 17.5681 38.301 23.8165 34.1584 30.8588C30.0159 37.9012 23.4569 46.2207 20.6952 49.5002ZM9.30319 19.4667C9.30319 10.3531 14.6226 7.55704 20.6952 7.55704C24.3946 7.55704 31.5694 11.596 31.5694 19.4667C31.5694 27.3375 24.3199 29.9957 20.6952 30.341C16.8979 30.5136 9.30319 28.5804 9.30319 19.4667Z" stroke="#A2783A" stroke-width="1.5"/>
<path d="M6.7141 40.6974L20.6952 58.821L33.6406 40.1796C37.9558 42.7686 44.7219 49.5003 37.2654 55.7141C29.8088 61.9279 17.9335 61.7553 12.9279 60.8923C8.44016 59.684 -0.224657 55.4034 1.01811 47.9468C1.1907 46.7386 2.57154 43.5972 6.7141 40.6974Z" stroke="#A2783A" stroke-width="1.5"/>
</svg>
