<svg width="60" height="62" fill="none" xmlns="http://www.w3.org/2000/svg"><path d="M8.396 45.432c1.022-3.064 8.936-10.639 12.766-14.043l2.553 2.553 7.66-7.66c.368.492.8 1.054 1.276 1.656l16.596-16.974 1.277 16.974-10.213 8.045c.503.326.939.512 1.277.512 2.042 0-3.404 5.958-6.383 8.937l1.276 1.276c-3.064 5.107-11.489 11.49-15.319 14.043-4.68-3.83-13.787-12.256-12.766-15.32ZM22.439 4.58c2.042 5.107-.851 14.894-2.553 19.15-10.213 2.042-16.17-2.554-17.873-5.107C-1.05 8.41 6.694 8.41 10.95 9.687 8.396 3.304 19.886-1.803 22.44 4.58Z" fill="#FCD7A1"/><path d="m23.715 33.942-2.553-2.553c-3.83 3.404-11.744 10.979-12.766 14.043-1.021 3.063 8.085 11.489 12.766 15.319 3.83-2.553 12.255-8.936 15.32-14.043l-1.277-1.276m-11.49-11.49 7.66-7.66c.368.492.8 1.054 1.276 1.656m-8.936 6.004 11.49 11.49m0 0c2.979-2.98 8.425-8.937 6.383-8.937-.338 0-.774-.186-1.277-.512m-7.66-8.045 16.596-16.974 1.277 16.974-10.213 8.045m-7.66-8.045c2.278 2.882 5.56 6.683 7.66 8.045M33.928.751v11.49m-5.106-5.107h10.213m14.042 40.85v12.767m-6.383-6.383H59.46M19.886 23.729c1.702-4.255 4.595-14.042 2.553-19.148-2.553-6.383-14.043-1.277-11.49 5.106-4.255-1.277-12-1.277-8.936 8.936 1.702 2.553 7.66 7.149 17.873 5.107Z" stroke="#A2783A" stroke-width="1.5"/></svg>