<svg width="592" height="533" fill="none" xmlns="http://www.w3.org/2000/svg"><path d="M86.916 389.184c-1.165 7.575-3.832 8.722-5.144 8.337a1.452 1.452 0 0 0-.268-.059c-15.911-1.636-46.002-5.464-61.673-9.736-3.47 9.898-8.309 30.441-.334 34.468.21.106.393.269.494.483 1.969 4.156 4.477 13.503.007 20.523-.107.167-.167.36-.167.558v17.787l73.869 1.131c1.819-5.343 5.037-16.139 4.738-20.378-.413-1.451-.584-2.024-.216-1.104.115.286.185.659.216 1.104 1.281 4.498 4.895 17.426 2.045 20.481l66.204 1.014c.503.007.928-.361.949-.864.03-.702.036-1.68.02-2.892-.097-7.824-1.06-25.365-1.998-40.702-.395-6.469-.786-12.546-1.105-17.337v-7.306l-40.574 1.245a1.001 1.001 0 0 1-1.031-1v-13.29c-2.551.362-5.02.592-7.389.716a81.068 81.068 0 0 1-12.814-.334c-7.014-.75-12.215-2.288-14.732-3.397-.444 5.018-.824 8.779-1.097 10.552ZM481.13 166.073c-.754-.252-3.919-.754-10.552-.754-1.917 0-3.334.293-4.369.754 2.713 27.889 9.494 91.053 14.921 120.601 6.784 36.934 12.814 78.39 9.799 85.174 1.256 8.543 4.221 25.628 6.03 25.628 1.41 0 25.505-.611 45.226-1.118l15.075-.39c-3.241-10.047-8.385-27.076-11.143-39.195l33.721-60.992c.023-.042.047-.078.074-.117 1.494-2.098 2.922-10.935-3.055-30.096-7.537-24.165-54.27-79.898-62.561-90.45-6.634-8.442-24.874-9.548-33.166-9.045ZM292.691 318.331c4.272 3.267 13.417 11.005 15.829 15.829 1.759 2.261 6.03 7.387 9.045 9.799 3.01 2.408 41.325-20.023 60.203-31.598a.887.887 0 0 0 .177-.14c4.319-4.361 13.916-18.14 18.4-39.115 1.671 13.674 3.28 28.632 4.271 38.441-4.073 5.009-6.405 10.765 1.37 12.061l-6.03 76.129 6.03.274 26.56 1.207a.96.96 0 0 0 .876-.464c3.192-5.431 4.806-15.883 5.423-28.906 1.908-40.279-5.724-105.149-5.724-122.108 0-15.583-7.829-44.586-13.372-62.445-1.439-4.02-2.275-6.929-2.457-7.655-2.512-.502-8.291 0-11.306 6.03-7.286 2.01-22.764 9.196-26.382 21.859-4.522 15.829-18.844 57.286-24.12 62.562-3.31 3.31-3.746 8.072-3.417 11.306-4.64-.754-13.768-.753-13.165 5.277-3.015.251-8.442 2.11-6.03 7.537-11.558 7.035-35.427 21.105-38.442 21.105-1.19 0-1.401.313-1.098.754.465.676 2.142 1.653 3.359 2.261ZM61.5 78c-1.002-7.018 15.698-19.757 40.325-18.62.114.005.229.03.334.077.982.438 2.128 1.243-.159 1.439-23.366 1.507-35.224 11.074-37.485 15.597C62.705 80.11 61.75 79.005 61.5 78Z" fill="#FDD8A1"/><path fill-rule="evenodd" clip-rule="evenodd" d="M73.348 116.325c5.836-7.587 13.085-1.665 16.278 2.596.195.26.517.422.776.225 1.036-.79 2.315-3.819 3.05-5.874.15-.422.557-.701 1.005-.679l14.765.717a13.741 13.741 0 0 1-.447-2.262 19.508 19.508 0 0 1-.037-3.015H95.075c-.679 0-1.163-.658-.98-1.312 2.662-9.537 2.95-26.273-14.978-26.573-.304-.005-.608-.138-.776-.392-.857-1.293-1.272-3.172 2.545-2.627 5.276.754 14.321 4.523 15.829 6.784 1.501 2.252 13.472.766 7.608-8.184a.97.97 0 0 0-.16-.188c-2.811-2.538-9.145-7.457-12.725-7.457-4.522 0 .754-5.276 9.045 1.508 5.083 4.158 7.54 5.632 8.524 5.98.319.114.72.095 1.054.152 3.537.6 9.002.01 6.34-6.669a1.003 1.003 0 0 0-.258-.369c-2.288-2.06-6.118-6.044-4.353-6.632 1.786-.595 9.106 6.597 12.677 10.407a.933.933 0 0 0 .323.226c2.306.964 6.43 1.6 5.844-3.095-.553-4.424-.726-6.65-.751-7.377-.004-.107-.001-.233.089-.29.513-.329 2.795 1.777 8.82 12.702a.871.871 0 0 0 .37.37c1.362.662 4.09.83 5.793-3.144 2.225-5.192-2.848 8.591 5.606 9.034a1.1 1.1 0 0 1 .717.304l1.214 1.215a4.311 4.311 0 0 1 1.009-.414c3.433-3.128 8.64-10.139 2.007-13.154-4.671-2.123-7.622-2.377-9.223-2.079-.693.13-1.636-.125-1.959-.752-2.92-5.667-9.728-13.339-18.399-7.377-.344.236-.801.26-1.157.04-6.533-4.02-18.805-8.935-21.099.292-.118.473-.537.85-1.007.72-1.26-.347-2.323-1.594-.174-4.798.158-.236.417-.38.695-.44 2.395-.518 6.718-3.305 7.851-11.234 1.507-10.552 3.769-4.522 9.045-13.567s-6.03-12.06-7.538-12.06c-1.504 0-10.515 1.913-15.796 32.974a.936.936 0 0 1-.132.35c-.78 1.197-2.162 2.199-2.162-2.42 0-6.03 6.03-26.382 6.03-35.427 0-7.147-6.862-10.96-10.42-12.022a.86.86 0 0 0-.27-.036c-3.552.077-10.098 3.169-8.907 15.073 1.152 11.526 3.773 26.723 5.1 33.75a.997.997 0 0 1-.742 1.152l-.887.222a1.008 1.008 0 0 1-1.252-.936c-.437-10.337-3.285-32.32-11.795-47.364a.96.96 0 0 0-.664-.476c-7.584-1.39-20.314-.546-13.935 13.532a1 1 0 0 0 .132.216c3.298 4.074 10.188 13.52 11.983 19.502 1.213 4.043 1.816 7.635 2.081 10.093.1.926-.953 1.328-1.512.583-3.073-4.1-7.618-11.226-9.614-18.214-3.015-10.552-19.598-12.06-23.367-6.03-3.769 6.03-4.522 9.799 10.553 21.105 6.89 5.168 10.008 7.302 11.18 7.947.091-.133.32-.214.423-.092.284.335.267.47-.422.092-.674.98-4.227 1.165-14.8-4.103a.983.983 0 0 0-.31-.096c-7.335-.966-21.544.264-20.945 12.835.598 12.563 23.007 9.349 34.402 6.108a.917.917 0 0 1 .545.007c1.718.567 3.73 1.967-.274 3.684C51.504 71.847 27.5 71.853 36.34 88.3a.88.88 0 0 0 .178.235c2.138 1.933 8.982 3.212 20.247-6.543 14.32-12.4-4.523 8.705 3.769 27.549.753 2.512 2.562 7.537 3.768 7.537 1.117 0 1.027 2.585.809 4.165a1.046 1.046 0 0 1-.322.602c-1.593 1.547-3.185 4.784.954 7.548.445.298.628.875.426 1.37-1.377 3.365-1.68 8.215 5.57 7.006.738-.124 1.41.533 1.331 1.278-.438 4.107 1.157 8.745 10.45 2.905-.158-2.535.052-4.637.38-6.03-4.523.754-18.09-9.798-10.553-19.597Zm28.811-56.868a.928.928 0 0 0-.334-.077C77.198 58.243 60.497 70.982 61.5 78c.251 1.005 1.206 2.11 3.015-1.507C66.776 71.97 78.634 62.403 102 60.896c2.287-.196 1.141-1 .159-1.439Z" fill="#A2783A"/><path fill-rule="evenodd" clip-rule="evenodd" d="M90.135 132.012a1.14 1.14 0 0 0-.327.363c-.648 1.071-2.536 2.985-5.907 3.547-.328 1.393-.538 3.495-.38 6.03.296 4.751 1.883 11.022 6.41 16.995.47.62.972 1.237 1.507 1.849 8.442 9.648 23.115 13.065 29.397 13.568 1.77.098 4.488-.227 7.537-1.383 4.741-1.796 10.285-5.599 14.322-12.938 6.545-11.901 9.225-29.673 9.777-37.384-.499 3.627-9.738 7.064-14.903 3.569a1.32 1.32 0 0 1-.261-.251c-.602-.71-2.155-1.357-4.412.9-2.412 2.412-4.02-.502-4.523-2.261-.753-.503-4.371-1.658-12.814-2.261-8.33-.595-20.28 6.1-25.424 9.657Zm9.595 13.709c1.19-15.481 15.219-14.598 22.344-12.154.178.061.366.071.552.036 5.329-1.002 10.555 3.112 12.53 5.334 8.988 10.187-1.624 18.736-8.168 21.802a.921.921 0 0 1-.257.078c-9.588 1.478-28.202.509-27.001-15.096Z" fill="#A2783A"/><path d="M463.794 170.595c.502 18.593-2.412 55.477-18.09 54.271-14.881-1.145-25.416-24.888-29.955-37.571 5.543 17.859 13.372 46.862 13.372 62.445 0 16.959 7.632 81.829 5.724 122.108 15.428 1.005 48.245 2.412 56.084 0 3.015-6.784-3.015-48.24-9.799-85.174-5.427-29.548-12.208-92.712-14.921-120.601-2.545 1.132-2.772 3.272-2.415 4.522ZM216.562 368.833c1.256-1.256 3.919-4.824 4.522-9.045.374-2.614-1.738-4.591-4.116-5.898a18.32 18.32 0 0 0-4.175-1.64c-1.256 5.528-2.261 16.583 3.769 16.583ZM221.084 328.884c-1.603.601-2.973 2.607-4.116 5.276h6.378c.996-1.993 2.024-5.282 0-5.654-.528-.097-1.264.004-2.262.378ZM317.565 343.959c-3.015-2.412-7.286-7.538-9.045-9.799a182.367 182.367 0 0 1-7.537 5.449c7.537 5.219 21.406 13.395 16.582 4.35ZM292.691 318.331c-1.217-.608-2.894-1.585-3.359-2.261-.388 1.715-.711 5.686 1.098 7.849a6.951 6.951 0 0 0 2.261-5.588ZM113.966 89.013c-.974.375-1.846-.695-1.126-1.451 4.058-4.267 10.721-8.542 17.324-4.69.294.171.47.493.47.833v3.564c0 .809-.945 1.334-1.696 1.033-2.941-1.178-8.216-1.883-14.972.711ZM152.492 82.406c-2.992 1.094-8.592 0-6.783 6.03 1.809 6.03 4.791 3.064 7.537 2.261 5.254-2.697 7.236 3.618 6.03-3.015-1.008-5.547-3.776-5.682-5.775-5.69a4.311 4.311 0 0 0-1.009.414Z" fill="#A2783A"/><path d="M83.9 135.922c-4.522.754-18.09-9.798-10.552-19.597 5.836-7.587 13.085-1.665 16.278 2.596.195.26.517.422.776.225 1.036-.79 2.315-3.819 3.05-5.874.15-.422.557-.701 1.005-.679l14.765.717m-25.321 22.612c3.371-.562 5.259-2.476 5.907-3.547a1.14 1.14 0 0 1 .326-.363c5.144-3.557 17.094-10.252 25.424-9.657m-31.657 13.567c-.328 1.393-.538 3.495-.38 6.03m32.037-19.597c8.443.603 12.061 1.758 12.814 2.261m-12.814-2.261c-3.678-2.299-5.545-6.206-6.336-9.045m19.15 11.306c.503 1.759 2.111 4.673 4.523 2.261 2.257-2.257 3.81-1.61 4.412-.9.078.093.161.183.261.251 5.165 3.495 14.404.058 14.903-3.569m-24.099 1.957c.979-4.501 3.36-12.508 6.359-15.829m10.224-1.507h-7.538c-.933 0-1.834.565-2.686 1.507m10.224-1.507v7.537c0 1.508 7.537 3.769 7.537 7.538m-7.537-15.075c.502-4.272 3.166-12.663 9.799-12.06m-2.262 27.135c7.237 3.015 9.548-7.789 9.799-13.568.252-4.271-.904-12.965-7.537-13.568m-2.262 27.136-.021.304m.021-.304c0 .101-.007.203-.021.304m-76.862 1.957c0-1.508.754-4.523 3.77-4.523 2.928 0 4.197 1.423 4.498 2.195.017.044.035.087.054.13.462 1.048.172 3.604-4.553 5.967-4.824 2.412 2.513 3.517 6.784 3.769m68.592-36.934c0-1.81-1.005-3.77-1.508-4.523m-18.515 18.09c-.109-6.03-3.042-17.638-13.896-15.829-9.062 1.51-11.749 9.431-12.097 15.075m9.835 3.769c1.257-1.005 4.674-2.563 8.292-.754 4.522 2.262-.754-6.03-8.292-3.768m37.688.753c-1.943-.216-5.669-.06-7.06 1.902-.365.515.111 1.114.742 1.138 2.41.092 5.81.466 6.318 1.483m-47.523-4.523a19.508 19.508 0 0 0 .037 3.015c.059.597.201 1.378.447 2.262m-.484-5.277H95.075c-.679 0-1.163-.658-.98-1.312 2.662-9.537 2.95-26.273-14.978-26.573-.304-.005-.608-.138-.776-.392-.857-1.293-1.272-3.172 2.545-2.627 5.276.754 14.321 4.523 15.829 6.784 1.501 2.252 13.472.766 7.608-8.184a.97.97 0 0 0-.16-.188c-2.811-2.538-9.145-7.457-12.725-7.457-4.522 0 .754-5.276 9.045 1.508 5.083 4.158 7.54 5.632 8.524 5.98.319.114.72.095 1.054.152 3.537.6 9.002.01 6.34-6.669a1.003 1.003 0 0 0-.258-.369c-2.288-2.06-6.118-6.044-4.353-6.632 1.786-.595 9.106 6.597 12.677 10.407a.933.933 0 0 0 .323.226c2.306.964 6.43 1.6 5.844-3.095-.553-4.424-.726-6.65-.751-7.377-.004-.107-.001-.233.089-.29.513-.329 2.795 1.777 8.82 12.702a.871.871 0 0 0 .37.37c1.362.662 4.09.83 5.793-3.144 2.225-5.192-2.848 8.591 5.606 9.034a1.1 1.1 0 0 1 .717.304l1.214 1.215m0 0c-2.992 1.094-8.592 0-6.783 6.03 1.809 6.03 4.791 3.064 7.537 2.261m-.754-8.291a4.311 4.311 0 0 1 1.009-.414m-.255 8.705c5.254-2.697 7.236 3.618 6.03-3.015-1.008-5.547-3.776-5.682-5.775-5.69m0 0c3.433-3.128 8.64-10.139 2.007-13.154-4.671-2.123-7.622-2.377-9.223-2.079-.693.13-1.636-.125-1.959-.752-2.92-5.667-9.728-13.339-18.399-7.377-.344.236-.801.26-1.157.04-6.533-4.02-18.805-8.935-21.099.292-.118.473-.537.85-1.007.72-1.26-.347-2.323-1.594-.174-4.798.158-.236.417-.38.695-.44 2.395-.518 6.718-3.305 7.851-11.234 1.507-10.552 3.769-4.522 9.045-13.567s-6.03-12.06-7.538-12.06c-1.504 0-10.515 1.913-15.796 32.974a.936.936 0 0 1-.132.35c-.78 1.197-2.162 2.199-2.162-2.42 0-6.03 6.03-26.382 6.03-35.427 0-7.147-6.862-10.96-10.42-12.022a.86.86 0 0 0-.27-.036c-3.552.077-10.098 3.169-8.907 15.073 1.152 11.526 3.773 26.723 5.1 33.75a.997.997 0 0 1-.742 1.152l-.887.222a1.008 1.008 0 0 1-1.252-.936c-.437-10.337-3.285-32.32-11.795-47.364a.96.96 0 0 0-.664-.476c-7.584-1.39-20.314-.546-13.935 13.532a1 1 0 0 0 .132.216c3.298 4.074 10.188 13.52 11.983 19.502 1.213 4.043 1.816 7.635 2.081 10.093.1.926-.953 1.328-1.512.583-3.073-4.1-7.618-11.226-9.614-18.214-3.015-10.552-19.598-12.06-23.367-6.03-3.769 6.03-4.522 9.799 10.553 21.105 6.89 5.168 10.008 7.302 11.18 7.947m25.374 90.795c-9.293 5.84-10.888 1.202-10.45-2.905.08-.745-.593-1.402-1.332-1.278-7.25 1.209-6.946-3.641-5.57-7.006a1.14 1.14 0 0 0-.425-1.37c-4.14-2.764-2.547-6.001-.954-7.548.168-.163.29-.37.322-.602.218-1.58.308-4.165-.809-4.165-1.206 0-3.015-5.025-3.768-7.537-8.292-18.844 10.552-39.95-3.77-27.549-11.264 9.754-18.108 8.476-20.245 6.543a.88.88 0 0 1-.18-.235C27.5 71.853 51.505 71.847 56.766 69.592c4.005-1.717 1.993-3.117.275-3.684a.917.917 0 0 0-.545-.007C45.1 69.14 22.69 72.356 22.093 59.793c-.599-12.571 13.61-13.801 20.945-12.835a.983.983 0 0 1 .31.096c10.574 5.268 14.126 5.083 14.8 4.102m25.373 90.796c.296 4.751 1.883 11.022 6.41 16.995m0 0c.47.62.972 1.237 1.507 1.849 8.442 9.648 23.115 13.065 29.397 13.568 1.77.098 4.488-.227 7.537-1.383m-38.441-14.034v8.839m38.441 5.195c4.741-1.796 10.285-5.599 14.322-12.938 6.545-11.901 9.225-29.673 9.777-37.384m-24.099 50.322v1.383m-38.441-6.578v8.265c0 .355.185.684.496.856 6.28 3.487 21.597 8.929 37.193 5.182a.986.986 0 0 0 .752-.961v-6.764m-38.441-6.578c-6.663-.522-16.393 1.125-6.945 11.092.731.771-.11 2.549-1.153 2.755-2.27.449-4.04 2.112-3.127 6.299m60.219 8.291c-18.714 9.055-42.992 6.99-54.045 0m54.045 0c-3.975 21.105-11.26 66.783-8.601 80.652m8.601-80.652c1.149-1.559 2.222-3.498 2.559-5.236m-13.112-3.055c2.546-.728 4.644-1.156 6.359-1.342m0 0c5.153-2.812 11.997-9.177-1.727-12.202a.988.988 0 0 0-.217-.024h-4.415m6.359 12.226c5.946-.645 7.293 1.617 6.753 4.397m-62.778-3.055c.149.684.37 1.436.672 2.261.825 2.251 2.755 4.292 5.502 6.03m-6.174-8.291c-14.851 1.507-45.608 11.607-49.83 39.949-5.063 33.996-9.432 87.429-3.781 96.349.333.527.345 1.265-.1 1.701-5.11 5-13.302 16.378-11.26 28.212.04.237.003.478-.116.687-4.519 7.922-11.003 24.478-2.079 29.832 1.718 1.031 4.606 2.06 8.291 3.064m73.115-75.425c-20.1-17.336-59.396-55.928-55.778-71.607m55.778 71.607 18.432 21.381c.252.292.647.408 1.029.352 2.088-.309 5.918.189 10.541 3.141m-30.002-24.874c-1.167 17.303-3.416 49.168-4.933 66.331m128.549-9.799c1.256-1.256 3.919-4.824 4.522-9.045m-4.522 9.045c-6.03 0-5.025-11.055-3.769-16.583m3.769 16.583c-4.24 1.211-19.555-2.722-36.934-8.117m41.456-.928c.374-2.614-1.738-4.591-4.116-5.898m4.116 5.898c2.02 1.346 10.053 4.497 13.895-.754m-22.186-6.784c.503-4.696 1.88-12.73 4.175-18.09m-4.175 18.09a18.32 18.32 0 0 1 4.175 1.64m6.378-19.73h-6.378m6.378 0c.996-1.993 2.024-5.282 0-5.654m0 5.654h3.015m-9.393 0c1.143-2.669 2.513-4.675 4.116-5.276.998-.374 1.734-.475 2.262-.378m0 0c-12.776-5.944-35.702-16.086-51.256-21.532m-14.321-3.718-3.015 7.538m3.015-7.538c1.005-1.759 2.412-6.03 0-9.045-1.59-1.987-5.013-.154-8.026 2.261m8.026 6.784c1.515 0 3.854.472 6.784 1.298m61.808 29.606c1.507-1.507 5.577-3.316 9.799 1.508m-9.799-1.508v9.045m9.799-7.537c4.174 4.77 13.115-1.369 17.201-5.151a.907.907 0 0 1 .31-.192c1.377-.493 4.655-1.087 8.116.066m-25.627 5.277-3.015 8.291m28.642-13.568c4.506 1.502-19.42 15.724-9.906 22.538.067.048.144.09.223.114 2.049.625 7.525-1.226 14.34-13.246a1.059 1.059 0 0 1 1.584-.288c3.036 2.46 8.181 5.43 10.342 2.189m-16.583-11.307c.503-2.386 4.523-6.632 16.583-4.522 6.309 1.103 10.006-.082 12.06-1.95m-12.06 17.779c3.015-4.523 1.507-6.03 5.276-6.03m-5.276 6.03c2.261 3.015 9.799 3.769 13.567 3.015.846-.169 2.185-.817 3.769-1.732m-3.015-24.65c4.272 3.267 13.417 11.005 15.829 15.829m-15.829-15.829c-1.217-.608-2.894-1.585-3.359-2.261m3.359 2.261a6.951 6.951 0 0 1-2.261 5.588m18.09 10.241c1.759 2.261 6.03 7.387 9.045 9.799m-9.045-9.799a182.367 182.367 0 0 1-7.537 5.449m-74.622 3.596c1.256-.502 4.371-1.055 6.784.754m-6.784-.754c-3.75.591-10.877 3.555-9.393 10.685m16.177-9.931c2.01 1.508 5.427 6.181 3.015 12.814a9.046 9.046 0 0 1-1.181 2.261m-13.895-5.144c1.243-3.025 5.187-7.567 11.105-1.838.13.126.226.291.265.468.667 3.064.179 8.271-6.847 6.514m9.372 0c5.418 2.01 17.612 6.633 23.039 9.045 1.444.642 3.276.088 5.277-1.212m15.829-18.385c-3.504 5.532-10.31 14.799-15.829 18.385m0 0c5.323.404 15.188.308 12.06-3.31m-3.769-1.508c4.523.754 13.115 1.055 11.306-3.769m0 0h-7.537m7.537 0c4.02-1.005 10.854-3.919 6.03-7.537m0 0c-3.015-.251-9.045-.452-9.045.754m9.045-.754c2.764.353 7.99-.706 6.784-7.762m0 0c1.596-.923 3.439-2.118 5.277-3.372m-91.959 34.5c3.769 3.518 7.689 17.186-6.783 43.718 7.941-14.89 26.374-43.311 37.284-39.358a.897.897 0 0 1 .542.562c2.689 7.872 6.119 24.234 2.862 38.066-.273 1.159-.84.956-.454-.17 6.612-19.259 20.203-42.867 37.902-29.823.792.584 2.069-.138 1.962-1.116-1.238-11.281 5.349-23.103 39.116-2.566 1.037.63 2.445-1.017 1.631-1.917-9.753-10.782-20.283-24.611-14.566-26.993m-113.063-48.241c2.512 4.774 8.14 11.457 10.552 0 2.412-11.457-6.03-49.496-10.552-67.084 5.494 18.341 21.09 56.833 39.522 64.069 4.278 2.01 9.75-8.442-2.588-66.33 1.759 14.824 9.346 44.923 25.627 46.733 16.282 1.809 18.342-33.417 17.337-51.256-.754 20.352.452 61.657 11.306 64.069 8.278 1.84 16.205-16.078 21.174-31.821.373-1.183-.439-1.434-.793-.245-4.088 13.712-7.443 30.933-3.044 38.85m-158.289-3.015a38.701 38.701 0 0 1 4.034-3.769m0 0c.666-2.763 1.393-8.743-1.019-10.552-1.572-1.179-4.508 1.845-7.059 5.276m-10.278 3.769c-3.768 3.266-10.251 11.758-6.03 19.597 4.202 7.804 10.246-8.642 12.78-17.962a.93.93 0 0 1 .103-.243 61.451 61.451 0 0 1 3.425-5.161m0 0a4037.263 4037.263 0 0 0-11.341-14.321m-60.745-72.361c1.377 0 11.776 12.046 24.84 27.889m-9.538-36.18c3.67 9.296 10.716 29.547 9.538 36.18m0 0c11.347 13.762 24.705 30.388 35.905 44.472m11.341-79.145c6.033 3.769 17.097 13.116 13.089 20.352-2.802 5.057-5.94 7.955-8.206 9.412-.772.497-.849 1.947-.078 2.445 4.558 2.948 10.331 8.624 8.284 15.278-3.015 9.799-14.321 8.291-21.105 24.12m7.835-78.35c9.951 5.263 30.003 23.477 30.606 54.23.603 30.753.252 53.985 0 61.757m0 0c-2.781-.974-5.327-1.798-7.537-2.42m0-69.136v69.136m-41.605 32.621c2.343 1.496 4.89 3.622 7.518 6.593.11.125.247.22.404.278 9.984 3.691 24.179 8.723 38.205 13.305m-46.127-20.176v44.472m49.142 12.814c1.257 2.01 1.508 6.331-7.537 7.537m7.537-7.537-3.015-37.11m3.015 37.11-7.537.231m0 7.306v-7.306m0 7.306c.319 4.791.71 10.868 1.105 17.337m3.417-61.984a744.363 744.363 0 0 0 10.553 3.365m-91.615 17.916c-.444 5.018-.824 8.779-1.097 10.552-1.165 7.575-3.832 8.722-5.144 8.337a1.452 1.452 0 0 0-.268-.059c-15.911-1.636-46.002-5.464-61.673-9.736m68.182-9.094c2.517 1.109 7.718 2.647 14.732 3.397m20.203-.382v13.29c0 .564.467 1.017 1.031 1l40.574-1.245m-41.605-13.045c-2.551.362-5.02.592-7.389.716m-95.727 5.363c-3.47 9.898-8.31 30.441-.335 34.468.21.106.393.269.494.483 1.969 4.156 4.477 13.503.007 20.523-.107.167-.167.36-.167.558v17.787m0 0H.234m19.597 0 73.869 1.131m9.045-80.647c.251 12.938-.302 41.074-4.523 50.119m4.523-50.119c3.788.405 8.105.58 12.814.334m0 0c-.252 14.837-2.262 46.017-8.292 52.047m8.292 3.015H96.715m-19.598 11.306c-2.412-8.442 2.01-11.055 4.522-11.306h15.076m0 0c-3.015 2.01-9.648 6.03-12.06 6.03m9.045 19.221 6.783.103m-6.783-.103c1.819-5.343 5.037-16.139 4.738-20.378m2.045 20.481 66.204 1.014c.503.007.928-.361.949-.864.03-.702.036-1.68.02-2.892m-67.173 2.742c2.85-3.055-.764-15.983-2.045-20.481m81.19-81.582c2.764 11.5 7.99 38.418 6.784 54.096m0 0c-.754 1.508-2.865 4.523-5.277 4.523m5.277-4.523c-1.564-.779-3.993-1.542-6.784-1.695m-13.97 6.218c4.236-5.172 9.556-6.459 13.97-6.218m-13.97 6.218c.938 15.337 1.901 32.878 1.998 40.702m13.479-40.702-1.507-6.218m1.507 6.218c.754 9.045 1.809 28.19 0 32.411s-7.788 9.799-10.552 12.06m0 0c-.921.754-2.795 1.055-2.927-3.769m2.927 3.769h9.045m-11.972-3.769c1.73-2.763 5.188-8.894 5.188-11.306 0-3.015-1.507-11.306 5.276-16.583m1.508 31.658 16.283-16.991c.498-.519 1.367-.362 1.673.289 2.406 5.112 7.657 13.648 13.702 15.572m-31.658 1.13c-10.592 7.65-27.31 30.757-34.882 42.142-.305.458-.216 1.045.261 1.32 15.938 9.193 101.705 26.597 101.705 24.376 0-1.765 27.273-38.124 41.9-57.392a.99.99 0 0 0-.685-1.589c-23.947-2.592-70.17-7.928-76.641-9.987m0 0h196.73m-244.217 41.079c6.784-8.291 23.065-28.115 33.919-41.079M178.12 506.77l30.904-36.934m-18.09 43.718 24.874-32.411m-11.306 35.426 33.919-41.456m-21.105 43.717 18.844-22.612m3.768 28.642c5.991-4.992 17.339-17.177 15.121-26.205a.878.878 0 0 0-.153-.322c-1.336-1.742-4.665-3.96-8.184.146-4.508 5.26 10.459 9.771 12.046.838.009-.054.014-.112.014-.167v-3.947c0-.64.595-1.116 1.232-1.064 2.409.199 5.798-.4 6.306-3.951m0 0c.754-5.277-1.508-6.784-3.769-6.784s-3.015 8.291 3.769 6.784Zm0 0c1.759.251 5.276-.151 5.276-3.769m33.165 19.598 55.617-30.815a.966.966 0 0 1 .342-.114c3.541-.459 9.406.127 5.849 6.055-3.618 6.03-39.697 24.622-57.285 33.165m-4.523-8.291 4.523 8.291m-4.523-8.291-9.585 8.986c-.727.682-.118 1.891.863 1.713l13.245-2.408M449.473 43.964c-6.031 9.799-15.829-6.03-36.181-3.015-16.141 2.391-20.28 14.364-20.35 20.2-.002.103-.017.201-.048.299l-.907 2.867m57.486-20.35c0 5.071-3.073 8.782-4.91 10.272a.949.949 0 0 1-.821.167c-16.569-4.046-24.184-.62-25.927 1.62m31.658-12.06c.19 2.864-.083 7.991-2.077 10.553m-20.536 3.015c12.06-3.77 12.814-.754 18.09-1.508 1.013-.145 1.815-.698 2.446-1.507m0 0c11.711 1.753 33.451 7.802 27.01 17.997-.038.06-.085.118-.134.168l-1.433 1.432m0 0c-4.774-3.517-15.377-10.1-19.598-8.291m19.598 8.291c3.769 4.02 10.1 12.814 5.276 15.83-2.251 1.406-5.236-.023-8.291-2.366M457.01 77.129c2.362 0 7.685 6.514 12.814 10.449m0 0c1.256 2.798 3.467 9.903 2.261 15.933m0 0c-4.522-2.01-13.567-3.317-13.567 7.537m13.567-7.537c2.01 2.512 4.975 9.949.754 19.597-2.114 4.833-5.578 5.833-9.045 5.122m-9.045-5.122c2.132 2.007 5.59 4.414 9.045 5.122m6.03-18.689c-2.01-.754-6.181-1.508-6.784 1.507-.55 2.752 2.206 4.876 4.028 5.799.304.154.536.434.551.774.067 1.556-.607 3.763-3.825 3.226-3.618-.603-1.508 2.764 0 4.523m-41.457-58.793c.221 5.518 4.126 14.72 17.337 12.787m6.03-1.48c-2.198.732-4.203 1.212-6.03 1.48m0 0c-.754 5.034-.905 15.252 4.522 15.855 5.101.567 6.162 4.286 6.063 6.4a.948.948 0 0 1-.32.641c-1.764 1.646-4.259 5.179-1.974 8.035 2.412 3.015 5.025 1.758 6.03.753m-44.472-59.546c-4.271 1.005-13.115 7.386-14.321 24.874m18.09-18.844c-4.271 2.512-12.663 8.743-12.06 13.567.754 6.03 2.261-7.537 18.844-6.03m-44.472 6.784c0 9.066 9.04 8.581 15.128 6.784m.701-6.03c.783-1.304.841-4.536.554-8.291m0 0c-.311-4.07-1.028-8.753-1.67-12.269-.15-.827-1.184-1.077-1.666-.39-5.591 7.976-3.916 15.964-1.216 21.054.5.942-.428 1.971-1.208 1.245-2.822-2.629-4.435-6.361-5.29-9.93-.274-1.147-2.299-1.274-2.385-.099-.815 11.192 6.391 14.134 12.064 14.127.315 0 .418.494.116.583m0 0c-2.263 5.987-5.583 20.743-.907 32.167.065.161.09.33.071.502-2.012 17.611 1.875 49.716 30.934 50.147m8.291-.657c-2.968.487-5.728.695-8.291.657m-39.196-68.495c2.01-3.517 7.538-9.045 13.568-3.015m15.829 0c2.261-3.015 7.688-6.784 11.306 2.261m-18.844 22.613c-3.728 0-10.553 1.623-8.366 8.077a.89.89 0 0 0 .234.367c2.138 1.971 7.697 4.052 14.162-2.414m54.271 7.383c-1.759 5.579-5.729 16.888-7.538 17.491-2.261.754-1.507 27.135 7.538 24.874m0 0c.502 18.593-2.412 55.477-18.09 54.271-14.881-1.145-25.416-24.888-29.955-37.571m48.045-16.7c-.357-1.25-.13-3.39 2.415-4.522m-45.379-4.62.701 14.123a1.03 1.03 0 0 1-.997 1.071c-3.144.127-7.781.838-7.242 2.993m0 0c-2.512-.502-8.291 0-11.306 6.03m11.306-6.03c.182.726 1.018 3.635 2.457 7.655m-2.457-7.655c.732 2.195 1.565 4.78 2.457 7.655m65.381-21.222c-.754-.252-3.919-.754-10.552-.754-1.917 0-3.334.293-4.369.754m14.921 0c6.784 6.532 19.749 20.351 17.337 23.366-2.371 2.963-11.244 9.08-15.604 11.914-.15.097-.281.228-.31.405-.257 1.545 3.5 4.307 20.627 4.971.659.026 1.132.651.94 1.282-6.639 21.841-19.059 66.238-18.467 78.663m-4.523-120.601c8.292-.503 26.532.603 33.166 9.045 8.291 10.552 55.024 66.285 62.561 90.45 5.977 19.161 4.549 27.998 3.055 30.096a1.283 1.283 0 0 0-.074.117l-33.721 60.992M401.986 185.67c-2.984 5.969-4.738 12.922-5.261 15.743-.011.059-.009.117.032.161.45.483 4.241 2.863 16.633 9.349.792.414.7 1.595-.144 1.888-7.555 2.614-18.713 7.702-16.536 12.055 3.015 6.03 24.874 52.009 27.889 76.129M401.986 185.67c-7.286 2.01-22.764 9.196-26.382 21.859-4.522 15.829-18.844 57.286-24.12 62.562-3.31 3.31-3.746 8.072-3.417 11.306m47.889 118.34 6.03-76.129m-6.03 76.129c-1.759 1.507-3.015 5.578 6.03 9.799m-6.03-9.799 6.03.274m0-76.403c4.221-1.809 9.296-.754 11.306 0m-11.306 0c-7.775-1.296-5.443-7.052-1.37-12.061m5.139-5.276c-1.64 1.426-3.526 3.293-5.139 5.276m0 0c-.991-9.809-2.6-24.767-4.271-38.441m-4.912-31.658c1.25 3.748 3.117 16.962 4.912 31.658m5.641 126.905 26.56 1.207a.96.96 0 0 0 .876-.464c3.192-5.431 4.806-15.883 5.423-28.906m-32.859 28.163c.251 19.255 1.809 58.745 6.03 62.665m0 0h61.808m-34.979-90.828c1.908-40.279-5.724-105.149-5.724-122.108 0-15.583-7.829-44.586-13.372-62.445m19.096 184.553c15.428 1.005 48.245 2.412 56.084 0m0 0c3.015-6.784-3.015-48.24-9.799-85.174-5.427-29.548-12.208-92.712-14.921-120.601m24.72 205.775c1.256 8.543 4.221 25.628 6.03 25.628 1.41 0 25.505-.611 45.226-1.118m15.075-.39c-3.241-10.047-8.385-27.076-11.143-39.195m11.143 39.195-15.075.39m15.075-.39c2.399 1.005 3.949 4.07-9.045 8.291m-31.658-83.666c5.824-.564 16.51-.959 23.043.643m0 0c2.203.54 3.933 1.307 4.846 2.372 2.974 3.47-.98 7.178-4.576 9.365-.772.47-.707 1.76.09 2.187 2.844 1.525 5.89 4.301 4.486 8.045-.643 1.713.153 6.897 1.671 13.568m-6.517-35.537c.947-1.894 1.609-5.401-1.938-6.401m-16.583-4.041c2.262 1.256 8.292 3.768 14.322 3.768.895 0 1.642.099 2.261.273m0 0c-1.238-6.206-2.619-18.486 0-25.101m18.844-18.889c-3.518 3.266-11.823 11.005-16.906 15.829-.807.765-1.444 1.812-1.938 3.06m-30.904-57.331c2.261 7.538 8.291 23.216 14.321 25.628 4.999 1.999 7.677 14.647 10.893 23.366m5.69 8.337c-2.285-.493-4.057-3.908-5.69-8.337m0 0c-.797-2.261 2.782-15.829 7.628-15.829m-179.071 18.091h-11.297a.944.944 0 0 1-.938-.744c-.091-.451-.17-.962-.227-1.518m0 0c-4.64-.754-13.768-.753-13.165 5.277m0 0c4.824 1.206 11.055 5.527 13.567 7.537m-13.567-7.537c-3.015.251-8.442 2.11-6.03 7.537m0 0c10.854-1.809 13.567 7.286 13.567 12.06m-13.567-12.06c-11.558 7.035-35.427 21.105-38.442 21.105-1.19 0-1.401.313-1.098.754m0 0c-.388 1.715-.711 5.686 1.098 7.849m27.135 20.04c3.01 2.408 41.325-20.023 60.203-31.598a.887.887 0 0 0 .177-.14c4.319-4.361 13.916-18.14 18.4-39.115m-78.78 70.853c4.824 9.045-9.045.869-16.582-4.35m290.196 123.067h-34.673m-112.31-26.005c4.763-1.764 13.91-4.469 21.859-5.09m9.045.567c-1.548-.442-3.34-.654-5.276-.691m-18.09-51.318c1.759 13.692 7.085 43.149 14.321 51.442m0 0a39.172 39.172 0 0 1 3.769-.124m-3.769-51.318c3.266 25.377 11.306 77.411 17.337 82.537m0 0h-13.568m13.568 0h73.114m-86.682-31.219v31.219m72.361-66.318c2.01.121 6.03 1.871 6.03 7.901m0 0c0 7.538 1.507 48.241 8.291 58.417M98.438 442.298c-.413-1.451-.584-2.024-.216-1.104.115.286.185.659.216 1.104ZM58.148 51.156c.09-.132.318-.213.422-.091.284.335.267.47-.422.092Zm41.582 94.565c1.19-15.481 15.219-14.598 22.344-12.154.178.061.366.071.552.036 5.329-1.002 10.555 3.112 12.53 5.334 8.988 10.187-1.624 18.736-8.168 21.802a.921.921 0 0 1-.257.078c-9.588 1.478-28.202.509-27.001-15.096ZM61.5 78c-1.002-7.018 15.698-19.757 40.325-18.62.114.005.229.03.334.077.982.438 2.128 1.243-.159 1.439-23.366 1.507-35.224 11.074-37.485 15.597C62.705 80.11 61.75 79.005 61.5 78Zm371.39 47.37c-.515 3.088-10.954 9.693-18.374 13.904-.905.513-.545 2.043.49 2.141 2.994.283 6.866.885 10.346 2.045 6.784 2.261 8.292-22.613 7.538-18.09Zm-37.688-21.105c-.502 0-1.507.301-1.507 1.507s1.005 1.508 1.507 1.508c.503 0 1.508-.302 1.508-1.508s-1.005-1.507-1.508-1.507Zm19.598-1.508c-.503 0-1.508.302-1.508 1.508s1.005 1.507 1.508 1.507c.502 0 1.507-.301 1.507-1.507s-1.005-1.508-1.507-1.508ZM132 148.5c-6.077-.32-12.999-3.869-17.316-6.639-.83-.533-2.557.401-2.712 1.375-.493 3.096-1.122 6.902 6.601 11.264 4.427 2.5 22.911-5.5 13.427-6Zm-1.836-65.628c-6.603-3.852-13.266.422-17.324 4.69-.72.756.152 1.826 1.126 1.451 6.756-2.594 12.031-1.89 14.972-.71.751.3 1.696-.225 1.696-1.034v-3.564a.964.964 0 0 0-.47-.833Z" stroke="#63400E" stroke-width="1.508"/></svg>