<svg width="60" height="63" viewBox="0 0 60 63" fill="none" xmlns="http://www.w3.org/2000/svg">
<path fill-rule="evenodd" clip-rule="evenodd" d="M7.42027 33.5007C8.46612 33.5007 9.43066 32.9366 9.9434 32.025L14.7968 23.3967C15.3096 22.4852 16.2741 21.9211 17.32 21.9211H31.0364C32.2202 21.9211 33.2846 22.6417 33.7243 23.7408L36.6588 31.077C37.074 32.1152 38.0501 32.8214 39.166 32.8912L46.2729 33.3354C47.7702 33.4289 48.9479 34.6508 48.9863 36.1504L49.566 58.757C49.6077 60.3843 48.2999 61.7261 46.672 61.7261H4.04726C2.44844 61.7261 1.15234 60.43 1.15234 58.8312V36.3956C1.15234 34.7968 2.44844 33.5007 4.04725 33.5007H7.42027ZM32.2726 46.5278C32.8516 38.422 27.2065 36.3956 24.3116 36.3956C21.4167 36.3956 15.6269 38.5668 15.6269 46.5278C15.6269 52.5997 20.8895 54.33 23.8888 54.4781C24.1702 54.492 24.4466 54.5349 24.7223 54.5934C27.2462 55.1284 31.7248 54.1973 32.2726 46.5278Z" fill="#F9D5A0"/>
<path d="M37.3387 12.5126C40.7161 12.2713 47.3262 13.8153 46.7472 21.9211M37.3387 2.38058C44.8172 0.45052 59.4848 1.65653 58.3268 21.9211M24.3116 36.3956C27.2065 36.3956 32.8516 38.422 32.2726 46.5278C31.7248 54.1973 27.2462 55.1284 24.7223 54.5934C24.4466 54.5349 24.1702 54.492 23.8888 54.4781C20.8895 54.33 15.6269 52.5997 15.6269 46.5278C15.6269 38.5668 21.4167 36.3956 24.3116 36.3956ZM1.15234 36.3956V58.8312C1.15234 60.43 2.44844 61.7261 4.04726 61.7261H46.672C48.2999 61.7261 49.6077 60.3843 49.566 58.757L48.9863 36.1504C48.9479 34.6508 47.7702 33.4289 46.2729 33.3354L39.166 32.8912C38.0501 32.8214 37.074 32.1152 36.6588 31.077L33.7243 23.7408C33.2846 22.6417 32.2202 21.9211 31.0364 21.9211H17.32C16.2741 21.9211 15.3096 22.4852 14.7968 23.3967L9.9434 32.025C9.43066 32.9366 8.46612 33.5007 7.42027 33.5007H4.04725C2.44844 33.5007 1.15234 34.7968 1.15234 36.3956Z" stroke="#A2783A" stroke-width="2"/>
</svg>
