<svg width="70" height="64" fill="none" xmlns="http://www.w3.org/2000/svg"><path fill-rule="evenodd" clip-rule="evenodd" d="M57.298 4.994c-.865.34-.258-.682.154-1.235.296-.566 1.413-1.651 3.512-1.466 2.099.185 2.29 3.55 2.122 5.21l.386.077.077.926c.247.03.386.064.425.077 3.087 2.037 3.113 7.795 2.74 10.419-.49 1.634-1.174 5.402 0 7.409.94 1.61.674 2.87.362 4.342-.174.821-.362 1.708-.362 2.758 0 2.347.514 5.274.771 6.445h-.772l.54 13.737-.347.155c.026.167.078.525.078.617 0 .093-1.21.039-1.814 0l-.424-.386c-.013.168-.124.479-.464.386-.34-.092-1.196.039-1.582.116 3.396 4.36 5.326 4.63 5.866 4.63-2.425 1.235-3.865.698-5.096.239-1.002-.374-1.865-.696-3.008.032-2.037 1.296-6.071 1.466-7.834 1.389-2.019-.527-6.482-1.729-8.18-2.315-2.123-.733-6.6 1.968-7.641 2.778-.834.648-5.184.27-7.255 0-2.174.643-7.239 1.598-10.11.27-2.871-1.327-5.93-1.042-7.1-.733-1.204-.587-5.107-.476-6.908-.347 2.83-2.212 4.664-2.281 6.03-2.333.684-.026 1.25-.047 1.765-.33.623-.342 1.654-.459 3.129-.625 2.18-.246 5.331-.602 9.567-1.96 7.089-2.273 9.446-5.162 14.062-10.816l.023-.028c2.778-3.403 3.528-5.68 4.317-8.075.526-1.597 1.07-3.246 2.243-5.315 2.592-4.57 4.521-5.524 5.654-6.083.149-.073.284-.14.405-.207.967-.537.903-1.274.735-3.229l-.04-.476c-.098-1.167-.48-1.805-.864-2.447-.378-.631-.758-1.267-.873-2.415-.188-1.873.18-2.231.798-2.83.146-.142.306-.297.475-.489.71-.802.296-1.132 0-1.196.013.039-.393.24-2.122.733-1.73.494-1.827-.952-1.66-1.736-.964-.193-1.35-2.431-.193-3.203.927-.618 2.033-.257 2.47 0h.733c.193-.116.857-.363 1.968-.425.943-.052 1.157.731 1.306 1.276.07.258.126.462.238.5.278.092.399.218.424.27l-.231.154v.154c-.052.026-.108.085.077.116.185.03.129.476.077.695-1.196.386-1.273 2.083-1.042 2.894.185.648 1.698 2.56 2.431 3.434.4-.154 1.174-.486 1.08-.579-.066-.067.048-.781.171-1.55.09-.56.183-1.147.216-1.537.062-.74.746-1.492 1.08-1.775.013-.257-.023-.872-.27-1.273-.196-.319-.019-.404.186-.502.118-.057.245-.119.316-.231.154-.247-.065-.438-.193-.502-1.204.803-1.557.72-1.582.579.013-.219.007-.649-.116-.618-.123.031-.026-.244.039-.386-.065.103-.217.301-.31.27-.092-.03-.09-.527-.076-.771-.27.116-.764.278-.58 0 .186-.278.284-1.016.31-1.35-.103.025-.34.007-.463-.271-.124-.278.05-.81.154-1.042Zm1.042 12.387c-.476.219-1.42.71-1.39.926.016.111-.111.379-.248.666-.197.412-.412.864-.253.955.216.123 1.402-.849 1.968-1.35l-.077-1.197Zm-2.316 6.097c.34.062 1.737-.849 2.393-1.312 0 .309.077 1.636.386 4.476s1.183 5.454 1.582 6.406l-.27 13.738c-.45-1.878-1.343-6.22-1.312-8.567.038-2.933-1.93-8.682-2.161-9.184-.232-.502-1.042-5.634-.618-5.557Z" fill="#FDD8A1"/><path d="M58.417 22.166c-.656.463-2.053 1.374-2.393 1.312-.424-.077.386 5.055.618 5.557.231.502 2.2 6.251 2.16 9.184-.03 2.346.863 6.689 1.313 8.567l.27-13.738c-.399-.952-1.273-3.565-1.582-6.406-.309-2.84-.386-4.167-.386-4.476ZM58.34 17.381c-.476.219-1.42.71-1.39.926.016.111-.111.379-.248.666-.197.412-.412.864-.253.955.216.123 1.402-.849 1.968-1.35l-.077-1.197Z" fill="#fff"/><path d="M56.07 4.89a.953.953 0 0 0 .256.674c-.026.224-.026.518.096.793.086.192.198.34.324.45a2.744 2.744 0 0 1-.078.332c-.02.062-.032.087-.033.09a1.005 1.005 0 0 0-.155.381.838.838 0 0 0 .671.97c.015.051.038.114.071.178a.86.86 0 0 0 .33.351v.006l-.006.095.017.093a.896.896 0 0 0 .658.702c.22.06.434.038.605 0 .035.087.076.163.115.226.047.076.095.216.126.404.007.044.012.087.017.127a4.92 4.92 0 0 0-.49.593c-.255.365-.53.875-.578 1.446-.029.352-.117.905-.208 1.477l-.002.01c-.06.377-.121.759-.158 1.055a7.878 7.878 0 0 0-.024.211l-.052.024c-.315-.39-.685-.86-1.022-1.316-.24-.327-.457-.637-.622-.898a4.843 4.843 0 0 1-.195-.333 1.66 1.66 0 0 1-.069-.15 2.593 2.593 0 0 1-.007-1.203c.106-.433.299-.648.533-.723l.423-.137.102-.434c.034-.145.076-.38.071-.612a1.519 1.519 0 0 0-.02-.233l.276-.184-.312-.623a1.157 1.157 0 0 0-.36-.406 1.706 1.706 0 0 0-.224-.137 13.165 13.165 0 0 1-.032-.116c-.069-.254-.193-.71-.472-1.088-.342-.463-.882-.775-1.63-.734-.974.055-1.692.244-2.107.424h-.356a3.598 3.598 0 0 0-1.166-.324c-.579-.059-1.283.021-1.935.456-.92.614-1.135 1.725-1.047 2.559.047.435.18.875.406 1.242.108.175.249.35.426.498-.013.406.045.877.273 1.29.196.355.518.661.983.808.445.14.942.108 1.466-.042.265-.076.502-.146.712-.21-.261.261-.547.586-.724 1.069-.208.568-.239 1.27-.142 2.242.133 1.324.587 2.083.979 2.737l.003.006c.369.616.672 1.125.754 2.107l.04.478c.089 1.025.13 1.575.067 1.946a.664.664 0 0 1-.107.294.86.86 0 0 1-.292.23 9.03 9.03 0 0 1-.37.19l.349.708-.35-.707c-.589.29-1.435.709-2.466 1.666-1.022.947-2.2 2.398-3.524 4.734C44.67 32.79 44.108 34.5 43.58 36.1l-.004.01-.003.01c-.775 2.352-1.49 4.524-4.175 7.813l.61.5-.61-.5-.023.028c-2.32 2.843-4.015 4.914-5.998 6.569-1.96 1.636-4.227 2.882-7.694 3.994-4.16 1.334-7.248 1.683-9.415 1.928l-.02.002c-.721.081-1.369.154-1.914.252-.543.096-1.06.229-1.486.464-.322.177-.69.205-1.414.233h-.014c-.687.026-1.572.06-2.653.39-1.09.332-2.341.953-3.82 2.109L2.91 61.495l2.58-.184a41.63 41.63 0 0 1 3.604-.093c.662.015 1.29.05 1.816.116.55.069.91.16 1.086.246l.263.129.284-.075c1.043-.275 3.905-.545 6.568.687 1.626.752 3.78.83 5.711.674 1.867-.151 3.65-.532 4.793-.857a46.33 46.33 0 0 0 4.003.33c.74.023 1.463.02 2.068-.037.301-.027.592-.07.848-.134.241-.061.525-.16.758-.34.465-.362 1.79-1.21 3.255-1.872.73-.33 1.467-.601 2.129-.748.68-.15 1.187-.148 1.514-.035 1.733.598 6.23 1.808 8.24 2.333l.08.02.084.004c.922.04 2.417.017 3.95-.185 1.51-.198 3.172-.582 4.342-1.326.433-.276.767-.331 1.074-.308.352.026.711.154 1.234.35l.028.01c.605.225 1.37.51 2.312.554.972.044 2.073-.17 3.39-.839l-.358-1.492c-.167 0-1.58-.04-4.285-3.158a1.117 1.117 0 0 0 .52-.069l.043.04.276.017c.308.02.775.043 1.17.05.193.004.388.004.542-.005.072-.005.17-.013.263-.033a.946.946 0 0 0 .239-.084.808.808 0 0 0 .439-.716c0-.04-.003-.086-.007-.135l.297-.133-.02-.535-.509-12.917h.933l-.21-.959c-.253-1.148-.754-4.011-.754-6.275 0-.957.17-1.77.345-2.594l.009-.044c.31-1.464.633-2.986-.462-4.86-.464-.793-.6-2.038-.517-3.398.081-1.328.362-2.62.592-3.387l.017-.056.008-.059c.195-1.375.286-3.555-.076-5.673-.357-2.087-1.188-4.313-3.01-5.516l-.087-.057-.035-.012-.029-.34-.049-.593-.292-.058c.024-.818-.036-1.819-.28-2.725-.311-1.153-1.033-2.494-2.604-2.632-2.365-.209-3.772.984-4.248 1.827-.21.287-.505.737-.636 1.125-.037.108-.078.26-.08.43Zm.124 3.454Z" stroke="#A2783A" stroke-width="1.578"/></svg>