<svg width="51" height="61" fill="none" xmlns="http://www.w3.org/2000/svg"><path fill-rule="evenodd" clip-rule="evenodd" d="M27 50.528c-8.667.167-26-4.7-26-25.5.667-8.333 6.8-24.8 26-24 8.333 1 24.6 7.9 23 27.5-.167 6.334-5 21.3-23 30.5v-8.5Zm-11-32 5 2.5c.333-1.333 1.9-4 5.5-4s2.5 4.472.5 6c-2.167 1.334-6 5.2-4 10h5.5c-.5-.666-.7-2.7 2.5-5.5s4-6.833 4-8.5c0-2.166-1.6-6.8-8-8-6.4-1.2-10 4.5-11 7.5Zm6.5 20.5c0-2.4 2-3.333 3-3.5 2.5.5 3 2 3 4 0 1.6-2 2.334-3 2.5-1 0-3-.6-3-3Z" fill="#FDD8A1" stroke="#A2783A" stroke-width="1.75"/></svg>