<svg width="60" height="61" fill="none" xmlns="http://www.w3.org/2000/svg"><path d="M19.024 32.695c.586 7.61 7.561 10 10.976 10.244 3.415.244 10.39-1.463 10.976-10.244.585-8.78-6.586-11.707-10.976-11.707-6.585 0-11.561 4.098-10.976 11.707ZM48.852 60.5h-37.67a.142.142 0 0 1-.138-.19c1.806-4.933 8.285-14.29 20.42-13.712 12.139.578 16.714 9.29 17.531 13.735a.142.142 0 0 1-.143.167Z" fill="#FDD8A1"/><path d="M47.913 47.68c1.537 1.538 4.054 1.552 5.37-.178a29.27 29.27 0 1 0-47.37-1.106c1.236 1.79 3.75 1.893 5.358.43 1.607-1.464 1.687-3.94.542-5.788A21.395 21.395 0 0 1 42.197 12.19a21.397 21.397 0 0 1 5.445 29.686c-1.23 1.792-1.267 4.269.27 5.806Z" fill="#A2783A"/></svg>