<svg width="40" height="60" fill="none" xmlns="http://www.w3.org/2000/svg"><path d="M18.79 46.092c.253.391.7.654 1.21.654.508 0 .958-.26 1.225-.658l12.91-19.94L18.79 46.091Zm0 0L5.876 26.147c-1.665-2.576-2.622-5.39-2.622-8.651C3.254 8.024 10.684.75 20 .75c9.317 0 16.747 7.274 16.758 16.747M18.79 46.092l17.968-28.595m0 0c0 3.26-.957 6.074-2.622 8.65l2.622-8.65ZM19.4 55.446l.6.8.6-.8 12.431-16.567c3.921 2.216 6.223 5.311 6.223 8.617 0 3.1-2.012 6.02-5.505 8.204-3.483 2.178-8.342 3.55-13.749 3.55S9.735 57.878 6.252 55.7C2.759 53.516.746 50.595.746 47.496c0-3.306 2.302-6.401 6.223-8.617L19.4 55.446Zm11.346-37.95C30.746 11.562 25.934 6.75 20 6.75S9.254 11.562 9.254 17.496 14.067 28.242 20 28.242c5.934 0 10.746-4.812 10.746-10.746Z" fill="#FDD8A1" stroke="#A2783A" stroke-width="1.5"/></svg>